<svg xmlns="http://www.w3.org/2000/svg" width="25" height="19.773" viewBox="0 0 25 19.773"><path fill-rule="evenodd" clip-rule="evenodd" fill="#CCCCCB" stroke="#FFF" stroke-width=".22" stroke-miterlimit="10" d="M13.765 11.931H6.602a1.276 1.276 0 1 0 0 2.553h7.163a1.276 1.276 0 1 0 0-2.553zM.213 17.556c0 1.13.912 2.049 2.042 2.049h20.459c1.131 0 2.05-.919 2.05-2.049V2.218c0-1.13-.919-2.049-2.05-2.049H2.255c-1.13 0-2.042.919-2.042 2.049v15.338zm3.68-14.827H21.08c.62 0 1.123.496 1.123 1.123v1.43H2.769v-1.43c0-.627.5-1.123 1.124-1.123zM2.769 9.373h19.434v6.549c0 .619-.503 1.123-1.123 1.123H3.893a1.122 1.122 0 0 1-1.124-1.123V9.373z"/><path fill="none" stroke="#B02525" stroke-width="3" stroke-linecap="round" stroke-miterlimit="10" d="M1.594 18.182L23.219 1.625"/></svg>