<svg width="34" height="34" viewBox="0 0 34 34" xmlns="http://www.w3.org/2000/svg"><title>516D92BC-8FF6-4484-AE1F-0DF7C99D638A</title><g fill="#A0A0A0" fill-rule="evenodd"><path d="M16.75 32C8.341 32 1.5 25.159 1.5 16.75 1.5 8.341 8.341 1.5 16.75 1.5 25.159 1.5 32 8.341 32 16.75 32 25.159 25.159 32 16.75 32m0-32C7.514 0 0 7.514 0 16.75S7.514 33.5 16.75 33.5 33.5 25.986 33.5 16.75 25.986 0 16.75 0"/><path d="M16.75 20.017a12.064 12.064 0 0 0-9.901 5.188.75.75 0 0 0 1.233.856 10.562 10.562 0 0 1 8.668-4.544c3.452 0 6.692 1.699 8.668 4.544a.75.75 0 0 0 1.233-.856 12.064 12.064 0 0 0-9.901-5.188m0-13.923a4.363 4.363 0 0 1 4.358 4.358c0 2.333-1.456 6.5-4.358 6.5-2.902 0-4.358-4.167-4.358-6.5a4.363 4.363 0 0 1 4.358-4.358m0 12.357c3.823 0 5.858-4.645 5.858-7.999a5.865 5.865 0 0 0-5.858-5.858 5.865 5.865 0 0 0-5.858 5.858c0 3.354 2.035 8 5.858 8"/></g></svg>