<svg width="34" height="34" viewBox="0 0 34 34" xmlns="http://www.w3.org/2000/svg"><title>903E8B00-7287-4195-A5A1-30358EF8B66A</title><g fill="none" fill-rule="evenodd"><path d="M17 33.318c8.837 0 16-7.163 16-16 0-8.836-7.163-16-16-16s-16 7.164-16 16c0 8.837 7.163 16 16 16z" stroke="#A0A0A0" fill="#FFF"/><path d="M13.968 14.388c.373 2.056 1.738 3.384 3.477 3.384 1.738 0 3.074-1.295 3.476-3.38.037-.2.37-1.96.395-2.366a3.561 3.561 0 0 0-1-2.639 4.008 4.008 0 0 0-5.768.026 3.495 3.495 0 0 0-.971 2.62c.022.4.354 2.16.391 2.355zm11.19 8.397c-.177-1.033-1.048-1.823-2.35-2.114l-6.094-1.067-6.107 1.074c-1.263.262-2.156 1.074-2.337 2.126l-.413 3.443h17.714l-.413-3.462z" fill="#A0A0A0"/></g></svg>