<svg width="32" height="32" viewBox="0 0 32 32" xmlns="http://www.w3.org/2000/svg" xmlns:xlink="http://www.w3.org/1999/xlink"><title>57D5BB84-446E-402C-A576-5BE121C144B6</title><defs><path d="M16 32c8.837 0 16-7.163 16-16S24.837 0 16 0 0 7.163 0 16s7.163 16 16 16z" id="a"/></defs><g fill="none" fill-rule="evenodd"><mask id="b" fill="#fff"><use xlink:href="#a"/></mask><use fill="#C9C9C9" xlink:href="#a"/><g fill="#F9F9F9" mask="url(#b)"><path d="M16.162 1C7.788 1 1 7.788 1 16.162c0 8.373 6.788 15.162 15.162 15.162 8.373 0 15.162-6.789 15.162-15.162A15.162 15.162 0 0 0 16.162 1zm0 1.263a13.898 13.898 0 0 1 11.2 22.111c-.46-1.516-1.724-2.735-3.62-3.335l-7.58-1.415-7.486 1.409a4.902 4.902 0 0 0-3.715 3.341 13.898 13.898 0 0 1 11.2-22.11zm0 27.797a13.86 13.86 0 0 1-10.108-4.372v-.157c0-1.896 1.51-2.913 2.893-3.26l7.215-1.358 7.208 1.345c.897.284 2.9 1.163 2.9 3.266v.164a13.86 13.86 0 0 1-10.108 4.372zm0 0a13.86 13.86 0 0 1-10.108-4.372v-.157c0-1.896 1.51-2.913 2.893-3.26l7.215-1.358 7.208 1.345c.897.284 2.9 1.163 2.9 3.266v.164a13.86 13.86 0 0 1-10.108 4.372z"/><path d="M11.613 12.946c.487 2.723 2.275 4.48 4.549 4.48 2.274 0 4.03-1.713 4.548-4.467.082-.417.48-2.527.5-3.058a4.77 4.77 0 0 0-1.334-3.531 5.168 5.168 0 0 0-7.46.031 4.688 4.688 0 0 0-1.308 3.507c.038.524.461 2.792.505 3.038zm1.719-5.685a3.904 3.904 0 0 1 5.628 0c.67.689 1.03 1.623.992 2.583 0 .329-.303 1.94-.48 2.875-.316 1.668-1.352 3.443-3.31 3.443-1.959 0-3.02-1.851-3.304-3.437-.177-.941-.487-2.552-.487-2.88a3.43 3.43 0 0 1 .96-2.578V7.26z" opacity=".568"/><path d="M13.332 7.26a3.904 3.904 0 0 1 5.628 0c.67.69 1.03 1.624.992 2.584 0 .329-.303 1.94-.48 2.875-.316 1.668-1.352 3.443-3.31 3.443-1.959 0-3.02-1.851-3.304-3.437-.177-.941-.487-2.552-.487-2.88a3.43 3.43 0 0 1 .96-2.578V7.26z"/></g></g></svg>