<svg width="104" height="65" viewBox="0 0 104 65" xmlns="http://www.w3.org/2000/svg" xmlns:xlink="http://www.w3.org/1999/xlink"><title>E3B19196-8D38-4554-980E-DB7F38CA53E6</title><defs><path id="a" d="M.377 60.321h27.509V.356H.377z"/><path id="c" d="M.383 60.321h27.509V.356H.383v59.965z"/><path d="M0 .386c.162-.02.326-.03.493-.03h27.016v59.965H.493c-.167 0-.332-.01-.493-.03V.386z" id="e"/></defs><g fill="none" fill-rule="evenodd"><path d="M2 6.73a4.006 4.006 0 0 1 3.995-4.005h91.952a4 4 0 0 1 3.995 4.005v51.956a4.006 4.006 0 0 1-3.995 4.004H5.995A4 4 0 0 1 2 58.686V6.73z" fill="#005DB2"/><path d="M52.57 40.521c-.05-.567-.085-1.137-.154-1.703-.162-1.334-.562-2.603-1.11-3.826a.468.468 0 0 0-.212-.204 12.312 12.312 0 0 0-4.314-1.206 12.56 12.56 0 0 0-2.855.057c-1.193.161-2.34.491-3.44.986a.963.963 0 0 0-.498.479c-1.05 2.092-1.31 4.31-1.037 6.605a13.053 13.053 0 0 0 1.154 4.014c.04.084.12.17.203.21 2.18 1.067 4.473 1.486 6.89 1.22a11.91 11.91 0 0 0 3.916-1.13.536.536 0 0 0 .235-.235 12.663 12.663 0 0 0 1.223-5.267zm-14.09-.913c.03-.282.062-.565.09-.848.141-1.475.54-2.872 1.258-4.173a.494.494 0 0 1 .212-.184c1.157-.559 2.371-.944 3.647-1.1.713-.086 1.435-.157 2.152-.146a12.62 12.62 0 0 1 5.524 1.335.51.51 0 0 1 .21.23c.542 1.17.918 2.394 1.121 3.666a12.799 12.799 0 0 1-.82 7.033c-.319.773-.32.773-1.092 1.101a12.431 12.431 0 0 1-3.498.92c-2.522.283-4.917-.15-7.2-1.245a.553.553 0 0 1-.288-.29c-.609-1.349-1.022-2.753-1.188-4.225-.038-.335-.057-.672-.088-1.008-.006-.07-.026-.138-.04-.207v-.859zm21.43-.494c.361 0 .699-.022 1.032.005.521.042 1.05-.507 1.12-.911.034-.2-.01-.378-.175-.48a1.383 1.383 0 0 0-.499-.178c-.197-.03-.401-.007-.602-.007-.538 0-.541-.001-.659.524-.076.338-.14.68-.216 1.047m-1.025 3.945c.467 0 .888-.01 1.309.003.45.014.787-.18 1.047-.526.184-.244.281-.526.135-.817-.153-.306-.447-.427-.771-.442-.356-.017-.714 0-1.07-.006-.118-.003-.173.035-.203.151-.113.431-.235.86-.354 1.29l-.093.347m4.542-3.088c.269.27.562.497.77.785.521.723.556 1.54.288 2.359-.528 1.607-1.665 2.554-3.3 2.91-.307.068-.63.085-.946.087-1.774.008-3.548.004-5.322.004h-.247l.573-2.248c.49-1.924.978-3.85 1.475-5.771.048-.186-.012-.217-.171-.21-.192.006-.384 0-.61 0l.286-.564c.47-.924.944-1.847 1.41-2.774.057-.114.12-.158.25-.158 1.625.005 3.25-.015 4.874.011.814.013 1.58.227 2.172.846.49.512.67 1.138.588 1.826-.154 1.293-.883 2.198-1.986 2.833-.043.025-.085.052-.104.064m16.874-1.538l-.056-.006-1.22 2.911c.408 0 .775-.007 1.143.004.17.006.207-.059.201-.215-.016-.46-.016-.92-.028-1.382-.01-.437-.027-.875-.04-1.312m3.284-4.027l.564 11.696c-.088.006-.151.013-.214.013-1.118 0-2.236-.002-3.354.004-.156 0-.216-.039-.22-.203-.012-.59-.038-1.18-.06-1.786-.075-.004-.138-.01-.2-.011-.683 0-1.366.003-2.048-.004-.139-.001-.207.043-.258.172-.223.56-.457 1.115-.685 1.673-.039.096-.078.16-.205.159-1.287-.006-2.574-.004-3.861-.004-.025 0-.05-.006-.109-.014l4.162-8.291h-.879c.024-.072.031-.114.05-.151.551-1.044 1.1-2.088 1.658-3.128.034-.063.131-.13.2-.13 1.787-.008 3.574-.006 5.362-.006.025 0 .05.006.097.011" fill="#FFF"/><path d="M76.397 35.63l-1.821 3.217c-.225-.147-.432-.304-.657-.427-1.207-.654-2.444-.764-3.679-.101-.965.52-1.502 1.368-1.604 2.452-.13 1.377.948 2.524 2.322 2.56 1.087.027 2.071-.27 2.987-.832.023-.014.046-.025.069-.037.004-.002.01.002.033.005-.235.486-.468.969-.702 1.45-.328.677-.662 1.35-.979 2.033-.086.186-.21.27-.399.32-.769.2-1.553.232-2.338.185-.935-.055-1.833-.27-2.645-.762-1.076-.65-1.681-1.63-1.928-2.842-.309-1.52.066-2.936.733-4.285.719-1.456 1.867-2.49 3.316-3.2a8.038 8.038 0 0 1 2.822-.805c.527-.048 1.063-.062 1.582.111.05.016.148-.044.193-.095.217-.246.214-.252.505-.1.685.355 1.368.713 2.051 1.07.04.021.078.046.14.082m-30.603 8.477c-.07.005-.128.006-.184.013-.138.019-.18-.042-.176-.177.015-.402.028-.805.028-1.208 0-.85-.03-1.696-.25-2.527-.146-.555-.432-1.022-.82-1.435-.173-.184-.34-.375-.518-.555-.97-.985-.808-3.153 1.138-3.628.906-.222 1.697-.042 2.357.619.337.337.486.769.539 1.241.093.837-.238 1.501-.805 2.081a9.888 9.888 0 0 0-.649.724c-.397.5-.534 1.099-.615 1.714-.116.886-.094 1.774-.046 2.663.008.154.001.309.001.475" fill="#FFF"/><path d="M45.351 42.875c-.02.45-.037.775-.048 1.099-.003.105-.039.149-.15.148-.117-.002-.14-.062-.147-.159-.089-1.129-.701-1.852-1.75-2.218-.47-.164-.956-.28-1.428-.437-.873-.292-1.07-.849-.978-1.663.011-.102.033-.204.055-.305.155-.725.704-1.204 1.44-1.282 1.097-.117 1.794.447 2.295 1.336.361.642.527 1.35.61 2.074.057.508.074 1.02.101 1.407m.882 1.235h-.287c-.005-.077-.011-.146-.011-.216.002-.701-.01-1.404.01-2.105.03-1.033.282-2 .932-2.83.403-.514.909-.863 1.583-.921.807-.07 1.724.487 1.858 1.343.045.285.062.579.047.866-.022.435-.268.756-.659.914-.514.207-1.048.365-1.576.536-.599.194-1.138.47-1.495 1.019-.22.339-.349.706-.368 1.11-.005.09-.021.18-.034.285" fill="#FFF"/><path d="M40.976 41.06c.27.365.665.47 1.047.586.457.14.928.241 1.379.4.855.3 1.346.914 1.451 1.82.009.08-.03.219-.083.24-.124.048-.227.014-.292-.152-.195-.5-.547-.687-1.074-.627-.47.053-.94.13-1.41.13-.719 0-1.289-.607-1.318-1.328a1.687 1.687 0 0 1 .3-1.069m5.401 3.046c.052-.841.415-1.493 1.158-1.864.475-.238 1-.377 1.506-.554.22-.077.454-.119.663-.215.193-.089.36-.23.558-.36.253.446.424.958.2 1.516-.214.53-.655.814-1.202.855-.4.03-.813-.031-1.215-.087-.617-.084-1.026-.047-1.344.623-.078.164-.202.084-.324.086m-3.361 2.082l-.278-.056c.082-.369.16-.732.245-1.093.008-.032.08-.077.11-.07.168.042.343.077.492.157.133.07.204.23.116.367-.115.18-.075.377-.123.562-.02.08-.033.161-.05.25l-.227-.056c-.065-.17.177-.397-.13-.553l-.155.492m3.958-1.012c.289.004.425.171.383.43-.01.06 0 .136.03.185.18.28.096.505-.222.578-.384.089-.384.089-.44-.297-.03-.197-.057-.395-.09-.592-.044-.256-.046-.256.206-.288l.133-.016m-4.537.073l-.159-.23c-.056.05-.135.091-.166.155a1.14 1.14 0 0 0-.102.352c-.007.06.047.128.074.192.049-.021.139-.042.139-.063 0-.06-.036-.12-.079-.18-.003-.103.018-.213.166-.146.107.048.326.01.226.256-.046.113-.058.24-.108.351-.02.044-.103.086-.155.083-.105-.007-.209-.044-.311-.073-.17-.048-.316-.139-.268-.34.063-.26.14-.52.25-.764.07-.158.278-.168.485-.077.162.07.213.18.185.358-.028.182-.13.134-.177.126m2.153-.039h.25c-.035.34-.057.668-.11.991-.027.171-.235.278-.41.253-.22-.032-.383-.186-.37-.38.017-.303.053-.605.081-.905.286-.03.287-.029.255.23-.022.179-.052.36-.052.54 0 .07.07.142.107.213.052-.064.138-.12.151-.192.045-.24.065-.486.097-.75m4.168.866c-.018-.38-.04-.74-.046-1.101-.001-.056.055-.139.106-.162.053-.023.17-.013.193.024.197.31.379.627.572.955-.07.047-.129.084-.202.132-.045-.06-.08-.124-.13-.168-.042-.036-.112-.077-.154-.065-.042.013-.097.094-.09.136.03.193-.075.237-.25.249m-3.596-.853c.154.02.282.028.406.054.244.051.332.172.312.408-.019.207-.124.304-.366.304-.121 0-.162.051-.168.157-.005.077.004.158-.017.23-.013.045-.083.112-.107.105-.052-.017-.13-.077-.129-.116.014-.367.042-.734.069-1.142m3.087.528h.221c.057.326-.066.5-.358.51-.154.005-.299-.043-.332-.208a5.859 5.859 0 0 1-.112-.8c-.008-.141.097-.24.248-.247.171-.01.366-.053.44.173.017.05-.004.163-.022.166a.459.459 0 0 1-.209-.023c-.052-.017-.097-.06-.145-.09-.024.061-.072.125-.067.185.013.154.039.308.08.456.017.059.09.1.137.15.037-.058.078-.114.111-.174.011-.02.005-.05.008-.098M49.88 24.65l1.042-2.458.373 2.457H49.88zm3.425-6.665l-2.68-.074-6.478 12.174h3.164l1.6-2.942h2.719l.39 2.923 2.978.019-1.693-12.1zm2.159 0l-.316 2.439h3.07l-1.935 9.66h3.09l1.992-9.698h3.276l.614-2.4zm10.889.056c-.056.038-2.662 12.025-2.662 12.025h2.904l1.266-5.119.205 5.082h2.475l2.755-4.859-.8 4.803h2.81l2.495-11.876h-3.35l-4.04 7.334-1.024-7.409-3.034.02z" fill="#FFF"/><g transform="translate(16.786 2.37)"><mask id="b" fill="#fff"><use xlink:href="#a"/></mask><path d="M6.656 69.89c0-.45 21.23-78.041 21.23-78.041h-6.28L.378 70.039l6.28-.15z" fill="#C7D1EC" mask="url(#b)"/></g><g transform="translate(10.95 2.37)"><mask id="d" fill="#fff"><use xlink:href="#c"/></mask><path d="M6.662 69.89c0-.45 21.23-78.041 21.23-78.041h-6.28L.384 70.039l6.28-.15z" fill="#96ABDB" mask="url(#d)"/></g><g transform="translate(5.502 2.37)"><mask id="f" fill="#fff"><use xlink:href="#e"/></mask><path d="M6.28 69.89c0-.45 21.229-78.041 21.229-78.041h-6.28L0 70.039l6.28-.15z" fill="#6D8CC8" mask="url(#f)"/></g></g></svg>