<svg width="107" height="20" viewBox="0 0 107 20" xmlns="http://www.w3.org/2000/svg"><title>5676CCA8-67BC-4BBC-BC13-AF0EBC4AA384</title><g fill="none" fill-rule="evenodd"><path d="M64.301 1.286c0-.58.47-1.077 1.05-1.077.607 0 1.076.47 1.076 1.077v12.398c0 .608-.441 1.077-1.049 1.077-.607 0-1.077-.47-1.077-1.077V1.286z" fill="#D3385D"/><path d="M70.597 13.104a.96.96 0 0 1-.387-.773c0-.497.414-.911.939-.911.193 0 .387.055.524.166 1.464.994 2.983 1.518 4.53 1.518 1.711 0 2.954-.883 2.954-2.264v-.055c0-1.436-1.685-1.988-3.563-2.513-2.236-.635-4.721-1.408-4.721-4.032v-.055c0-2.457 2.043-4.087 4.86-4.087 1.518 0 3.175.47 4.556 1.215.276.166.524.47.524.884a.925.925 0 0 1-.938.911 1.07 1.07 0 0 1-.47-.11c-1.215-.69-2.513-1.105-3.728-1.105-1.684 0-2.761.884-2.761 2.071v.056c0 1.353 1.767 1.877 3.673 2.457 2.209.663 4.583 1.519 4.583 4.087v.055c0 2.706-2.236 4.28-5.08 4.28-1.878 0-3.95-.69-5.495-1.795" fill="#ADB1B4"/><path d="M64.108 18.062c0-.69.552-1.132 1.243-1.132.717 0 1.27.442 1.27 1.132v.359c0 .663-.553 1.132-1.27 1.132-.69 0-1.243-.47-1.243-1.132v-.359z" fill="#D3385D"/><path d="M100.843 0a5.96 5.96 0 0 0-4.916 2.588A5.905 5.905 0 0 0 91.047.01a5.968 5.968 0 0 0-5.968 5.967v7.705c0 .61.47 1.08 1.08 1.08.609 0 1.052-.47 1.052-1.08l-.002-7.909a3.833 3.833 0 1 1 7.668 0l-.001 7.026v.004a1.066 1.066 0 1 0 2.132 0l-.003-7.04a3.834 3.834 0 0 1 7.668 0v7.91c0 .609.47 1.078 1.052 1.078.609 0 1.08-.47 1.08-1.079l.006-7.695c0-3.398-2.809-5.977-5.968-5.977M60.99 1.176c0-.564-.458-1.022-1.023-1.022h-.698a6.32 6.32 0 0 0-6.32 6.319v7.284c0 .645.499 1.142 1.143 1.142.645 0 1.114-.497 1.114-1.142l-.001-3.357V6.257a4.06 4.06 0 0 1 4.06-4.06h.005V2.2h.697c.565 0 1.023-.458 1.023-1.023" fill="#ADB1B4"/><path d="M1.603 14.9A1.603 1.603 0 0 1 0 13.295V1.672a1.603 1.603 0 0 1 3.207 0v11.624c0 .885-.718 1.603-1.604 1.603m19.24-.138a1.603 1.603 0 0 1-1.603-1.603V1.682a1.603 1.603 0 0 1 3.206 0v11.476c0 .885-.718 1.603-1.603 1.603m-9.62 5.219a1.603 1.603 0 0 1-1.603-1.602V6.9a1.603 1.603 0 0 1 3.206 0v11.477c0 .885-.718 1.603-1.603 1.603" fill="#D3385D"/><path d="M47.88 7.526c0 3.452-2.348 5.495-5.21 5.495-2.702 0-5.26-2.137-5.346-5.356-.001-.058-.008-.115-.008-.173 0-3.058 2.403-5.537 5.369-5.543 2.798.008 5.194 2.16 5.194 5.522v.055zM42.682.056V.055c-4.033 0-7.307 3.31-7.401 7.429h-.01v10.618c0 .608.47 1.077 1.078 1.077.607 0 1.049-.47 1.049-1.077V11.89c1.104 1.602 2.817 3.038 5.467 3.038 3.452 0 6.82-2.762 6.82-7.428v-.055c0-4.695-3.43-7.389-7.003-7.388z" fill="#ADB1B4"/></g></svg>