<svg width="313" height="210" viewBox="0 0 313 210" xmlns="http://www.w3.org/2000/svg" xmlns:xlink="http://www.w3.org/1999/xlink"><title>71A97E3A-0F15-41FA-A2D4-F3BE16FB6824</title><defs><path d="M137.908 116.757c-2.712 3.88-32.503 6.936-68.853 6.936-36.35 0-66.141-3.056-68.854-6.936H0V0h138.11v116.757h-.202z" id="f"/><path d="M4.952 1.658L23.11 0l17.332 1.658 5.778 77.936H34.665c-1.926 0-3.852-5.803-5.778-5.803H17.332c-1.925 0-3.851 5.803-5.777 5.803H0L4.952 1.658z" id="a"/><mask id="h" x="-.829" y="-.829" width="47.878" height="81.253"><path fill="#fff" d="M-.829-.829h47.878v81.253H-.829z"/><use xlink:href="#a"/></mask><rect id="b" x="11.555" y="6.633" width="23.11" height="8.291" rx="4.146"/><filter x="-50%" y="-50%" width="200%" height="200%" filterUnits="objectBoundingBox" id="j"><feOffset dx="3" dy="3" in="SourceAlpha" result="shadowOffsetInner1"/><feComposite in="shadowOffsetInner1" in2="SourceAlpha" operator="arithmetic" k2="-1" k3="1" result="shadowInnerInner1"/><feColorMatrix values="0 0 0 0 0.494685374 0 0 0 0 0.494685374 0 0 0 0 0.494685374 0 0 0 0.5 0" in="shadowInnerInner1"/></filter><mask id="k" x="0" y="0" width="23.11" height="8.291" fill="#fff"><use xlink:href="#b"/></mask><path d="M47.082 67.797a4.331 4.331 0 0 1 4.324-4.333 4.33 4.33 0 0 1 4.324 4.333v122.595s-2.883.962-3.844.962c-1.922 0-4.804-.962-4.804-.962V67.797z" id="c"/><mask id="l" x="0" y="0" width="8.648" height="127.89" fill="#fff"><use xlink:href="#c"/></mask><path d="M37.21 1.59c1.472-.6 3.853-.601 5.331 0l22.733 9.26c1.473.599 3.165 2.27 3.78 3.73l9.396 22.303c.616 1.462.615 3.832 0 5.292l-9.395 22.303c-.616 1.46-2.303 3.13-3.78 3.731L42.54 77.468c-1.472.6-3.854.602-5.331 0l-22.734-9.259c-1.472-.6-3.165-2.271-3.78-3.731L1.301 42.175c-.616-1.461-.615-3.832 0-5.292l9.395-22.302c.616-1.462 2.303-3.13 3.78-3.732L37.21 1.59z" id="d"/><mask id="m" x="0" y="0" width="79.379" height="78.048" fill="#fff"><use xlink:href="#d"/></mask><path d="M37.203 11.3c1.477-.602 3.864-.605 5.349 0l15.939 6.508c1.477.603 3.174 2.28 3.791 3.75l6.585 15.668c.617 1.467.617 3.845 0 5.315l-6.585 15.667c-.616 1.468-2.307 3.144-3.791 3.75l-15.94 6.507c-1.476.603-3.864.606-5.348 0l-15.94-6.507c-1.477-.603-3.173-2.28-3.79-3.75l-6.585-15.667c-.617-1.468-.618-3.846 0-5.315l6.584-15.668c.617-1.468 2.307-3.144 3.792-3.75l15.939-6.507z" id="e"/><mask id="n" x="0" y="0" width="58.905" height="58.071" fill="#fff"><use xlink:href="#e"/></mask></defs><g transform="translate(-2.78 -15)" fill="none" fill-rule="evenodd"><path d="M41.917 180.536c13.832 6.389-19.496 4.531-9.008 9.376 11.513 5.317 116.57 22.136 131.656 25.8 5.986 1.453 0 0 0 0-2.796 8.32 8.168 11.47 24.49 6.996 0 0 100.763-27.12 117.217-34.72 9.303-4.296-63.126-1.412-35.286-7.196 27.84-5.785 44.174-17.324 44.174-17.324H2.883s18.547 7.606 39.034 17.068z" fill="#F2F0F0"/><ellipse fill="#4A4A4A" cx="51.406" cy="189.346" rx="6.246" ry="1.838"/><g transform="translate(36.512 22.116)"><path fill="#F8F8F8" d="M127.794 0h84.555v141.352h-84.555z"/><path fill="#FFF" d="M189.288 11.539h3.843v72.118h-3.843zm10.57 0h3.843v72.118h-3.843zm-63.417 0h5.765v5.769h-5.765zm9.609 0h5.765v5.769h-5.765zm9.608 0h5.765v5.769h-5.765zm9.609 0h5.765v5.769h-5.765zm9.608 0h5.765v5.769h-5.765zm-38.434 28.847h5.765v5.769h-5.765zm9.609 0h5.765v5.769h-5.765zm9.608 0h5.765v5.769h-5.765zm9.609 0h5.765v5.769h-5.765zm9.608 0h5.765v5.769h-5.765zm-38.434 28.848h5.765v5.769h-5.765zm9.609 0h5.765v5.769h-5.765zm9.608 0h5.765v5.769h-5.765zm9.609 0h5.765v5.769h-5.765zm9.608 0h5.765v5.769h-5.765zm-38.434 28.847h5.765v5.769h-5.765zm9.609 0h5.765v5.769h-5.765zm9.608 0h5.765v5.769h-5.765zm9.609 0h5.765v5.769h-5.765zm9.608 0h5.765v5.769h-5.765z"/><path fill="#F8F8F8" d="M217.153 90.388h24.982v50.964h-24.982z"/><path fill="#F8F8F8" d="M217.153 71.157h18.256v50.964h-18.256z"/><path fill="#FFF" d="M226.762 94.235h2.883v2.885h-2.883zm0 9.615h2.883v2.885h-2.883zm0 9.616h2.883v2.885h-2.883zm0 10.578h2.883v2.885h-2.883zm0 9.615h2.883v2.885h-2.883zm9.608 0h2.883v2.885h-2.883zm0-9.615h2.883v2.885h-2.883zm0-9.616h2.883v2.885h-2.883zm0-9.616h2.883v2.885h-2.883z"/><path fill="#F8F8F8" d="M121.068 90.388H96.086v50.964h24.982z"/><rect fill="#FFF" x="98.007" y="124.044" width="18.256" height="2.885" rx="1.442"/><rect fill="#FFF" x="98.007" y="114.428" width="18.256" height="2.885" rx="1.442"/><rect fill="#FFF" x="98.007" y="104.812" width="18.256" height="2.885" rx="1.442"/><path d="M5.765 41.348h.968c6.895 0 12.806 5.59 13.203 12.463l5.046 87.541H0L5.765 41.348z" fill="#F8F8F8"/><ellipse fill="#FFF" cx="12.972" cy="104.331" rx="3.363" ry="3.366"/><ellipse fill="#FFF" cx="12.972" cy="113.947" rx="3.363" ry="3.366"/><ellipse fill="#FFF" cx="12.972" cy="123.563" rx="3.363" ry="3.366"/><rect fill="#FFF" x="9.609" y="57.695" width="9.609" height="1.923" rx=".962"/><rect fill="#FFF" x="9.609" y="63.464" width="9.609" height="1.923" rx=".962"/><rect fill="#FFF" x="9.609" y="69.234" width="9.609" height="1.923" rx=".962"/><rect fill="#FFF" x="9.609" y="75.965" width="9.609" height="1.923" rx=".962"/><rect fill="#FFF" x="9.609" y="81.734" width="9.609" height="1.923" rx=".962"/><path fill="#F8F8F8" d="M245.018 69.234h8.648v72.118h-8.648zM41.503 24.04h-5.951v116.35h55.73V24.04H85.33C83.917 13.187 74.645 4.807 63.416 4.807c-11.228 0-20.5 8.38-21.913 19.231z"/><path fill="#FFF" d="M41.317 40.386h8.648v8.654h-8.648zm0 28.848h8.648v8.654h-8.648zm0 28.847h8.648v8.654h-8.648zm36.512 0h8.648v8.654h-8.648zm0-12.501h8.648v8.654h-8.648zm0-38.463h8.648v8.654h-8.648zm0-11.539h8.648v8.654h-8.648z"/></g><g transform="translate(71.103 63.464)"><mask id="g" fill="#fff"><use xlink:href="#f"/></mask><ellipse fill="#9B9B9B" mask="url(#g)" cx="69.055" cy="116.179" rx="69.055" ry="7.514"/></g><g transform="translate(213.211 109.837)"><mask id="i" fill="#fff"><use xlink:href="#a"/></mask><use fill="#F5D297" xlink:href="#a"/><use stroke="#F6A723" mask="url(#h)" stroke-width="1.659" xlink:href="#a"/><path d="M4.952 1.658L23.11 0l17.332 1.658 5.778 77.936H34.665c-1.926 0-3.852-5.803-5.778-5.803H17.332c-1.925 0-3.851 5.803-5.777 5.803H0L4.952 1.658z" fill="#F5D297" mask="url(#i)"/><path fill-opacity=".1" fill="#000" mask="url(#i)" d="M23.11-2.487h28.062V83.74H23.11z"/><g mask="url(#i)"><path fill="#F6A723" d="M2.476 19.899h42.093v7.462H2.476z"/><path fill="#4A4A4A" d="M6.603 19.899h4.127L9.079 27.36H4.952zm8.253 0h4.127l-1.65 7.462h-4.127zm8.254 0h4.127l-1.651 7.462h-4.127zm8.253 0h4.127l-1.65 7.462h-4.127zm8.254 0h4.127l-1.651 7.462h-4.127z"/></g><g mask="url(#i)"><path fill="#F6A723" d="M-.826 61.354h49.521v7.462H-.825z"/><path fill="#4A4A4A" d="M8.253 61.354h4.127l-1.65 7.462H6.603zm-8.253 0h4.127l-1.651 7.462h-4.127zm16.507 0h4.127l-1.651 7.462h-4.127zm8.253 0h4.127l-1.65 7.462H23.11zm8.254 0h4.127l-1.651 7.462h-4.127zm8.253 0h4.127l-1.65 7.462h-4.127z"/></g></g><g transform="translate(213.211 109.837)"><use fill="#FFF" xlink:href="#b"/><use fill="#000" filter="url(#j)" xlink:href="#b"/><use stroke="#F6A723" mask="url(#k)" stroke-width="1.659" xlink:href="#b"/></g><use stroke="#9B9B9B" mask="url(#l)" fill="#BEBEBE" xlink:href="#c"/><rect fill="#EAEAEA" opacity=".5" x="50.925" y="79.811" width="1.922" height="107.697" rx=".961"/><g transform="rotate(-22 78.276 13.544)"><use stroke="#565257" mask="url(#m)" fill="#EC5E55" xlink:href="#d"/><use stroke="#FFF" mask="url(#n)" xlink:href="#e"/></g><ellipse stroke="#4A4A4A" stroke-width=".5" fill="#FFF" cx="52.367" cy="74.522" rx="1.441" ry="1.442"/><ellipse stroke="#4A4A4A" stroke-width=".5" fill="#FFF" cx="52.367" cy="31.251" rx="1.441" ry="1.442"/><text font-family="AvenirNextLTPro-Bold, Avenir Next LT Pro" font-size="9.6" font-weight="bold" letter-spacing=".686" fill="#FFF"><tspan x="33.113" y="58.079">OOOPS</tspan></text></g></svg>