<?xml version="1.0" standalone="no"?>
<!DOCTYPE svg PUBLIC "-//W3C//DTD SVG 1.1//EN" "http://www.w3.org/Graphics/SVG/1.1/DTD/svg11.dtd" >
<svg xmlns="http://www.w3.org/2000/svg">
<metadata>
Created by FontPrep 20130207 at Thu Mar 24 13:38:35 2016
 By Ryan Riatno
Copyright A~A^(c) 2004 - 2007 Linotype GmbH, www.linotype.com. All rights reserved.
</metadata>
<defs>
<font id="89f9ea451a27972d1432fe4412ea7899" horiz-adv-x='1024' >
  <font-face 
    font-family="AvenirNextLTPro-Thin"
    font-weight="100"
    font-stretch="normal"
    units-per-em="2048"
    panose-1="0 0 0 0 0 0 0 0 0 0"
    ascent="1638"
    descent="-410"
    x-height="942"
    cap-height="1450"
    bbox="-737 -752 2707 2441"
    underline-thickness="102"
    underline-position="-102"
    unicode-range="U+000D-FE48"
  />
<missing-glyph horiz-adv-x="1048" 
d="M569 240h-114v137h114v-137zM555 479h-94l-4 35q1 114 31 174t90 113q61 59 81 95q21 36 21 92t-46 107q-46 50 -110 50q-145 0 -168 -195l-102 17q12 141 86 211t188 70t186 -74q71 -74 70 -195q0 -70 -26 -123t-103 -122q-76 -69 -88 -109t-12 -146zM102 102h844v1264
h-844v-1264zM0 1470h1049v-1470h-1049v1470z" />
    <glyph glyph-name=".notdef" horiz-adv-x="1048" 
d="M569 240h-114v137h114v-137zM555 479h-94l-4 35q1 114 31 174t90 113q61 59 81 95q21 36 21 92t-46 107q-46 50 -110 50q-145 0 -168 -195l-102 17q12 141 86 211t188 70t186 -74q71 -74 70 -195q0 -70 -26 -123t-103 -122q-76 -69 -88 -109t-12 -146zM102 102h844v1264
h-844v-1264zM0 1470h1049v-1470h-1049v1470z" />
    <glyph glyph-name=".null" horiz-adv-x="1024" 
 />
    <glyph glyph-name=".null" horiz-adv-x="1024" 
 />
    <glyph glyph-name="nonmarkingreturn" horiz-adv-x="681" 
 />
    <glyph glyph-name="CR" unicode="&#xd;" horiz-adv-x="0" 
 />
    <glyph glyph-name="space" unicode=" " horiz-adv-x="512" 
 />
    <glyph glyph-name="exclam" unicode="!" horiz-adv-x="565" 
d="M283 92q18 0 32 -15q15 -15 15 -38t-14 -37t-33 -14q-18 0 -33 14q-14 14 -14 38t14 38q15 14 33 14zM305 1450v-1051h-45v1051h45z" />
    <glyph glyph-name="quotedbl" unicode="&#x22;" horiz-adv-x="827" 
d="M289 983h-45v467h45v-467zM584 983h-45v467h45v-467z" />
    <glyph glyph-name="numbersign" unicode="#" horiz-adv-x="1126" 
d="M1008 928h-234l-53 -402h229v-34h-233l-62 -492h-39l62 492h-352l-62 -492h-39l62 492h-228v34h232l55 402h-227v35h231l62 487h39l-64 -487h352l64 487h39l-64 -487h230v-35zM735 928h-350l-53 -402h350z" />
    <glyph glyph-name="dollar" unicode="$" horiz-adv-x="1146" 
d="M567 -172h-45v145q-258 10 -409 183l34 30q150 -164 375 -174v703q-193 61 -288 145t-95 243q1 159 107 257t276 115v147h45v-145q264 0 391 -160l-34 -31q-119 152 -357 152v-693q101 -33 165 -61q174 -75 223 -180q30 -63 30 -150q0 -172 -117 -272t-301 -109v-145z
M567 702v-690q158 4 266 98q107 94 107 245q0 152 -118 232q-60 40 -114 63t-141 52zM522 760v674q-139 -12 -238 -100q-100 -88 -100 -231q0 -142 90 -218t248 -125z" />
    <glyph glyph-name="percent" unicode="%" horiz-adv-x="1679" 
d="M428 1464q130 0 226 -95t96 -231t-94 -230t-228 -93q-133 0 -226 93q-93 94 -93 230t94 231t225 95zM705 1138q0 120 -81 204t-196 83q-115 0 -195 -84q-79 -83 -79 -203t80 -202t195 -82q116 0 196 82t80 202zM1571 306q0 -136 -94 -229q-93 -93 -227 -93t-227 93
t-93 229t94 232t225 95q131 0 227 -95q95 -96 95 -232zM1526 306q0 120 -81 204t-196 84t-195 -84t-79 -204q0 -120 80 -202q79 -82 195 -82t196 82t80 202zM1300 1485l-901 -1540l-32 22l901 1540z" />
    <glyph glyph-name="ampersand" unicode="&#x26;" horiz-adv-x="1441" 
d="M563 -37q-176 0 -293 110t-116 294q0 151 87 245t267 193q-111 123 -152 203t-41 168q1 137 91 224t223 87t220 -84t87 -210t-86 -211t-275 -187l441 -473l235 434h52l-254 -461l274 -295h-59l-238 254q-188 -291 -463 -291zM891 1190q0 116 -76 188q-75 72 -187 72
t-190 -78t-78 -181t44 -180t145 -190q174 92 258 172t84 197zM199 367q0 -164 108 -265q109 -100 251 -100t253 76q110 76 184 209l-458 487q-338 -164 -338 -407z" />
    <glyph glyph-name="quotesingle" unicode="'" horiz-adv-x="532" 
d="M289 983h-45v467h45v-467z" />
    <glyph glyph-name="parenleft" unicode="(" horiz-adv-x="614" 
d="M152 590q0 244 70 484t194 425l41 -20q-119 -164 -190 -412t-71 -477t72 -477q70 -248 189 -412l-41 -20q-124 185 -194 425t-70 484z" />
    <glyph glyph-name="parenright" unicode=")" horiz-adv-x="614" 
d="M459 590q0 -244 -71 -484t-193 -425l-41 20q119 164 189 412q71 248 71 477t-71 477t-189 412l41 20q123 -185 193 -425t71 -484z" />
    <glyph glyph-name="asterisk" unicode="*" horiz-adv-x="909" 
d="M436 1450h37v-350l334 106l12 -35l-338 -102l209 -291l-28 -20l-207 293l-207 -293l-29 20l209 291l-338 102l12 35l334 -106v350z" />
    <glyph glyph-name="plus" unicode="+" horiz-adv-x="1363" 
d="M707 604v-471h-43v471h-459v39h459v471h43v-471h452v-39h-452z" />
    <glyph glyph-name="comma" unicode="," 
d="M311 184l-131 -467h-35l117 467h49z" />
    <glyph glyph-name="hyphen" unicode="-" horiz-adv-x="614" 
d="M492 500h-369v41h369v-41z" />
    <glyph glyph-name="period" unicode="." 
d="M246 -12q-18 0 -33 14q-14 14 -14 38t14 38q15 14 33 14t32 -14t15 -37q-1 -23 -15 -38t-32 -15z" />
    <glyph glyph-name="slash" unicode="/" horiz-adv-x="757" 
d="M715 1479l-629 -1510l-39 15l629 1509z" />
    <glyph glyph-name="zero" unicode="0" horiz-adv-x="1146" 
d="M573 -25q-106 -1 -188 47t-131 120q-131 194 -131 583q0 229 41 370q41 140 90 213q49 74 131 120t188 46q107 0 189 -46q82 -48 131 -120q131 -194 131 -583q0 -229 -41 -370q-41 -140 -90 -213t-131 -120t-189 -47zM573 1434q-104 0 -183 -54t-120 -132
q-42 -77 -66 -182t-30 -182t-6 -159t6 -159t31 -182t65 -182t120 -131q79 -55 183 -55q103 0 183 54t121 132q41 77 71 207t31 264q0 134 -6 211t-31 182t-65 182q-41 78 -121 132t-183 54z" />
    <glyph glyph-name="one" unicode="1" horiz-adv-x="1146" 
d="M639 0h-45v1397l-275 -234l-26 35l301 252h45v-1450z" />
    <glyph glyph-name="two" unicode="2" horiz-adv-x="1146" 
d="M942 0h-813v53l506 594q129 152 189 255t61 206q0 150 -92 239q-93 89 -225 89t-221 -64t-126 -184l-43 14q37 129 139 201t252 72q150 1 255 -101q106 -102 106 -240t-62 -242q-62 -105 -217 -290l-475 -559h766v-43z" />
    <glyph glyph-name="three" unicode="3" horiz-adv-x="1146" 
d="M952 364q0 -156 -105 -272q-105 -117 -310 -117q-137 1 -245 63t-163 169l43 18q45 -94 143 -149t222 -60q174 -6 272 100t98 267q0 90 -40 162q-40 73 -102 113q-131 86 -273 83h-46v41h46q144 0 254 86t110 240t-91 240q-91 88 -228 88q-92 0 -173 -39t-128 -111
l-37 25q117 164 338 164q158 -1 260 -97t102 -242t-77 -247q-77 -100 -228 -123v-4q176 -30 267 -136t91 -262z" />
    <glyph glyph-name="four" unicode="4" horiz-adv-x="1146" 
d="M1053 377h-242v-377h-45v377h-678v55l653 1018h70v-1032h242v-41zM766 418v983h-6l-631 -983h637z" />
    <glyph glyph-name="five" unicode="5" horiz-adv-x="1146" 
d="M975 432q0 -209 -131 -333t-309 -124q-256 0 -394 193l37 29q121 -180 357 -181q155 0 275 113t120 303t-113 308t-307 118q-131 0 -268 -74l10 666h661v-41h-616l-12 -563q100 51 243 51q205 0 326 -128t121 -337z" />
    <glyph glyph-name="six" unicode="6" horiz-adv-x="1146" 
d="M143 398q0 180 123 393l383 659h53l-436 -737l4 -2q116 143 306 143t309 -126t119 -316t-121 -314t-311 -123q-190 0 -309 122q-120 121 -120 301zM585 815q-163 -1 -280 -117t-117 -287t109 -284t277 -113t276 113t108 286t-105 287t-268 115z" />
    <glyph glyph-name="seven" unicode="7" horiz-adv-x="1146" 
d="M940 1450v-55l-604 -1395h-49l614 1409h-745v41h784z" />
    <glyph glyph-name="eight" unicode="8" horiz-adv-x="1146" 
d="M1001 385q1 -186 -119 -298t-308 -112t-309 112q-120 112 -120 298q0 135 78 241t228 150v4q-123 46 -187 140t-63 200q0 158 105 256t267 98q161 0 267 -98t106 -256q0 -106 -63 -200t-187 -140v-4q154 -47 230 -152q75 -106 75 -239zM903 1124q0 136 -94 224
q-93 88 -235 88t-236 -88t-94 -224t95 -232q95 -97 234 -97t235 97q95 97 95 232zM190 387q0 -160 106 -266q106 -107 277 -107t277 106t106 267q0 160 -110 266q-111 107 -273 107q-163 0 -273 -106t-110 -267z" />
    <glyph glyph-name="nine" unicode="9" horiz-adv-x="1146" 
d="M1004 1042q0 -154 -123 -370l-385 -672h-54l439 750l-4 2q-117 -144 -307 -144t-309 123q-118 123 -118 312t121 311t310 121q190 0 310 -120t120 -313zM958 1042q0 170 -108 282q-109 112 -277 112q-169 0 -277 -112t-108 -283t106 -283t268 -111q164 1 280 113t116 282
z" />
    <glyph glyph-name="colon" unicode=":" horiz-adv-x="573" 
d="M287 838q-18 0 -33 14q-14 14 -14 38t14 38t32 14t33 -14t15 -37t-14 -38t-33 -15zM287 -12q-18 0 -33 14q-14 14 -14 38t14 38t32 14t33 -14t15 -37t-14 -38t-33 -15z" />
    <glyph glyph-name="semicolon" unicode=";" horiz-adv-x="573" 
d="M287 838q-18 0 -33 14q-14 14 -14 38t14 38t32 14t33 -14t15 -37t-14 -38t-33 -15zM332 184l-131 -467h-35l117 467h49z" />
    <glyph glyph-name="less" unicode="&#x3c;" horiz-adv-x="1363" 
d="M1159 137l-954 459v49l954 459v-41l-930 -442l930 -443v-41z" />
    <glyph glyph-name="equal" unicode="=" horiz-adv-x="1363" 
d="M1159 778h-954v39h954v-39zM1159 428h-954v39h954v-39z" />
    <glyph glyph-name="greater" unicode="&#x3e;" horiz-adv-x="1363" 
d="M205 137v41l930 443l-930 442v41l954 -459v-49z" />
    <glyph glyph-name="question" unicode="?" horiz-adv-x="966" 
d="M494 92q18 0 32 -15t14 -38t-14 -37t-32 -14t-33 14t-15 38t15 38t33 14zM512 500v-90h-45v108q0 158 141 281l70 61q74 66 108 125q35 59 35 154q0 143 -93 224t-233 81q-139 0 -229 -81t-114 -214l-43 8q29 158 132 244t259 86t261 -92t105 -254q0 -117 -46 -188
t-138 -144q-102 -85 -136 -147t-34 -162z" />
    <glyph glyph-name="at" unicode="@" horiz-adv-x="1638" 
d="M1556 850q0 -230 -106 -376t-293 -146q-84 0 -131 45t-35 137h-4q-39 -74 -111 -128t-176 -54t-163 76t-60 184q0 196 117 370t291 175q92 1 147 -49t66 -138h8l41 150h43l-139 -486q-20 -78 -21 -123q0 -119 127 -118q176 0 266 140t90 341q0 258 -189 429t-482 171
t-497 -216t-204 -514t203 -509t518 -211q170 0 322 75t256 197l30 -26q-244 -287 -595 -287t-565 222q-214 221 -214 543t219 544t531 223q312 0 512 -182q198 -183 198 -459zM1071 900q0 74 -47 133q-48 59 -148 59t-186 -83t-127 -198t-41 -219t50 -164t140 -59
q90 0 159 59q117 98 177 314q24 84 23 158z" />
    <glyph glyph-name="A" unicode="A" horiz-adv-x="1363" 
d="M1327 0h-49l-172 416h-842l-178 -416h-49l629 1450h57zM1092 455l-400 966l-411 -966h811z" />
    <glyph glyph-name="B" unicode="B" horiz-adv-x="1253" 
d="M1128 378q0 -102 -43 -182t-115 -119q-138 -77 -308 -77h-445v1450h395q185 0 307 -71q142 -81 142 -271q0 -143 -84 -226t-211 -112v-4q118 -12 240 -103q122 -90 122 -285zM1016 1106q0 160 -116 232t-300 71h-338v-625h348q164 0 285 81t121 241zM1083 381
q0 125 -68 210q-125 154 -351 152h-402v-702h379q201 0 322 84q120 84 120 256z" />
    <glyph glyph-name="C" unicode="C" horiz-adv-x="1482" 
d="M887 -41q-326 0 -533 216t-207 550t207 550q206 216 520 216t494 -186l-29 -33q-81 86 -205 132t-247 46q-307 0 -501 -209t-194 -517t194 -516q192 -208 501 -208q141 0 271 54t214 155l33 -31q-90 -106 -228 -162t-290 -57z" />
    <glyph glyph-name="D" unicode="D" horiz-adv-x="1576" 
d="M629 1450q357 0 579 -182t222 -542q0 -358 -222 -542t-579 -184h-412v1450h412zM618 1409h-354v-1368h354q342 0 553 171t211 513q0 233 -103 390q-193 294 -661 294z" />
    <glyph glyph-name="E" unicode="E" horiz-adv-x="1208" 
d="M1094 0h-877v1450h844v-41h-801v-637h754v-41h-754v-690h834v-41z" />
    <glyph glyph-name="F" unicode="F" horiz-adv-x="1146" 
d="M1044 1409h-782v-637h727v-41h-727v-731h-45v1450h827v-41z" />
    <glyph glyph-name="G" unicode="G" horiz-adv-x="1628" 
d="M1432 717v-633q-225 -125 -521 -125q-340 0 -552 219t-212 551t211 547t545 215q287 0 488 -168l-33 -33q-78 76 -205 118t-252 42q-315 0 -512 -208t-197 -516t198 -517q196 -209 525 -209q252 0 474 109v569h-377v39h420z" />
    <glyph glyph-name="H" unicode="H" horiz-adv-x="1499" 
d="M1282 0h-45v729h-975v-729h-45v1450h45v-680h975v680h45v-1450z" />
    <glyph glyph-name="I" unicode="I" horiz-adv-x="479" 
d="M262 0h-45v1450h45v-1450z" />
    <glyph glyph-name="J" unicode="J" horiz-adv-x="983" 
d="M774 1450v-1055q0 -205 -94 -319t-277 -113q-123 0 -215 65t-129 162l39 19q43 -93 123 -149t182 -56q168 0 247 108t79 289v1049h45z" />
    <glyph glyph-name="K" unicode="K" horiz-adv-x="1157" 
d="M262 784h2l729 666h66l-737 -666l774 -784h-64l-768 780h-2v-780h-45v1450h45v-666z" />
    <glyph glyph-name="L" unicode="L" horiz-adv-x="1019" 
d="M983 0h-766v1450h45v-1409h721v-41z" />
    <glyph glyph-name="M" unicode="M" horiz-adv-x="1855" 
d="M1638 0h-45v1399h-8l-641 -1399h-37l-639 1399h-6v-1399h-45v1450h80l631 -1384l631 1384h79v-1450z" />
    <glyph glyph-name="N" unicode="N" horiz-adv-x="1591" 
d="M1374 0h-65l-1041 1393h-6v-1393h-45v1450h64l1042 -1391h6v1391h45v-1450z" />
    <glyph glyph-name="O" unicode="O" horiz-adv-x="1785" 
d="M1638 725q0 -334 -212 -550t-534 -216t-533 216q-212 216 -212 550t211 550t535 216q325 0 535 -216t210 -550zM1593 725q0 307 -197 516q-198 209 -503 209t-503 -209t-198 -516t196 -516t505 -209t505 209q195 209 195 516z" />
    <glyph glyph-name="P" unicode="P" horiz-adv-x="1171" 
d="M1059 1090q0 -178 -121 -278t-301 -99h-375v-713h-45v1450h393q115 0 210 -30t167 -114t72 -216zM1014 1090q0 114 -60 190t-144 104q-83 28 -181 27h-367v-659h377q155 0 265 85t110 253z" />
    <glyph glyph-name="Q" unicode="Q" horiz-adv-x="1808" 
d="M1638 739q0 -245 -148 -447t-364 -247v-4h590v-41h-827q-311 0 -527 205q-215 205 -215 533t211 541q211 212 534 212q322 0 534 -214t212 -538zM1593 739q0 295 -198 503q-199 208 -503 208t-502 -205t-198 -502t200 -499t503 -203q205 0 368 100t246 258q84 158 84 340
z" />
    <glyph glyph-name="R" unicode="R" horiz-adv-x="1216" 
d="M262 731v-731h-45v1450h401q455 0 455 -358q0 -264 -275 -339q-71 -19 -147 -20l441 -733h-52l-438 731h-340zM1028 1092q0 319 -434 319h-332v-641h354q201 0 307 84q105 84 105 238z" />
    <glyph glyph-name="S" unicode="S" horiz-adv-x="1167" 
d="M893 64q-127 -104 -313 -105q-270 0 -433 178l35 31q156 -168 396 -168q168 0 282 94t115 263q0 169 -174 261q-93 51 -261 103q-167 52 -267 136q-99 85 -99 257t129 274t318 103q242 0 372 -162l-35 -31q-119 152 -340 152q-160 0 -280 -88t-119 -249q0 -161 116 -245
q95 -67 245 -114q90 -30 142 -50t117 -56q181 -100 181 -290t-127 -294z" />
    <glyph glyph-name="T" unicode="T" horiz-adv-x="1105" 
d="M1069 1409h-494v-1409h-45v1409h-493v41h1032v-41z" />
    <glyph glyph-name="U" unicode="U" horiz-adv-x="1499" 
d="M1303 1450v-901q-1 -268 -133 -429t-420 -161t-421 161q-132 161 -132 429v901h45v-893q0 -167 43 -270t96 -158t147 -92t220 -37t220 36q93 36 147 91q142 145 142 430v893h46z" />
    <glyph glyph-name="V" unicode="V" horiz-adv-x="1241" 
d="M1204 1450l-553 -1450h-69l-545 1450h49l528 -1409h4l537 1409h49z" />
    <glyph glyph-name="W" unicode="W" horiz-adv-x="1957" 
d="M1901 1450l-435 -1450h-69l-420 1407h-4l-412 -1407h-69l-435 1450h47l418 -1409h6l412 1409h70l420 -1409h6l417 1409h48z" />
    <glyph glyph-name="X" unicode="X" horiz-adv-x="1208" 
d="M1143 0h-56l-483 725l-485 -725h-53l512 760l-463 690h53l436 -655l436 655h52l-461 -690z" />
    <glyph glyph-name="Y" unicode="Y" horiz-adv-x="1101" 
d="M573 0h-45v635l-497 815h53l469 -770l467 770h51l-498 -815v-635z" />
    <glyph glyph-name="Z" unicode="Z" horiz-adv-x="1216" 
d="M1130 0h-1019v55l954 1354h-928v41h969v-59l-952 -1350h976v-41z" />
    <glyph glyph-name="bracketleft" unicode="[" horiz-adv-x="614" 
d="M451 -319h-287v1818h287v-39h-242v-1741h242v-38z" />
    <glyph glyph-name="backslash" unicode="\" horiz-adv-x="757" 
d="M47 1479l39 14l629 -1509l-39 -15z" />
    <glyph glyph-name="bracketright" unicode="]" horiz-adv-x="614" 
d="M164 -319v38h242v1741h-242v39h287v-1818h-287z" />
    <glyph glyph-name="asciicircum" unicode="^" horiz-adv-x="1363" 
d="M199 496l458 954h50l458 -954h-41l-442 929l-442 -929h-41z" />
    <glyph glyph-name="underscore" unicode="_" horiz-adv-x="1024" 
d="M1024 -233h-1024v40h1024v-40z" />
    <glyph glyph-name="grave" unicode="`" 
d="M41 1450h55l211 -295h-39z" />
    <glyph glyph-name="a" unicode="a" horiz-adv-x="1048" 
d="M811 629q-1 303 -313 303q-150 0 -277 -113l-24 35q135 117 306 117q353 0 353 -344v-414q0 -111 16 -213h-43q-16 86 -16 225h-6q-39 -123 -137 -189t-222 -65q-124 0 -219 70q-94 70 -94 201q0 96 50 162t134 96q144 53 328 53h164v76zM811 424v90h-145
q-485 0 -486 -272q0 -117 83 -174q83 -58 185 -58q274 -1 346 271q17 67 17 143z" />
    <glyph glyph-name="b" unicode="b" horiz-adv-x="1282" 
d="M254 686h6q59 137 172 211t252 74q209 1 340 -141t131 -359t-133 -358t-338 -142q-139 0 -256 75t-168 208h-6v-254h-45v1548h45v-862zM1110 468q0 192 -118 328t-305 136t-311 -135t-124 -325t124 -326t311 -136t305 133t118 325z" />
    <glyph glyph-name="c" unicode="c" horiz-adv-x="983" 
d="M590 932q-178 0 -298 -136t-120 -328t120 -325t304 -133t293 107l31 -29q-117 -117 -320 -117q-203 1 -338 141t-135 357t136 359q137 142 335 142t317 -124l-34 -31q-113 117 -291 117z" />
    <glyph glyph-name="d" unicode="d" horiz-adv-x="1282" 
d="M1028 686v862h45v-1548h-45v254h-6q-59 -137 -172 -210t-252 -73q-205 -1 -338 141t-133 357t133 358t338 144q139 0 252 -74t172 -211h6zM1030 470q0 190 -124 326t-311 136t-305 -136t-118 -328t118 -325t305 -133t311 135t124 325z" />
    <glyph glyph-name="e" unicode="e" horiz-adv-x="1138" 
d="M1012 481h-840q0 -188 111 -328q111 -141 321 -141t338 172l33 -28q-141 -184 -365 -184t-353 142q-130 144 -130 362t129 356q128 138 328 139q200 0 314 -134t114 -317v-39zM174 520h795q-4 184 -113 298t-283 114q-100 0 -181 -44q-136 -74 -194 -243
q-24 -68 -24 -125z" />
    <glyph glyph-name="f" unicode="f" horiz-adv-x="577" 
d="M494 1536q-104 0 -152 -75t-49 -179v-340h256v-39h-256v-903h-45v903h-199v39h197v338q0 158 72 226t174 67q53 0 94 -12l-8 -35q-45 10 -84 10z" />
    <glyph glyph-name="g" unicode="g" horiz-adv-x="1282" 
d="M1028 57v197h-6q-51 -133 -168 -208t-256 -75q-205 -1 -338 141t-133 357t133 358t338 144q139 0 252 -74t172 -211h6v256h45v-889q0 -163 -41 -283q-40 -120 -148 -201t-276 -81q-262 0 -415 176l30 31q150 -168 387 -168t332 166q86 149 86 364zM1030 470
q0 192 -124 326q-124 136 -311 136t-305 -136t-118 -328t118 -326t305 -134t311 135t124 327z" />
    <glyph glyph-name="h" unicode="h" horiz-adv-x="1165" 
d="M254 694h4q41 127 143 202t228 75q180 0 260 -116t80 -286v-569h-45v565q0 131 -58 240q-31 57 -92 92t-145 35q-160 0 -268 -126t-107 -335v-471h-45v1548h45v-854z" />
    <glyph glyph-name="i" unicode="i" horiz-adv-x="462" 
d="M231 1296q-18 0 -32 14q-15 14 -15 39q0 23 14 37q34 31 66 0q14 -14 14 -36t-14 -38q-15 -16 -33 -16zM254 0h-45v942h45v-942z" />
    <glyph glyph-name="j" unicode="j" horiz-adv-x="462" 
d="M254 942v-1141q0 -155 -48 -225t-181 -70q-43 0 -60 7l8 38q29 -6 71 -6q42 1 82 21q83 43 83 231v1145h45zM231 1296q-18 0 -32 14q-15 14 -15 39q0 23 14 37q34 31 66 0q14 -14 14 -36t-14 -38q-15 -16 -33 -16z" />
    <glyph glyph-name="k" unicode="k" horiz-adv-x="911" 
d="M254 508h2l487 434h64l-498 -436l555 -506h-67l-541 498h-2v-498h-45v1548h45v-1040z" />
    <glyph glyph-name="l" unicode="l" horiz-adv-x="462" 
d="M254 0h-45v1548h45v-1548z" />
    <glyph glyph-name="m" unicode="m" horiz-adv-x="1820" 
d="M1289 971q124 1 201 -61q78 -62 106 -148t28 -193v-569h-45v565q0 200 -115 305q-68 61 -172 62q-152 0 -254 -126t-102 -335v-471h-45v565q0 133 -53 241q-64 126 -220 126t-257 -126t-101 -335v-471h-45v705q0 150 -10 237h45q8 -68 8 -248h4q41 127 138 202t214 75
q265 0 312 -289h4q41 137 138 213t221 76z" />
    <glyph glyph-name="n" unicode="n" horiz-adv-x="1171" 
d="M258 694h4q42 127 146 202t227 75q180 0 260 -116t80 -286v-569h-45v565q0 131 -58 240q-31 57 -92 92t-145 35q-159 0 -267 -126t-108 -335v-471h-45v705q0 150 -10 237h45q8 -68 8 -248z" />
    <glyph glyph-name="o" unicode="o" horiz-adv-x="1239" 
d="M1112 472q0 -220 -138 -360t-356 -140t-354 140q-137 140 -137 360t137 359t354 139q218 0 356 -138q138 -140 138 -360zM1067 473q0 197 -123 328t-326 131q-202 0 -324 -131t-122 -328t122 -330t324 -133t326 133q123 133 123 330z" />
    <glyph glyph-name="p" unicode="p" horiz-adv-x="1282" 
d="M254 686h6q59 137 172 211t252 74q209 1 340 -141t131 -359t-133 -358t-338 -142q-139 0 -256 75t-168 208h-6v-746h-45v1434h45v-256zM1110 468q0 192 -118 328t-305 136t-311 -135t-124 -325t124 -326t311 -136t305 133t118 325z" />
    <glyph glyph-name="q" unicode="q" horiz-adv-x="1282" 
d="M1028 686v256h45v-1434h-45v746h-6q-51 -133 -168 -208t-256 -75q-205 -1 -338 141t-133 359t131 358t340 142q139 0 252 -74t172 -211h6zM1030 470q0 190 -124 326t-311 136t-305 -136t-118 -328t118 -325t305 -133t311 135t124 325z" />
    <glyph glyph-name="r" unicode="r" horiz-adv-x="649" 
d="M258 694h4q39 139 126 208t200 69q23 0 37 -2v-39q-10 2 -27 2q-114 0 -192 -70q-146 -131 -146 -375v-487h-45v705q0 150 -10 237h45q8 -68 8 -248z" />
    <glyph glyph-name="s" unicode="s" horiz-adv-x="849" 
d="M739 242q0 -119 -88 -193t-219 -74q-219 0 -330 158l37 25q100 -143 295 -144q100 0 180 62t80 166q0 64 -19 90t-31 42t-36 28q-25 14 -39 22t-46 18t-46 15q-15 5 -113 31t-160 77t-62 165t85 177q86 63 203 64q195 0 289 -137l-39 -23q-94 121 -250 121
q-94 0 -169 -49t-75 -152q0 -57 17 -95q27 -62 137 -98q32 -10 140 -38q108 -27 184 -83t75 -175z" />
    <glyph glyph-name="t" unicode="t" horiz-adv-x="622" 
d="M436 -25q-86 -1 -138 59t-52 161v708h-205v39h203v277h47v-277h276v-39h-276v-708q0 -180 172 -181q57 1 104 19l6 -35q-51 -23 -137 -23z" />
    <glyph glyph-name="u" unicode="u" horiz-adv-x="1171" 
d="M909 248h-4q-45 -129 -146 -203t-227 -74q-180 0 -260 116t-79 286v569h45v-565q0 -133 57 -240q31 -57 92 -92t145 -35q160 0 268 126t107 335v471h45v-704q0 -150 11 -238h-45q-9 68 -9 248z" />
    <glyph glyph-name="v" unicode="v" horiz-adv-x="888" 
d="M840 942l-361 -942h-59l-371 942h49l351 -897h4l338 897h49z" />
    <glyph glyph-name="w" unicode="w" horiz-adv-x="1429" 
d="M1360 942l-277 -942h-61l-307 893h-4l-305 -893h-62l-274 942h47l258 -897h4l303 897h63l306 -897h4l258 897h47z" />
    <glyph glyph-name="x" unicode="x" horiz-adv-x="925" 
d="M809 0l-350 467l-344 -467h-58l373 498l-326 444h58l299 -414l297 414h59l-328 -444l379 -498h-59z" />
    <glyph glyph-name="y" unicode="y" horiz-adv-x="876" 
d="M827 942l-467 -1253q-68 -184 -227 -185q-45 0 -84 15l12 39q33 -12 93 -12q111 -1 178 182l90 245l-373 969h49l346 -917l334 917h49z" />
    <glyph glyph-name="z" unicode="z" horiz-adv-x="897" 
d="M793 0h-693v43l623 860h-590v39h635v-45l-616 -858h641v-39z" />
    <glyph glyph-name="braceleft" unicode="{" horiz-adv-x="614" 
d="M0 571v37q76 0 117 51t41 185v399q0 256 217 256h96v-39h-96q-172 0 -172 -217v-401q0 -225 -137 -250v-4q137 -25 137 -250v-401q0 -217 172 -218h96v-38h-96q-217 0 -217 256v399q0 133 -41 184t-117 51z" />
    <glyph glyph-name="bar" unicode="|" horiz-adv-x="454" 
d="M205 1536h45v-2048h-45v2048z" />
    <glyph glyph-name="braceright" unicode="}" horiz-adv-x="614" 
d="M614 608v-37q-76 0 -116 -51t-41 -184v-399q0 -256 -217 -256h-97v38h97q172 0 172 218v401q0 225 137 250v4q-137 25 -137 250v401q0 217 -172 217h-97v39h97q217 0 217 -256v-399q1 -132 41 -184t116 -52z" />
    <glyph glyph-name="asciitilde" unicode="~" horiz-adv-x="1363" 
d="M461 731q102 0 227 -87t221 -87q129 0 238 174l31 -33q-117 -184 -269 -184q-105 0 -201 66t-142 88q-46 20 -101 20q-144 0 -240 -176l-35 29q113 190 271 190z" />
    <glyph glyph-name="uni00A0" unicode="&#xa0;" horiz-adv-x="512" 
 />
    <glyph glyph-name="exclamdown" unicode="&#xa1;" horiz-adv-x="565" 
d="M283 903q-19 1 -33 15t-14 38t14 37q14 15 32 15t33 -14t15 -38q0 -23 -14 -38t-33 -15zM305 -455h-45v1051h45v-1051z" />
    <glyph glyph-name="cent" unicode="&#xa2;" horiz-adv-x="1146" 
d="M662 -147h-46v120q-196 13 -320 151t-124 345t125 347t319 153v137h46v-137q180 -4 299 -125l-35 -31q-112 113 -264 117v-918q164 4 272 107l31 -29q-113 -113 -303 -117v-120zM217 470q-1 -182 109 -314t290 -144v918q-180 -12 -290 -144t-109 -316z" />
    <glyph glyph-name="sterling" unicode="&#xa3;" horiz-adv-x="1146" 
d="M424 776h348v-39h-348v-696h524v-41h-792v41h223v696h-201v39h201v279q0 205 94 319t277 113q143 0 243 -88l-28 -33q-92 80 -215 80q-168 0 -247 -108t-79 -289v-273z" />
    <glyph glyph-name="currency" unicode="&#xa4;" horiz-adv-x="1146" 
d="M576 129q-188 0 -314 115l-184 -183l-29 31l182 182q-113 126 -113 316t107 315l-176 174l31 31l174 -174q122 123 318 123t323 -121l172 172l31 -31l-172 -172q108 -121 108 -315t-116 -322l180 -178l-29 -31l-180 181q-125 -113 -313 -113zM993 595q0 183 -114 305
q-115 122 -303 122t-303 -122q-113 -122 -113 -305t114 -307t301 -124q188 0 304 124q114 124 114 307z" />
    <glyph glyph-name="yen" unicode="&#xa5;" horiz-adv-x="1146" 
d="M551 725h-389v39h373l-482 686h53l469 -678l467 678h52l-478 -686h369v-39h-389v-268h389v-39h-389v-418h-45v418h-389v39h389v268z" />
    <glyph glyph-name="brokenbar" unicode="&#xa6;" horiz-adv-x="454" 
d="M246 705h-35v677h35v-677zM246 -358h-35v677h35v-677z" />
    <glyph glyph-name="section" unicode="&#xa7;" horiz-adv-x="1146" 
d="M872 31q0 -141 -102 -223t-254 -82q-211 0 -340 139l35 35q115 -133 309 -133q131 1 219 69t88 180t-70 169q-71 58 -206 114l-76 31q-150 60 -212 122t-62 180t81 190t187 93q-113 49 -163 107t-50 182q0 125 100 206t252 81q209 0 303 -129l-34 -31q-78 121 -275 121
q-121 0 -212 -71t-91 -197q0 -86 51 -148q18 -24 64 -50t68 -35q24 -9 83 -33l66 -27q157 -63 227 -130t70 -181t-80 -188q-80 -73 -199 -91q111 -45 167 -108t56 -162zM883 576q0 110 -71 169t-208 113l-84 33q-110 -14 -192 -81t-82 -183t84 -174q64 -46 178 -93l90 -34
q117 8 201 74t84 176z" />
    <glyph glyph-name="dieresis" unicode="&#xa8;" 
d="M88 1296q-18 0 -32 14t-15 39q0 23 14 37q33 32 66 0q14 -14 14 -36q-1 -22 -15 -38t-32 -16zM403 1296q-18 0 -32 14q-15 14 -15 39q0 23 14 37q34 31 66 0q14 -14 14 -36t-14 -38q-15 -16 -33 -16z" />
    <glyph glyph-name="copyright" unicode="&#xa9;" horiz-adv-x="1638" 
d="M41 723q0 322 228 547t551 225t550 -225q227 -226 227 -546t-227 -544t-550 -225q-323 0 -551 223t-228 545zM86 723q0 -301 216 -512t518 -211t517 211t215 512t-215 514t-517 213t-518 -213t-216 -514zM839 1143q-161 0 -272 -124t-111 -300t112 -298
q110 -122 275 -122t267 98l31 -28q-111 -111 -295 -111t-310 129q-124 129 -124 331t125 333t304 131t296 -117l-35 -31q-102 109 -263 109z" />
    <glyph glyph-name="ordfeminine" unicode="&#xaa;" horiz-adv-x="716" 
d="M545 1237v23q0 178 -183 178q-125 0 -204 -80l-23 35q82 82 227 82q102 1 162 -53t62 -156v-254q0 -74 10 -129h-41q-10 51 -10 131h-2q-35 -72 -102 -109t-143 -37t-136 43q-62 43 -62 119t36 116q56 65 243 85q68 6 166 6zM545 1200h-31q-284 0 -345 -74
q-28 -34 -28 -94t50 -92t122 -33q106 0 169 70q62 70 63 168v55z" />
    <glyph glyph-name="guillemotleft" unicode="&#xab;" horiz-adv-x="985" 
d="M793 106l-33 -24l-252 403l250 402l33 -23l-232 -379zM453 106l-33 -24l-252 403l250 402l33 -23l-232 -379z" />
    <glyph glyph-name="logicalnot" unicode="&#xac;" horiz-adv-x="1363" 
d="M1174 274h-46v504h-935v39h981v-543z" />
    <glyph glyph-name="uni00AD" unicode="&#xad;" horiz-adv-x="614" 
d="M492 500h-369v41h369v-41z" />
    <glyph glyph-name="registered" unicode="&#xae;" horiz-adv-x="1228" 
d="M502 985v-225h-43v514h172q168 0 168 -144q0 -63 -40 -98t-97 -41l157 -231h-53l-152 225h-112zM756 1133q0 102 -125 102h-129v-215h98q78 0 117 25t39 88zM147 1012q-1 194 137 328t332 134t329 -134q136 -136 136 -328t-136 -327q-136 -134 -330 -134t-331 134
t-137 327zM190 1012q0 -172 126 -297t299 -125t298 125t125 297t-125 297t-298 125t-299 -125t-126 -297z" />
    <glyph glyph-name="macron" unicode="&#xaf;" 
d="M483 1272h-475v41h475v-41z" />
    <glyph glyph-name="degree" unicode="&#xb0;" horiz-adv-x="819" 
d="M707 1169q0 -123 -87 -210t-210 -87t-210 87t-87 210t87 210t210 87t210 -87t87 -210zM666 1169q0 105 -76 181t-180 76t-181 -76q-75 -76 -75 -180t76 -181q76 -76 180 -76t180 76t76 180z" />
    <glyph glyph-name="plusminus" unicode="&#xb1;" horiz-adv-x="1363" 
d="M1174 700h-474v-393h-45v393h-462v41h460v402h45v-402h476v-41zM1165 98h-964v41h964v-41z" />
    <glyph glyph-name="twosuperior" unicode="&#xb2;" horiz-adv-x="716" 
d="M610 627v-37h-510v41l316 346q150 162 150 261t-54 148q-53 49 -141 50q-160 0 -203 -154l-39 12q45 178 242 179q113 1 175 -61t62 -148t-33 -144q-33 -59 -141 -176l-289 -317h465z" />
    <glyph glyph-name="threesuperior" unicode="&#xb3;" horiz-adv-x="716" 
d="M582 804q0 -106 -72 -170t-182 -65q-178 0 -248 144l37 14q59 -121 211 -121q102 0 158 56t56 155q0 97 -74 153q-75 56 -173 56h-35v37h33q104 0 162 56q57 56 57 141q0 84 -53 132t-131 48q-117 0 -174 -88l-31 22q74 100 194 100t177 -58t57 -154t-50 -150
q-50 -55 -139 -65v-5q104 -10 162 -70q58 -62 58 -168z" />
    <glyph glyph-name="acute" unicode="&#xb4;" 
d="M451 1450l-228 -295h-39l211 295h56z" />
    <glyph glyph-name="mu" unicode="&#xb5;" horiz-adv-x="1138" 
d="M909 0v248h-4q-45 -129 -146 -203t-227 -74q-215 0 -294 176v-614h-45v1409h45v-565q0 -133 57 -240q31 -57 92 -92t145 -35q160 0 268 126t107 335v471h45v-704l6 -238h-49z" />
    <glyph glyph-name="paragraph" unicode="&#xb6;" horiz-adv-x="1228" 
d="M1001 -258h-45v1673h-317v-1673h-45v956q-197 0 -318 106t-120 259q0 190 117 289q118 98 337 98h391v-1708z" />
    <glyph glyph-name="periodcentered" unicode="&#xb7;" 
d="M246 469q-18 0 -33 14q-14 14 -14 38t14 38q15 14 33 14t32 -14t15 -37q-1 -23 -15 -38t-32 -15z" />
    <glyph glyph-name="cedilla" unicode="&#xb8;" 
d="M274 -160q68 0 122 -32t53 -114q0 -81 -72 -119t-161 -38t-181 41l10 35q72 -37 176 -37q184 0 185 125q0 104 -148 104q-86 0 -141 -30l-21 18l142 207h43l-121 -176q46 16 114 16z" />
    <glyph glyph-name="onesuperior" unicode="&#xb9;" horiz-adv-x="716" 
d="M391 590h-45v815l-196 -131l-25 33l223 143h43v-860z" />
    <glyph glyph-name="ordmasculine" unicode="&#xba;" horiz-adv-x="716" 
d="M649 1174q0 -134 -81 -220t-210 -86t-210 86q-80 86 -80 220t80 218q81 85 210 85t210 -85t81 -218zM109 1174q1 -115 69 -193t182 -78t181 78q68 78 67 193q0 114 -68 190t-182 76q-115 0 -182 -76t-67 -190z" />
    <glyph glyph-name="guillemotright" unicode="&#xbb;" horiz-adv-x="985" 
d="M817 485l-250 -401l-32 22l231 379l-234 379l33 25zM477 485l-250 -401l-32 22l231 379l-233 379l32 25z" />
    <glyph glyph-name="onequarter" unicode="&#xbc;" horiz-adv-x="1638" 
d="M1333 219h-401v45l379 606h63v-614h137v-37h-137v-219h-41v219zM1333 256v567h-6l-354 -567h360zM1253 1485l-901 -1540l-33 22l902 1540zM391 590h-45v815l-196 -131l-25 33l223 143h43v-860z" />
    <glyph glyph-name="onehalf" unicode="&#xbd;" horiz-adv-x="1638" 
d="M1253 1485l-901 -1540l-33 22l902 1540zM1489 37v-37h-510v41l315 346q150 162 150 261q0 98 -53 148t-142 50q-160 0 -202 -154l-39 13q45 178 241 178q113 1 175 -61t62 -147t-32 -145q-33 -60 -141 -176l-289 -317h465zM391 590h-45v815l-196 -131l-25 33l223 143h43
v-860z" />
    <glyph glyph-name="threequarters" unicode="&#xbe;" horiz-adv-x="1638" 
d="M1333 219h-401v45l379 606h63v-614h137v-37h-137v-219h-41v219zM1333 256v567h-6l-354 -567h360zM1253 1485l-901 -1540l-33 22l902 1540zM582 804q0 -106 -72 -170t-182 -65q-178 0 -248 144l37 14q59 -121 211 -121q102 0 158 56t56 155q0 97 -74 153q-75 56 -173 56
h-35v37h33q104 0 162 56q57 56 57 141q0 84 -53 132t-131 48q-117 0 -174 -88l-31 22q74 100 194 100t177 -58t57 -154t-50 -150q-50 -55 -139 -65v-5q104 -10 162 -70q58 -62 58 -168z" />
    <glyph glyph-name="questiondown" unicode="&#xbf;" horiz-adv-x="966" 
d="M471 903q-19 -1 -33 15t-14 38t14 37q33 33 66 0q14 -14 14 -38t-14 -38t-33 -14zM453 496v90h45v-109q0 -156 -142 -280l-69 -62q-74 -66 -109 -125t-35 -153q-1 -143 93 -225t234 -81q140 0 229 81t114 214l43 -8q-29 -158 -132 -244t-259 -86t-261 92t-106 255
q0 115 47 185t145 150t130 143q33 63 33 163z" />
    <glyph glyph-name="Agrave" unicode="&#xc0;" horiz-adv-x="1363" 
d="M1327 0h-49l-172 416h-842l-178 -416h-49l629 1450h57zM1092 455l-400 966l-411 -966h811zM453 1860h55l211 -295h-39z" />
    <glyph glyph-name="Aacute" unicode="&#xc1;" horiz-adv-x="1363" 
d="M1327 0h-49l-172 416h-842l-178 -416h-49l629 1450h57zM1092 455l-400 966l-411 -966h811zM932 1860l-227 -295h-39l211 295h55z" />
    <glyph glyph-name="Acircumflex" unicode="&#xc2;" horiz-adv-x="1363" 
d="M1327 0h-49l-172 416h-842l-178 -416h-49l629 1450h57zM1092 455l-400 966l-411 -966h811zM664 1860h57l211 -295h-47l-193 270l-192 -270h-47z" />
    <glyph glyph-name="Atilde" unicode="&#xc3;" horiz-adv-x="1363" 
d="M1327 0h-49l-172 416h-842l-178 -416h-49l629 1450h57zM1092 455l-400 966l-411 -966h811zM821 1667q68 0 82 98h33q-14 -137 -115 -137q-51 0 -132 49t-120 49q-66 0 -82 -104h-32q8 70 40 107q33 37 79 37t125 -50q79 -49 122 -49z" />
    <glyph glyph-name="Adieresis" unicode="&#xc4;" horiz-adv-x="1363" 
d="M1327 0h-49l-172 416h-842l-178 -416h-49l629 1450h57zM1092 455l-400 966l-411 -966h811zM535 1706q-18 0 -33 14q-14 14 -14 38t14 38t32 14t33 -14t15 -37t-14 -38t-33 -15zM850 1706q-18 0 -33 14q-14 14 -14 38t14 38q15 14 33 14t32 -14t15 -37q-1 -23 -15 -38
t-32 -15z" />
    <glyph glyph-name="Aring" unicode="&#xc5;" horiz-adv-x="1363" 
d="M1327 0h-49l-172 416h-842l-178 -416h-49l629 1450h57zM1092 455l-400 966l-411 -966h811zM692 1935q80 0 138 -57t59 -138q-1 -81 -59 -137q-58 -57 -138 -57t-138 56t-58 138q0 81 58 138t138 57zM850 1741q0 67 -46 113t-112 46t-112 -46q-46 -48 -45 -114
q0 -66 46 -112q45 -47 111 -47t112 47t46 113z" />
    <glyph glyph-name="AE" unicode="&#xc6;" horiz-adv-x="1982" 
d="M1868 0h-862v422h-664l-276 -422h-54l942 1450h879v-41h-782v-637h733v-41h-733v-690h817v-41zM1006 463v946h-27l-610 -946h637z" />
    <glyph glyph-name="Ccedilla" unicode="&#xc7;" horiz-adv-x="1482" 
d="M921 -160q69 0 122 -32t53 -114q0 -81 -72 -119t-161 -38t-181 41l10 35q72 -37 176 -37q184 0 185 125q0 104 -148 104q-86 0 -141 -30l-21 18l113 168q-313 12 -511 224t-198 543t207 547q206 216 520 216t494 -186l-29 -33q-81 86 -205 132t-247 46q-307 0 -501 -209
t-194 -517t194 -516q192 -208 501 -208q141 0 271 54t214 155l33 -31q-86 -104 -220 -160t-286 -59l-92 -135q45 16 114 16z" />
    <glyph glyph-name="Egrave" unicode="&#xc8;" horiz-adv-x="1208" 
d="M1094 0h-877v1450h844v-41h-801v-637h754v-41h-754v-690h834v-41zM422 1860h55l211 -295h-39z" />
    <glyph glyph-name="Eacute" unicode="&#xc9;" horiz-adv-x="1208" 
d="M1094 0h-877v1450h844v-41h-801v-637h754v-41h-754v-690h834v-41zM854 1860l-227 -295h-39l211 295h55z" />
    <glyph glyph-name="Ecircumflex" unicode="&#xca;" horiz-adv-x="1208" 
d="M1094 0h-877v1450h844v-41h-801v-637h754v-41h-754v-690h834v-41zM616 1860h58l211 -295h-47l-193 270l-192 -270h-47z" />
    <glyph glyph-name="Edieresis" unicode="&#xcb;" horiz-adv-x="1208" 
d="M1094 0h-877v1450h844v-41h-801v-637h754v-41h-754v-690h834v-41zM487 1706q-18 0 -32 14q-15 14 -15 38t14 38t33 14t33 -14t14 -37t-14 -38q-15 -15 -33 -15zM803 1706q-18 0 -33 14q-14 14 -14 38t14 38t32 14t34 -14q14 -14 14 -37t-14 -38t-33 -15z" />
    <glyph glyph-name="Igrave" unicode="&#xcc;" horiz-adv-x="479" 
d="M262 0h-45v1450h45v-1450zM-2 1860h55l211 -295h-39z" />
    <glyph glyph-name="Iacute" unicode="&#xcd;" horiz-adv-x="479" 
d="M262 0h-45v1450h45v-1450zM479 1860l-227 -295h-39l211 295h55z" />
    <glyph glyph-name="Icircumflex" unicode="&#xce;" horiz-adv-x="479" 
d="M262 0h-45v1450h45v-1450zM209 1860h57l211 -295h-47l-192 270l-193 -270h-47z" />
    <glyph glyph-name="Idieresis" unicode="&#xcf;" horiz-adv-x="479" 
d="M262 0h-45v1450h45v-1450zM82 1706q-18 0 -33 14q-14 14 -14 38t14 38q15 14 33 14t32 -14t15 -37q-1 -23 -15 -38t-32 -15zM397 1706q-18 0 -32 14q-15 14 -15 38t14 38t33 14t33 -14t14 -37t-14 -38t-33 -15z" />
    <glyph glyph-name="Eth" unicode="&#xd0;" horiz-adv-x="1576" 
d="M217 733h-164v41h164v676h412q358 0 579 -182q222 -182 222 -542t-222 -542q-222 -184 -579 -184h-412v733zM264 774h549v-41h-549v-692h354q342 0 553 171t211 513q0 233 -103 390q-193 294 -661 294h-354v-635z" />
    <glyph glyph-name="Ntilde" unicode="&#xd1;" horiz-adv-x="1591" 
d="M1374 0h-65l-1041 1393h-6v-1393h-45v1450h64l1042 -1391h6v1391h45v-1450zM930 1667q68 0 82 98h32q-14 -137 -114 -137q-51 0 -132 49t-120 49q-68 0 -82 -104h-33q8 70 40 107t79 37t126 -50q79 -49 122 -49z" />
    <glyph glyph-name="Ograve" unicode="&#xd2;" horiz-adv-x="1785" 
d="M1638 725q0 -334 -212 -550t-534 -216t-533 216q-212 216 -212 550t211 550t535 216q325 0 535 -216t210 -550zM1593 725q0 307 -197 516q-198 209 -503 209t-503 -209t-198 -516t196 -516t505 -209t505 209q195 209 195 516zM700 1860h56l211 -295h-39z" />
    <glyph glyph-name="Oacute" unicode="&#xd3;" horiz-adv-x="1785" 
d="M1638 725q0 -334 -212 -550t-534 -216t-533 216q-212 216 -212 550t211 550t535 216q325 0 535 -216t210 -550zM1593 725q0 307 -197 516q-198 209 -503 209t-503 -209t-198 -516t196 -516t505 -209t505 209q195 209 195 516zM1106 1860l-227 -295h-39l211 295h55z" />
    <glyph glyph-name="Ocircumflex" unicode="&#xd4;" horiz-adv-x="1785" 
d="M1638 725q0 -334 -212 -550t-534 -216t-533 216q-212 216 -212 550t211 550t535 216q325 0 535 -216t210 -550zM1593 725q0 307 -197 516q-198 209 -503 209t-503 -209t-198 -516t196 -516t505 -209t505 209q195 209 195 516zM868 1860h58l211 -295h-47l-193 270
l-192 -270h-48z" />
    <glyph glyph-name="Otilde" unicode="&#xd5;" horiz-adv-x="1785" 
d="M1638 725q0 -334 -212 -550t-534 -216t-533 216q-212 216 -212 550t211 550t535 216q325 0 535 -216t210 -550zM1593 725q0 307 -197 516q-198 209 -503 209t-503 -209t-198 -516t196 -516t505 -209t505 209q195 209 195 516zM1024 1667q66 0 82 98h33
q-14 -137 -115 -137q-51 0 -132 49t-120 49q-68 0 -82 -104h-33q8 70 40 107t79 37t126 -50q79 -49 122 -49z" />
    <glyph glyph-name="Odieresis" unicode="&#xd6;" horiz-adv-x="1785" 
d="M1638 725q0 -334 -212 -550t-534 -216t-533 216q-212 216 -212 550t211 550t535 216q325 0 535 -216t210 -550zM1593 725q0 307 -197 516q-198 209 -503 209t-503 -209t-198 -516t196 -516t505 -209t505 209q195 209 195 516zM739 1706q-18 0 -32 14q-15 14 -15 38t14 38
t33 14t33 -14t14 -37t-14 -38t-33 -15zM1055 1706q-18 0 -33 14q-14 14 -14 38t14 38t32 14t33 -14t15 -37t-14 -38t-33 -15z" />
    <glyph glyph-name="multiply" unicode="&#xd7;" horiz-adv-x="1363" 
d="M711 631l368 -369l-28 -26l-367 366l-367 -366l-28 26l368 369l-368 368l26 27l369 -369l369 369l26 -27z" />
    <glyph glyph-name="Oslash" unicode="&#xd8;" horiz-adv-x="1785" 
d="M866 1450q-304 0 -502 -209t-198 -520t205 -520l940 1093q-186 156 -445 156zM1612 738q0 -346 -212 -563q-212 -216 -518 -216t-511 180l-140 -162l-28 29l139 160q-221 211 -221 552t211 557t534 216q272 0 475 -162l138 160l30 -27l-137 -159q240 -219 240 -565z
M866 0q309 0 505 209q195 209 195 527t-225 532l-942 -1096q195 -172 467 -172z" />
    <glyph glyph-name="Ugrave" unicode="&#xd9;" horiz-adv-x="1499" 
d="M1303 1450v-901q-1 -268 -133 -429t-420 -161t-421 161q-132 161 -132 429v901h45v-893q0 -167 43 -270t96 -158t147 -92t220 -37t220 36q93 36 147 91q142 145 142 430v893h46zM555 1860h55l211 -295h-39z" />
    <glyph glyph-name="Uacute" unicode="&#xda;" horiz-adv-x="1499" 
d="M1303 1450v-901q-1 -268 -133 -429t-420 -161t-421 161q-132 161 -132 429v901h45v-893q0 -167 43 -270t96 -158t147 -92t220 -37t220 36q93 36 147 91q142 145 142 430v893h46zM928 1860l-228 -295h-38l210 295h56z" />
    <glyph glyph-name="Ucircumflex" unicode="&#xdb;" horiz-adv-x="1499" 
d="M1303 1450v-901q-1 -268 -133 -429t-420 -161t-421 161q-132 161 -132 429v901h45v-893q0 -167 43 -270t96 -158t147 -92t220 -37t220 36q93 36 147 91q142 145 142 430v893h46zM721 1860h57l211 -295h-47l-192 270l-193 -270h-47z" />
    <glyph glyph-name="Udieresis" unicode="&#xdc;" horiz-adv-x="1499" 
d="M1303 1450v-901q-1 -268 -133 -429t-420 -161t-421 161q-132 161 -132 429v901h45v-893q0 -167 43 -270t96 -158t147 -92t220 -37t220 36q93 36 147 91q142 145 142 430v893h46zM592 1706q-18 0 -33 14q-14 14 -14 38t14 38q15 14 33 14t32 -14t15 -37q-1 -23 -15 -38
t-32 -15zM907 1706q-18 0 -33 14q-14 14 -14 38t14 38t32 14t34 -14q14 -14 14 -37t-14 -38t-33 -15z" />
    <glyph glyph-name="Yacute" unicode="&#xdd;" horiz-adv-x="1101" 
d="M573 0h-45v635l-497 815h53l469 -770l467 770h51l-498 -815v-635zM784 1860l-227 -295h-39l211 295h55z" />
    <glyph glyph-name="Thorn" unicode="&#xde;" horiz-adv-x="1171" 
d="M1059 766q0 -178 -121 -278t-301 -99h-375v-389h-45v1450h45v-324h348q115 0 210 -30t167 -114q72 -85 72 -216zM1014 766q0 114 -60 190q-106 133 -325 131h-367v-659h377q155 0 265 85t110 253z" />
    <glyph glyph-name="germandbls" unicode="&#xdf;" horiz-adv-x="1206" 
d="M1079 429q0 -204 -124 -327t-330 -122q-66 0 -99 6v43q55 -8 97 -9q188 0 300 112q111 112 111 310t-120 303q-120 106 -308 107h-33v43h33q147 0 243 87q95 86 95 234t-92 232t-236 84q-190 0 -276 -125t-86 -311v-1096h-45v1102q0 211 105 341q106 130 286 130t284 -96
q104 -95 105 -247q0 -152 -77 -238t-201 -113v-5q164 -23 266 -132t102 -313z" />
    <glyph glyph-name="agrave" unicode="&#xe0;" horiz-adv-x="1048" 
d="M811 629q-1 303 -313 303q-150 0 -277 -113l-24 35q135 117 306 117q353 0 353 -344v-414q0 -111 16 -213h-43q-16 86 -16 225h-6q-39 -123 -137 -189t-222 -65q-124 0 -219 70q-94 70 -94 201q0 96 50 162t134 96q144 53 328 53h164v76zM811 424v90h-145
q-485 0 -486 -272q0 -117 83 -174q83 -58 185 -58q274 -1 346 271q17 67 17 143zM336 1450h55l211 -295h-39z" />
    <glyph glyph-name="aacute" unicode="&#xe1;" horiz-adv-x="1048" 
d="M811 629q-1 303 -313 303q-150 0 -277 -113l-24 35q135 117 306 117q353 0 353 -344v-414q0 -111 16 -213h-43q-16 86 -16 225h-6q-39 -123 -137 -189t-222 -65q-124 0 -219 70q-94 70 -94 201q0 96 50 162t134 96q144 53 328 53h164v76zM811 424v90h-145
q-485 0 -486 -272q0 -117 83 -174q83 -58 185 -58q274 -1 346 271q17 67 17 143zM743 1450l-227 -295h-39l211 295h55z" />
    <glyph glyph-name="acircumflex" unicode="&#xe2;" horiz-adv-x="1048" 
d="M811 629q-1 303 -313 303q-150 0 -277 -113l-24 35q135 117 306 117q353 0 353 -344v-414q0 -111 16 -213h-43q-16 86 -16 225h-6q-39 -123 -137 -189t-222 -65q-124 0 -219 70q-94 70 -94 201q0 96 50 162t134 96q144 53 328 53h164v76zM811 424v90h-145
q-485 0 -486 -272q0 -117 83 -174q83 -58 185 -58q274 -1 346 271q17 67 17 143zM479 1450h58l211 -295h-48l-192 270l-193 -270h-47z" />
    <glyph glyph-name="atilde" unicode="&#xe3;" horiz-adv-x="1048" 
d="M811 629q-1 303 -313 303q-150 0 -277 -113l-24 35q135 117 306 117q353 0 353 -344v-414q0 -111 16 -213h-43q-16 86 -16 225h-6q-39 -123 -137 -189t-222 -65q-124 0 -219 70q-94 70 -94 201q0 96 50 162t134 96q144 53 328 53h164v76zM811 424v90h-145
q-485 0 -486 -272q0 -117 83 -174q83 -58 185 -58q274 -1 346 271q17 67 17 143zM639 1219q-51 0 -132 49t-120 49q-68 0 -82 -105h-33q8 70 40 107t79 37t126 -49t122 -50q66 0 82 99h33q-14 -137 -115 -137z" />
    <glyph glyph-name="adieresis" unicode="&#xe4;" horiz-adv-x="1048" 
d="M811 629q-1 303 -313 303q-150 0 -277 -113l-24 35q135 117 306 117q353 0 353 -344v-414q0 -111 16 -213h-43q-16 86 -16 225h-6q-39 -123 -137 -189t-222 -65q-124 0 -219 70q-94 70 -94 201q0 96 50 162t134 96q144 53 328 53h164v76zM811 424v90h-145
q-485 0 -486 -272q0 -117 83 -174q83 -58 185 -58q274 -1 346 271q17 67 17 143zM356 1296q-18 0 -32 14t-14 39q0 23 14 37q34 31 65 0q14 -14 14 -36q-1 -22 -15 -38t-32 -16zM672 1296q-18 0 -32 14t-15 39q0 23 14 37q33 32 66 0q14 -14 14 -36q-1 -22 -15 -38t-32 -16z
" />
    <glyph glyph-name="aring" unicode="&#xe5;" horiz-adv-x="1048" 
d="M811 629q-1 303 -313 303q-150 0 -277 -113l-24 35q135 117 306 117q353 0 353 -344v-414q0 -111 16 -213h-43q-16 86 -16 225h-6q-39 -123 -137 -189t-222 -65q-124 0 -219 70q-94 70 -94 201q0 96 50 162t134 96q144 53 328 53h164v76zM811 424v90h-145
q-485 0 -486 -272q0 -117 83 -174q83 -58 185 -58q274 -1 346 271q17 67 17 143zM711 1330q-1 -81 -59 -137t-138 -56t-138 56t-58 137t58 138q58 58 138 58t138 -58t59 -138zM672 1331q0 66 -46 113t-112 47t-112 -47t-46 -113q0 -67 46 -113t112 -46t112 46q46 47 46 113z
" />
    <glyph glyph-name="ae" unicode="&#xe6;" horiz-adv-x="1800" 
d="M879 522h751q-8 184 -108 297t-267 113q-94 0 -171 -45q-126 -73 -184 -246q-21 -66 -21 -119zM1257 971q197 0 307 -134t109 -317v-39h-796q0 -262 172 -394q94 -73 229 -73q209 0 330 170l30 -26q-135 -184 -362 -185q-150 0 -260 86t-156 234q-18 -139 -120 -231
t-281 -91q-131 0 -228 65q-96 65 -96 193q0 293 527 293h172v96q0 154 -81 234t-239 80t-291 -113l-24 35q135 117 310 117t263 -77t100 -202q48 127 152 203t233 76zM834 391v90h-154q-498 0 -498 -252q0 -117 84 -168t190 -51q287 0 358 243q20 64 20 138z" />
    <glyph glyph-name="ccedilla" unicode="&#xe7;" horiz-adv-x="983" 
d="M642 -160q69 0 122 -32t53 -114q0 -81 -72 -119q-73 -38 -161 -38t-181 41l11 35q72 -37 176 -37q184 0 184 125q0 104 -147 104q-86 0 -142 -30l-20 18l121 178q-203 9 -331 147t-128 353t136 357q137 142 335 142t317 -124l-34 -31q-113 117 -291 117t-298 -136
t-120 -328t120 -325t304 -133t293 107l31 -29q-106 -106 -291 -117l-101 -147q45 16 114 16z" />
    <glyph glyph-name="egrave" unicode="&#xe8;" horiz-adv-x="1138" 
d="M1012 481h-840q0 -188 111 -328q111 -141 321 -141t338 172l33 -28q-141 -184 -365 -184t-353 142q-130 144 -130 362t129 356q128 138 328 139q200 0 314 -134t114 -317v-39zM174 520h795q-4 184 -113 298t-283 114q-100 0 -181 -44q-136 -74 -194 -243
q-24 -68 -24 -125zM379 1450h55l211 -295h-39z" />
    <glyph glyph-name="eacute" unicode="&#xe9;" horiz-adv-x="1138" 
d="M1012 481h-840q0 -188 111 -328q111 -141 321 -141t338 172l33 -28q-141 -184 -365 -184t-353 142q-130 144 -130 362t129 356q128 138 328 139q200 0 314 -134t114 -317v-39zM174 520h795q-4 184 -113 298t-283 114q-100 0 -181 -44q-136 -74 -194 -243
q-24 -68 -24 -125zM793 1450l-228 -295h-39l211 295h56z" />
    <glyph glyph-name="ecircumflex" unicode="&#xea;" horiz-adv-x="1138" 
d="M1012 481h-840q0 -188 111 -328q111 -141 321 -141t338 172l33 -28q-141 -184 -365 -184t-353 142q-130 144 -130 362t129 356q128 138 328 139q200 0 314 -134t114 -317v-39zM174 520h795q-4 184 -113 298t-283 114q-100 0 -181 -44q-136 -74 -194 -243
q-24 -68 -24 -125zM557 1450h57l211 -295h-47l-192 270l-193 -270h-47z" />
    <glyph glyph-name="edieresis" unicode="&#xeb;" horiz-adv-x="1138" 
d="M1012 481h-840q0 -188 111 -328q111 -141 321 -141t338 172l33 -28q-141 -184 -365 -184t-353 142q-130 144 -130 362t129 356q128 138 328 139q200 0 314 -134t114 -317v-39zM174 520h795q-4 184 -113 298t-283 114q-100 0 -181 -44q-136 -74 -194 -243
q-24 -68 -24 -125zM422 1296q-18 0 -32 14t-15 39q0 23 14 37q33 32 66 0q14 -14 14 -36q-1 -22 -15 -38t-32 -16zM737 1296q-18 0 -32 14q-15 14 -15 39q0 23 14 37q34 31 66 0q14 -14 14 -36t-14 -38t-33 -16z" />
    <glyph glyph-name="igrave" unicode="&#xec;" horiz-adv-x="462" 
d="M254 0h-45v942h45v-942zM-10 1450h55l211 -295h-39z" />
    <glyph glyph-name="iacute" unicode="&#xed;" horiz-adv-x="462" 
d="M254 0h-45v942h45v-942zM473 1450l-227 -295h-39l211 295h55z" />
    <glyph glyph-name="icircumflex" unicode="&#xee;" horiz-adv-x="462" 
d="M254 0h-45v942h45v-942zM205 1450h57l211 -295h-47l-193 270l-192 -270h-47z" />
    <glyph glyph-name="idieresis" unicode="&#xef;" horiz-adv-x="462" 
d="M254 0h-45v942h45v-942zM76 1296q-18 0 -32 14t-15 39q0 23 14 37q33 32 66 0q14 -14 14 -36q-1 -22 -15 -38t-32 -16zM391 1296q-19 0 -33 14t-14 39q0 23 14 37q33 32 66 0q14 -14 14 -36t-14 -38t-33 -16z" />
    <glyph glyph-name="eth" unicode="&#xf0;" horiz-adv-x="1239" 
d="M1112 483q0 -225 -138 -368t-356 -143t-354 140q-137 140 -137 360t137 359q136 139 358 139t365 -157l12 4q-59 141 -160 292t-190 234l-229 -124l-25 28l226 127q-131 123 -199 164l35 25q90 -57 200 -168l215 121l33 -27l-215 -121q117 -117 255 -342
q73 -119 120 -263t47 -280zM1067 473q0 197 -123 328t-326 131q-202 0 -324 -131t-122 -328t122 -330t324 -133t326 133q123 133 123 330z" />
    <glyph glyph-name="ntilde" unicode="&#xf1;" horiz-adv-x="1171" 
d="M258 694h4q42 127 146 202t227 75q180 0 260 -116t80 -286v-569h-45v565q0 131 -58 240q-31 57 -92 92t-145 35q-159 0 -267 -126t-108 -335v-471h-45v705q0 150 -10 237h45q8 -68 8 -248zM721 1219q-51 0 -132 49t-120 49q-68 0 -82 -105h-33q8 70 40 107t79 37t126 -49
t122 -50q66 0 82 99h33q-14 -137 -115 -137z" />
    <glyph glyph-name="ograve" unicode="&#xf2;" horiz-adv-x="1239" 
d="M1112 472q0 -220 -138 -360t-356 -140t-354 140q-137 140 -137 360t137 359t354 139q218 0 356 -138q138 -140 138 -360zM1067 473q0 197 -123 328t-326 131q-202 0 -324 -131t-122 -328t122 -330t324 -133t326 133q123 133 123 330zM434 1450h55l211 -295h-38z" />
    <glyph glyph-name="oacute" unicode="&#xf3;" horiz-adv-x="1239" 
d="M1112 472q0 -220 -138 -360t-356 -140t-354 140q-137 140 -137 360t137 359t354 139q218 0 356 -138q138 -140 138 -360zM1067 473q0 197 -123 328t-326 131q-202 0 -324 -131t-122 -328t122 -330t324 -133t326 133q123 133 123 330zM813 1450l-227 -295h-39l211 295h55z
" />
    <glyph glyph-name="ocircumflex" unicode="&#xf4;" horiz-adv-x="1239" 
d="M1112 472q0 -220 -138 -360t-356 -140t-354 140q-137 140 -137 360t137 359t354 139q218 0 356 -138q138 -140 138 -360zM1067 473q0 197 -123 328t-326 131q-202 0 -324 -131t-122 -328t122 -330t324 -133t326 133q123 133 123 330zM594 1450h57l211 -295h-47l-192 270
l-193 -270h-47z" />
    <glyph glyph-name="otilde" unicode="&#xf5;" horiz-adv-x="1239" 
d="M1112 472q0 -220 -138 -360t-356 -140t-354 140q-137 140 -137 360t137 359t354 139q218 0 356 -138q138 -140 138 -360zM1067 473q0 197 -123 328t-326 131q-202 0 -324 -131t-122 -328t122 -330t324 -133t326 133q123 133 123 330zM750 1219q-50 0 -132 49t-120 49
q-68 0 -82 -105h-33q8 70 40 107t79 37t126 -49t122 -50q66 0 81 99h33q-14 -137 -114 -137z" />
    <glyph glyph-name="odieresis" unicode="&#xf6;" horiz-adv-x="1239" 
d="M1112 472q0 -220 -138 -360t-356 -140t-354 140q-137 140 -137 360t137 359t354 139q218 0 356 -138q138 -140 138 -360zM1067 473q0 197 -123 328t-326 131q-202 0 -324 -131t-122 -328t122 -330t324 -133t326 133q123 133 123 330zM465 1296q-19 0 -33 14t-14 39
q0 23 14 37q33 32 66 0q14 -14 14 -36t-14 -38t-33 -16zM780 1296q-18 0 -32 14t-14 39q0 23 14 37q34 31 65 0q14 -14 14 -36q-1 -22 -15 -38t-32 -16z" />
    <glyph glyph-name="divide" unicode="&#xf7;" horiz-adv-x="1363" 
d="M756 963q0 -33 -23 -56t-51 -23t-50 24q-22 22 -22 55t22 55t50 22t52 -22q22 -22 22 -55zM1174 600h-981v41h981v-41zM756 279q0 -33 -23 -56t-51 -23t-50 24q-22 22 -22 56t20 56t51 20q31 0 53 -22t22 -55z" />
    <glyph glyph-name="oslash" unicode="&#xf8;" horiz-adv-x="1239" 
d="M1112 470q0 -218 -138 -358t-352 -140t-354 139l-135 -136l-29 27l138 137q-115 135 -115 344t137 348t345 139t345 -118l121 121l29 -29l-123 -121q131 -135 131 -353zM620 10q202 0 324 133q123 133 123 327t-117 323l-651 -652q119 -131 321 -131zM607 932
q-191 0 -313 -131t-122 -319t100 -312l652 651q-125 111 -317 111z" />
    <glyph glyph-name="ugrave" unicode="&#xf9;" horiz-adv-x="1171" 
d="M909 248h-4q-45 -129 -146 -203t-227 -74q-180 0 -260 116t-79 286v569h45v-565q0 -133 57 -240q31 -57 92 -92t145 -35q160 0 268 126t107 335v471h45v-704q0 -150 11 -238h-45q-9 68 -9 248zM358 1450h56l211 -295h-39z" />
    <glyph glyph-name="uacute" unicode="&#xfa;" horiz-adv-x="1171" 
d="M909 248h-4q-45 -129 -146 -203t-227 -74q-180 0 -260 116t-79 286v569h45v-565q0 -133 57 -240q31 -57 92 -92t145 -35q160 0 268 126t107 335v471h45v-704q0 -150 11 -238h-45q-9 68 -9 248zM764 1450l-227 -295h-39l211 295h55z" />
    <glyph glyph-name="ucircumflex" unicode="&#xfb;" horiz-adv-x="1171" 
d="M909 248h-4q-45 -129 -146 -203t-227 -74q-180 0 -260 116t-79 286v569h45v-565q0 -133 57 -240q31 -57 92 -92t145 -35q160 0 268 126t107 335v471h45v-704q0 -150 11 -238h-45q-9 68 -9 248zM541 1450h57l211 -295h-47l-193 270l-192 -270h-47z" />
    <glyph glyph-name="udieresis" unicode="&#xfc;" horiz-adv-x="1171" 
d="M909 248h-4q-45 -129 -146 -203t-227 -74q-180 0 -260 116t-79 286v569h45v-565q0 -133 57 -240q31 -57 92 -92t145 -35q160 0 268 126t107 335v471h45v-704q0 -150 11 -238h-45q-9 68 -9 248zM412 1296q-18 0 -32 14t-15 39q0 23 14 37q15 14 33 14t32 -14t14 -36
t-14 -38t-32 -16zM727 1296q-19 0 -33 14t-14 39q0 23 14 37q33 32 66 0q14 -14 14 -36t-14 -38t-33 -16z" />
    <glyph glyph-name="yacute" unicode="&#xfd;" horiz-adv-x="876" 
d="M827 942l-467 -1253q-68 -184 -227 -185q-45 0 -84 15l12 39q33 -12 93 -12q111 -1 178 182l90 245l-373 969h49l346 -917l334 917h49zM664 1450l-228 -295h-39l211 295h56z" />
    <glyph glyph-name="thorn" unicode="&#xfe;" horiz-adv-x="1282" 
d="M254 686h6q59 137 172 211t252 74q209 1 340 -141t131 -359t-133 -358t-338 -142q-139 0 -256 75t-168 208h-6v-746h-45v2040h45v-862zM1110 468q0 192 -118 328t-305 136t-311 -135t-124 -325t124 -326t311 -136t305 133t118 325z" />
    <glyph glyph-name="ydieresis" unicode="&#xff;" horiz-adv-x="876" 
d="M827 942l-467 -1253q-68 -184 -227 -185q-45 0 -84 15l12 39q33 -12 93 -12q111 -1 178 182l90 245l-373 969h49l346 -917l334 917h49zM287 1296q-19 0 -33 14t-14 39q0 23 14 37t32 14t33 -14t15 -36t-14 -38t-33 -16zM602 1296q-18 0 -32 14t-15 39q0 23 14 37
q33 32 66 0q14 -14 14 -36q-1 -22 -15 -38t-32 -16z" />
    <glyph glyph-name="Amacron" unicode="&#x100;" horiz-adv-x="1363" 
d="M1327 0h-49l-172 416h-842l-178 -416h-49l629 1450h57zM1092 455l-400 966l-411 -966h811zM930 1681h-475v41h475v-41z" />
    <glyph glyph-name="amacron" unicode="&#x101;" horiz-adv-x="1048" 
d="M811 629q-1 303 -313 303q-150 0 -277 -113l-24 35q135 117 306 117q353 0 353 -344v-414q0 -111 16 -213h-43q-16 86 -16 225h-6q-39 -123 -137 -189t-222 -65q-124 0 -219 70q-94 70 -94 201q0 96 50 162t134 96q144 53 328 53h164v76zM811 424v90h-145
q-485 0 -486 -272q0 -117 83 -174q83 -58 185 -58q274 -1 346 271q17 67 17 143zM774 1272h-475v41h475v-41z" />
    <glyph glyph-name="Abreve" unicode="&#x102;" horiz-adv-x="1363" 
d="M1327 0h-49l-172 416h-842l-178 -416h-49l629 1450h57zM1092 455l-400 966l-411 -966h811zM692 1581q-102 0 -171 68t-85 190h39q21 -105 77 -161t143 -56t141 51q52 51 77 166h37q-20 -123 -88 -191t-170 -67z" />
    <glyph glyph-name="abreve" unicode="&#x103;" horiz-adv-x="1048" 
d="M811 629q-1 303 -313 303q-150 0 -277 -113l-24 35q135 117 306 117q353 0 353 -344v-414q0 -111 16 -213h-43q-16 86 -16 225h-6q-39 -123 -137 -189t-222 -65q-124 0 -219 70q-94 70 -94 201q0 96 50 162t134 96q144 53 328 53h164v76zM811 424v90h-145
q-485 0 -486 -272q0 -117 83 -174q83 -58 185 -58q274 -1 346 271q17 67 17 143zM537 1171q-102 0 -171 68t-85 191h38q21 -104 77 -160t144 -58q88 0 140 52q53 52 78 166h37q-20 -123 -88 -191t-170 -68z" />
    <glyph glyph-name="Aogonek" unicode="&#x104;" horiz-adv-x="1363" 
d="M1092 -306q0 62 30 118t62 91q33 36 96 97h-2l-172 416h-842l-178 -416h-49l629 1450h57l604 -1450q-106 -106 -148 -166t-42 -122q-1 -62 35 -97t110 -35t129 60l21 -33q-70 -63 -156 -63t-135 43q-49 45 -49 107zM1092 455l-400 966l-411 -966h811z" />
    <glyph glyph-name="aogonek" unicode="&#x105;" horiz-adv-x="1048" 
d="M811 629q-1 303 -313 303q-150 0 -277 -113l-24 35q135 117 306 117q353 0 353 -344v-414q0 -111 16 -213h2q-106 -106 -148 -166t-42 -122t36 -97t110 -35t128 60l21 -33q-70 -63 -156 -63t-135 43q-49 45 -49 107q0 106 92 209q33 36 96 97h2q-16 86 -16 225h-6
q-39 -123 -137 -189t-222 -65q-124 0 -219 70q-94 70 -94 201q0 96 50 162t134 96q144 53 328 53h164v76zM811 424v90h-145q-485 0 -486 -272q0 -117 83 -174q83 -58 185 -58q274 -1 346 271q17 67 17 143z" />
    <glyph glyph-name="Cacute" unicode="&#x106;" horiz-adv-x="1482" 
d="M887 -41q-326 0 -533 216t-207 550t207 550q206 216 520 216t494 -186l-29 -33q-81 86 -205 132t-247 46q-307 0 -501 -209t-194 -517t194 -516q192 -208 501 -208q141 0 271 54t214 155l33 -31q-90 -106 -228 -162t-290 -57zM1069 1860l-227 -295h-39l211 295h55z" />
    <glyph glyph-name="cacute" unicode="&#x107;" horiz-adv-x="983" 
d="M590 932q-178 0 -298 -136t-120 -328t120 -325t304 -133t293 107l31 -29q-117 -117 -320 -117q-203 1 -338 141t-135 357t136 359q137 142 335 142t317 -124l-34 -31q-113 117 -291 117zM811 1450l-227 -295h-39l211 295h55z" />
    <glyph glyph-name="Ccircumflex" unicode="&#x108;" horiz-adv-x="1482" 
d="M887 -41q-326 0 -533 216t-207 550t207 550q206 216 520 216t494 -186l-29 -33q-81 86 -205 132t-247 46q-307 0 -501 -209t-194 -517t194 -516q192 -208 501 -208q141 0 271 54t214 155l33 -31q-90 -106 -228 -162t-290 -57zM858 1860h57l211 -295h-47l-192 270
l-193 -270h-47z" />
    <glyph glyph-name="ccircumflex" unicode="&#x109;" horiz-adv-x="983" 
d="M590 932q-178 0 -298 -136t-120 -328t120 -325t304 -133t293 107l31 -29q-117 -117 -320 -117q-203 1 -338 141t-135 357t136 359q137 142 335 142t317 -124l-34 -31q-113 117 -291 117zM578 1450h57l211 -295h-47l-193 270l-192 -270h-47z" />
    <glyph glyph-name="Cdotaccent" unicode="&#x10a;" horiz-adv-x="1482" 
d="M887 -41q-326 0 -533 216t-207 550t207 550q206 216 520 216t494 -186l-29 -33q-81 86 -205 132t-247 46q-307 0 -501 -209t-194 -517t194 -516q192 -208 501 -208q141 0 271 54t214 155l33 -31q-90 -106 -228 -162t-290 -57zM885 1706q-18 0 -33 14q-14 14 -14 38t14 38
t32 14t34 -14q14 -14 14 -37t-14 -38t-33 -15z" />
    <glyph glyph-name="cdotaccent" unicode="&#x10b;" horiz-adv-x="983" 
d="M590 932q-178 0 -298 -136t-120 -328t120 -325t304 -133t293 107l31 -29q-117 -117 -320 -117q-203 1 -338 141t-135 357t136 359q137 142 335 142t317 -124l-34 -31q-113 117 -291 117zM600 1296q-18 0 -32 14t-15 39q0 23 14 37q33 32 66 0q14 -14 14 -36
q-1 -22 -15 -38t-32 -16z" />
    <glyph glyph-name="Ccaron" unicode="&#x10c;" horiz-adv-x="1482" 
d="M887 -41q-326 0 -533 216t-207 550t207 550q206 216 520 216t494 -186l-29 -33q-81 86 -205 132t-247 46q-307 0 -501 -209t-194 -517t194 -516q192 -208 501 -208q141 0 271 54t214 155l33 -31q-90 -106 -228 -162t-290 -57zM915 1565h-57l-211 295h47l193 -271l192 271
h47z" />
    <glyph glyph-name="ccaron" unicode="&#x10d;" horiz-adv-x="983" 
d="M590 932q-178 0 -298 -136t-120 -328t120 -325t304 -133t293 107l31 -29q-117 -117 -320 -117q-203 1 -338 141t-135 357t136 359q137 142 335 142t317 -124l-34 -31q-113 117 -291 117zM627 1155h-58l-211 295h48l192 -270l193 270h47z" />
    <glyph glyph-name="Dcaron" unicode="&#x10e;" horiz-adv-x="1576" 
d="M629 1450q357 0 579 -182t222 -542q0 -358 -222 -542t-579 -184h-412v1450h412zM618 1409h-354v-1368h354q342 0 553 171t211 513q0 233 -103 390q-193 294 -661 294zM756 1565h-58l-211 295h48l192 -271l193 271h47z" />
    <glyph glyph-name="dcaron" unicode="&#x10f;" horiz-adv-x="1282" 
d="M1028 686v862h45v-1548h-45v254h-6q-59 -137 -172 -210t-252 -73q-205 -1 -338 141t-133 357t133 358t338 144q139 0 252 -74t172 -211h6zM1030 470q0 190 -124 326t-311 136t-305 -136t-118 -328t118 -325t305 -133t311 135t124 325zM1354 1450l-119 -379h-35l105 379
h49z" />
    <glyph glyph-name="Dcroat" unicode="&#x110;" horiz-adv-x="1576" 
d="M217 733h-164v41h164v676h412q358 0 579 -182q222 -182 222 -542t-222 -542q-222 -184 -579 -184h-412v733zM264 774h549v-41h-549v-692h354q342 0 553 171t211 513q0 233 -103 390q-193 294 -661 294h-354v-635z" />
    <glyph glyph-name="dcroat" unicode="&#x111;" horiz-adv-x="1282" 
d="M1217 1167h-144v-1167h-45v254h-6q-59 -137 -172 -210t-252 -73q-205 -1 -338 141t-133 357t133 358t338 144q139 0 252 -74t172 -211h6v481h-436v37h436v344h45v-344h144v-37zM1030 470q0 190 -124 326t-311 136t-305 -136t-118 -328t118 -325t305 -133t311 135t124 325
z" />
    <glyph glyph-name="Emacron" unicode="&#x112;" horiz-adv-x="1208" 
d="M1094 0h-877v1450h844v-41h-801v-637h754v-41h-754v-690h834v-41zM883 1681h-475v41h475v-41z" />
    <glyph glyph-name="emacron" unicode="&#x113;" horiz-adv-x="1138" 
d="M1012 481h-840q0 -188 111 -328q111 -141 321 -141t338 172l33 -28q-141 -184 -365 -184t-353 142q-130 144 -130 362t129 356q128 138 328 139q200 0 314 -134t114 -317v-39zM174 520h795q-4 184 -113 298t-283 114q-100 0 -181 -44q-136 -74 -194 -243
q-24 -68 -24 -125zM823 1272h-475v41h475v-41z" />
    <glyph glyph-name="Ebreve" unicode="&#x114;" horiz-adv-x="1208" 
d="M1094 0h-877v1450h844v-41h-801v-637h754v-41h-754v-690h834v-41zM645 1581q-102 0 -171 68t-85 190h39q20 -105 76 -161t144 -56q87 0 140 51t78 166h37q-20 -123 -88 -191t-170 -67z" />
    <glyph glyph-name="ebreve" unicode="&#x115;" horiz-adv-x="1138" 
d="M1012 481h-840q0 -188 111 -328q111 -141 321 -141t338 172l33 -28q-141 -184 -365 -184t-353 142q-130 144 -130 362t129 356q128 138 328 139q200 0 314 -134t114 -317v-39zM174 520h795q-4 184 -113 298t-283 114q-100 0 -181 -44q-136 -74 -194 -243
q-24 -68 -24 -125zM590 1171q-102 0 -171 68t-85 191h39q21 -104 77 -160t143 -58q87 0 140 52t78 166h37q-20 -123 -88 -191t-170 -68z" />
    <glyph glyph-name="Edotaccent" unicode="&#x116;" horiz-adv-x="1208" 
d="M1094 0h-877v1450h844v-41h-801v-637h754v-41h-754v-690h834v-41zM645 1706q-18 0 -33 14q-14 14 -14 38t14 38t32 14t34 -14q14 -14 14 -37t-14 -38t-33 -15z" />
    <glyph glyph-name="edotaccent" unicode="&#x117;" horiz-adv-x="1138" 
d="M1012 481h-840q0 -188 111 -328q111 -141 321 -141t338 172l33 -28q-141 -184 -365 -184t-353 142q-130 144 -130 362t129 356q128 138 328 139q200 0 314 -134t114 -317v-39zM174 520h795q-4 184 -113 298t-283 114q-100 0 -181 -44q-136 -74 -194 -243
q-24 -68 -24 -125zM586 1296q-18 0 -32 14t-15 39q0 23 14 37q15 14 33 14t32 -14t14 -36t-14 -38t-32 -16z" />
    <glyph glyph-name="Eogonek" unicode="&#x118;" horiz-adv-x="1208" 
d="M217 0v1450h844v-41h-801v-637h754v-41h-754v-690h834v-41h-29q-107 -106 -149 -166t-42 -122t36 -97t110 -35t129 60l20 -33q-70 -63 -156 -63q-87 0 -135 43q-48 45 -48 107t29 118q30 56 63 91q33 36 96 97h-801z" />
    <glyph glyph-name="eogonek" unicode="&#x119;" horiz-adv-x="1138" 
d="M127 476q0 218 129 356q128 138 328 139q200 0 314 -134t114 -317v-39h-840q0 -188 111 -328q111 -141 321 -141t338 172l33 -28q-109 -139 -275 -174q-94 -94 -133 -152t-39 -118q0 -62 36 -97t110 -35t129 60l20 -33q-70 -63 -156 -63t-135 43q-49 44 -49 120
q0 115 160 266l-47 -2q-209 -1 -339 143t-130 362zM174 520h795q-4 184 -113 298t-283 114q-100 0 -181 -44q-136 -74 -194 -243q-24 -68 -24 -125z" />
    <glyph glyph-name="Ecaron" unicode="&#x11a;" horiz-adv-x="1208" 
d="M1094 0h-877v1450h844v-41h-801v-637h754v-41h-754v-690h834v-41zM674 1565h-58l-210 295h47l192 -271l193 271h47z" />
    <glyph glyph-name="ecaron" unicode="&#x11b;" horiz-adv-x="1138" 
d="M1012 481h-840q0 -188 111 -328q111 -141 321 -141t338 172l33 -28q-141 -184 -365 -184t-353 142q-130 144 -130 362t129 356q128 138 328 139q200 0 314 -134t114 -317v-39zM174 520h795q-4 184 -113 298t-283 114q-100 0 -181 -44q-136 -74 -194 -243
q-24 -68 -24 -125zM612 1155h-57l-211 295h47l193 -270l192 270h47z" />
    <glyph glyph-name="Gcircumflex" unicode="&#x11c;" horiz-adv-x="1628" 
d="M1432 717v-633q-225 -125 -521 -125q-340 0 -552 219t-212 551t211 547t545 215q287 0 488 -168l-33 -33q-78 76 -205 118t-252 42q-315 0 -512 -208t-197 -516t198 -517q196 -209 525 -209q252 0 474 109v569h-377v39h420zM862 1860h58l210 -295h-47l-192 270l-193 -270
h-47z" />
    <glyph glyph-name="gcircumflex" unicode="&#x11d;" horiz-adv-x="1282" 
d="M1028 57v197h-6q-51 -133 -168 -208t-256 -75q-205 -1 -338 141t-133 357t133 358t338 144q139 0 252 -74t172 -211h6v256h45v-889q0 -163 -41 -283q-40 -120 -148 -201t-276 -81q-262 0 -415 176l30 31q150 -168 387 -168t332 166q86 149 86 364zM1030 470
q0 192 -124 326q-124 136 -311 136t-305 -136t-118 -328t118 -326t305 -134t311 135t124 327zM600 1450h57l211 -295h-47l-192 270l-193 -270h-47z" />
    <glyph glyph-name="Gbreve" unicode="&#x11e;" horiz-adv-x="1628" 
d="M1432 717v-633q-225 -125 -521 -125q-340 0 -552 219t-212 551t211 547t545 215q287 0 488 -168l-33 -33q-78 76 -205 118t-252 42q-315 0 -512 -208t-197 -516t198 -517q196 -209 525 -209q252 0 474 109v569h-377v39h420zM895 1581q-102 0 -171 68t-85 190h39
q20 -105 76 -161t144 -56q87 0 140 51t78 166h37q-20 -123 -88 -191t-170 -67z" />
    <glyph glyph-name="gbreve" unicode="&#x11f;" horiz-adv-x="1282" 
d="M1028 57v197h-6q-51 -133 -168 -208t-256 -75q-205 -1 -338 141t-133 357t133 358t338 144q139 0 252 -74t172 -211h6v256h45v-889q0 -163 -41 -283q-40 -120 -148 -201t-276 -81q-262 0 -415 176l30 31q150 -168 387 -168t332 166q86 149 86 364zM1030 470
q0 192 -124 326q-124 136 -311 136t-305 -136t-118 -328t118 -326t305 -134t311 135t124 327zM625 1171q-102 0 -171 68t-85 191h39q20 -104 76 -160t144 -58q88 0 140 52q53 52 78 166h37q-20 -123 -88 -191t-170 -68z" />
    <glyph glyph-name="Gdotaccent" unicode="&#x120;" horiz-adv-x="1628" 
d="M1432 717v-633q-225 -125 -521 -125q-340 0 -552 219t-212 551t211 547t545 215q287 0 488 -168l-33 -33q-78 76 -205 118t-252 42q-315 0 -512 -208t-197 -516t198 -517q196 -209 525 -209q252 0 474 109v569h-377v39h420zM889 1706q-18 0 -33 14q-14 14 -14 38t14 38
t32 14t34 -14q14 -14 14 -37t-14 -38t-33 -15z" />
    <glyph glyph-name="gdotaccent" unicode="&#x121;" horiz-adv-x="1282" 
d="M1028 57v197h-6q-51 -133 -168 -208t-256 -75q-205 -1 -338 141t-133 357t133 358t338 144q139 0 252 -74t172 -211h6v256h45v-889q0 -163 -41 -283q-40 -120 -148 -201t-276 -81q-262 0 -415 176l30 31q150 -168 387 -168t332 166q86 149 86 364zM1030 470
q0 192 -124 326q-124 136 -311 136t-305 -136t-118 -328t118 -326t305 -134t311 135t124 327zM623 1296q-19 0 -33 14t-14 39q0 23 14 37t32 14t33 -14t15 -36t-14 -38t-33 -16z" />
    <glyph glyph-name="Gcommaaccent" unicode="&#x122;" horiz-adv-x="1628" 
d="M1432 717v-633q-225 -125 -521 -125q-340 0 -552 219t-212 551t211 547t545 215q287 0 488 -168l-33 -33q-78 76 -205 118t-252 42q-315 0 -512 -208t-197 -516t198 -517q196 -209 525 -209q252 0 474 109v569h-377v39h420zM944 -92l-119 -379h-34l104 379h49z" />
    <glyph glyph-name="gcommaaccent" unicode="&#x123;" horiz-adv-x="1282" 
d="M1028 57v197h-6q-51 -133 -168 -208t-256 -75q-205 -1 -338 141t-133 357t133 358t338 144q139 0 252 -74t172 -211h6v256h45v-889q0 -163 -41 -283q-40 -120 -148 -201t-276 -81q-262 0 -415 176l30 31q150 -168 387 -168t332 166q86 149 86 364zM1030 470
q0 192 -124 326q-124 136 -311 136t-305 -136t-118 -328t118 -326t305 -134t311 135t124 327zM567 1155l119 379h35l-105 -379h-49z" />
    <glyph glyph-name="Hcircumflex" unicode="&#x124;" horiz-adv-x="1499" 
d="M1282 0h-45v729h-975v-729h-45v1450h45v-680h975v680h45v-1450zM723 1860h57l211 -295h-47l-192 270l-193 -270h-47z" />
    <glyph glyph-name="hcircumflex" unicode="&#x125;" horiz-adv-x="1165" 
d="M254 694h4q41 127 143 202t228 75q180 0 260 -116t80 -286v-569h-45v565q0 131 -58 240q-31 57 -92 92t-145 35q-160 0 -268 -126t-107 -335v-471h-45v1548h45v-854zM553 1925h57l211 -295h-47l-192 271l-193 -271h-47z" />
    <glyph glyph-name="Hbar" unicode="&#x126;" horiz-adv-x="1499" 
d="M1282 0h-45v729h-975v-729h-45v1450h45v-389h975v389h45v-1450zM262 770h975v254h-975v-254z" />
    <glyph glyph-name="hbar" unicode="&#x127;" horiz-adv-x="1165" 
d="M254 694h4q41 127 143 202t228 75q180 0 260 -116t80 -286v-569h-45v565q0 131 -58 240q-31 57 -92 92t-145 35q-160 0 -268 -126t-107 -335v-471h-45v1167h-148v37h148v344h45v-344h432v-37h-432v-473z" />
    <glyph glyph-name="Itilde" unicode="&#x128;" horiz-adv-x="479" 
d="M262 0h-45v1450h45v-1450zM369 1667q66 0 82 98h32q-14 -137 -114 -137q-51 0 -132 49t-120 49q-68 0 -82 -104h-33q8 70 40 107t79 37t126 -50q79 -49 122 -49z" />
    <glyph glyph-name="itilde" unicode="&#x129;" horiz-adv-x="462" 
d="M254 0h-45v942h45v-942zM360 1219q-51 0 -132 49t-119 49q-68 0 -82 -105h-33q8 70 40 107t79 37t126 -49t121 -50q66 0 82 99h33q-14 -137 -115 -137z" />
    <glyph glyph-name="Imacron" unicode="&#x12a;" horiz-adv-x="479" 
d="M262 0h-45v1450h45v-1450zM479 1681h-475v41h475v-41z" />
    <glyph glyph-name="imacron" unicode="&#x12b;" horiz-adv-x="462" 
d="M254 0h-45v942h45v-942zM471 1272h-475v41h475v-41z" />
    <glyph glyph-name="Ibreve" unicode="&#x12c;" horiz-adv-x="479" 
d="M262 0h-45v1450h45v-1450zM244 1645q88 0 141 51t78 166h37q-20 -123 -88 -191q-68 -67 -170 -67t-171 68t-85 190h39q20 -104 76 -160q55 -56 143 -57z" />
    <glyph glyph-name="ibreve" unicode="&#x12d;" horiz-adv-x="462" 
d="M236 1139q87 0 141 51q53 51 78 166h37q-20 -123 -88 -191q-68 -67 -171 -67q-102 0 -171 68t-85 190h39q20 -104 76 -160t144 -57zM254 0h-45v942h45v-942z" />
    <glyph glyph-name="Iogonek" unicode="&#x12e;" horiz-adv-x="479" 
d="M27 -306q-1 62 29 118t63 91q33 36 96 97h2v1450h45v-1450q-106 -106 -148 -166t-42 -122t36 -97t110 -35t128 60l21 -33q-70 -63 -156 -63t-135 43q-49 45 -49 107z" />
    <glyph glyph-name="iogonek" unicode="&#x12f;" horiz-adv-x="462" 
d="M209 942h45v-942h2q-106 -106 -148 -166t-42 -122t36 -97t109 -35q74 0 129 60l20 -33q-70 -63 -156 -63t-134 43q-50 45 -50 107t30 118t63 91q33 36 96 97v942zM231 1296q-18 0 -32 14q-15 14 -15 39q0 23 14 37q34 31 66 0q14 -14 14 -36t-14 -38q-15 -16 -33 -16z
" />
    <glyph glyph-name="Idotaccent" unicode="&#x130;" horiz-adv-x="479" 
d="M262 0h-45v1450h45v-1450zM240 1706q-18 0 -33 14q-14 14 -14 38t14 38q15 14 33 14t32 -14t14 -37t-14 -38t-32 -15z" />
    <glyph glyph-name="dotlessi" unicode="&#x131;" horiz-adv-x="462" 
d="M254 0h-45v942h45v-942z" />
    <glyph glyph-name="IJ" unicode="&#x132;" horiz-adv-x="1447" 
d="M262 0h-45v1450h45v-1450zM1239 1450v-1055q0 -205 -94 -319t-277 -113q-123 0 -215 65t-129 162l39 19q43 -93 123 -149t182 -56q168 0 247 108t79 289v1049h45z" />
    <glyph glyph-name="ij" unicode="&#x133;" horiz-adv-x="931" 
d="M231 1296q-18 0 -32 14q-15 14 -15 39q0 23 14 37q34 31 66 0q14 -14 14 -36t-14 -38q-15 -16 -33 -16zM254 0h-45v942h45v-942zM723 942v-1141q0 -155 -48 -225t-181 -70q-43 0 -60 7l8 38q29 -6 71 -6q42 1 82 21q83 43 83 231v1145h45zM700 1296q-18 0 -32 14t-14 39
q0 23 14 37q34 31 65 0q15 -14 15 -36t-15 -38t-33 -16z" />
    <glyph glyph-name="Jcircumflex" unicode="&#x134;" horiz-adv-x="983" 
d="M774 1450v-1055q0 -205 -94 -319t-277 -113q-123 0 -215 65t-129 162l39 19q43 -93 123 -149t182 -56q168 0 247 108t79 289v1049h45zM719 1860h57l211 -295h-47l-192 270l-193 -270h-47z" />
    <glyph glyph-name="jcircumflex" unicode="&#x135;" horiz-adv-x="462" 
d="M254 942v-1141q0 -155 -48 -225t-181 -70q-43 0 -60 7l8 38q29 -6 71 -6q42 1 82 21q83 43 83 231v1145h45zM199 1450h57l211 -295h-47l-193 270l-192 -270h-47z" />
    <glyph glyph-name="Kcommaaccent" unicode="&#x136;" horiz-adv-x="1157" 
d="M262 784h2l729 666h66l-737 -666l774 -784h-64l-768 780h-2v-780h-45v1450h45v-666zM662 -92l-119 -379h-35l104 379h50z" />
    <glyph glyph-name="kcommaaccent" unicode="&#x137;" horiz-adv-x="911" 
d="M254 508h2l487 434h64l-498 -436l555 -506h-67l-541 498h-2v-498h-45v1548h45v-1040zM545 -92l-119 -379h-35l105 379h49z" />
    <glyph glyph-name="Lacute" unicode="&#x139;" horiz-adv-x="1019" 
d="M983 0h-766v1450h45v-1409h721v-41zM483 1860l-227 -295h-39l211 295h55z" />
    <glyph glyph-name="lacute" unicode="&#x13a;" horiz-adv-x="462" 
d="M254 0h-45v1548h45v-1548zM475 1917l-227 -295h-39l211 295h55z" />
    <glyph glyph-name="Lcommaaccent" unicode="&#x13b;" horiz-adv-x="1019" 
d="M983 0h-766v1450h45v-1409h721v-41zM631 -92l-119 -379h-35l105 379h49z" />
    <glyph glyph-name="lcommaaccent" unicode="&#x13c;" horiz-adv-x="462" 
d="M254 0h-45v1548h45v-1548zM287 -94l-119 -379h-35l105 379h49z" />
    <glyph glyph-name="Lcaron" unicode="&#x13d;" horiz-adv-x="1019" 
d="M983 0h-766v1450h45v-1409h721v-41zM582 1450l-119 -379h-35l104 379h50z" />
    <glyph glyph-name="lcaron" unicode="&#x13e;" horiz-adv-x="462" 
d="M254 0h-45v1548h45v-1548zM520 1450l-119 -379h-34l104 379h49z" />
    <glyph glyph-name="Ldot" unicode="&#x13f;" horiz-adv-x="1019" 
d="M983 0h-766v1450h45v-1409h721v-41zM752 559q-18 0 -33 14q-14 14 -14 38t14 38q15 15 33 15t32 -14t14 -38q0 -23 -14 -38t-32 -15z" />
    <glyph glyph-name="ldot" unicode="&#x140;" horiz-adv-x="462" 
d="M254 0h-45v1548h45v-1548zM459 559q-18 0 -33 14q-14 14 -14 38t14 38q33 33 66 0q14 -14 14 -37t-14 -38t-33 -15z" />
    <glyph glyph-name="Lslash" unicode="&#x141;" horiz-adv-x="1019" 
d="M217 1450h45v-832l424 381v-49l-424 -387v-522h721v-41h-766v528l-133 -122v55l133 123v866z" />
    <glyph glyph-name="lslash" unicode="&#x142;" horiz-adv-x="462" 
d="M217 1548h45v-717l150 130v-50l-150 -135v-776h-45v741l-133 -123v56l133 123v751z" />
    <glyph glyph-name="Nacute" unicode="&#x143;" horiz-adv-x="1591" 
d="M1374 0h-65l-1041 1393h-6v-1393h-45v1450h64l1042 -1391h6v1391h45v-1450zM1018 1860l-227 -295h-39l211 295h55z" />
    <glyph glyph-name="nacute" unicode="&#x144;" horiz-adv-x="1171" 
d="M258 694h4q42 127 146 202t227 75q180 0 260 -116t80 -286v-569h-45v565q0 131 -58 240q-31 57 -92 92t-145 35q-159 0 -267 -126t-108 -335v-471h-45v705q0 150 -10 237h45q8 -68 8 -248zM809 1450l-227 -295h-39l211 295h55z" />
    <glyph glyph-name="Ncommaaccent" unicode="&#x145;" horiz-adv-x="1591" 
d="M1374 0h-65l-1041 1393h-6v-1393h-45v1450h64l1042 -1391h6v1391h45v-1450zM823 -92l-118 -379h-35l104 379h49z" />
    <glyph glyph-name="ncommaaccent" unicode="&#x146;" horiz-adv-x="1171" 
d="M258 694h4q42 127 146 202t227 75q180 0 260 -116t80 -286v-569h-45v565q0 131 -58 240q-31 57 -92 92t-145 35q-159 0 -267 -126t-108 -335v-471h-45v705q0 150 -10 237h45q8 -68 8 -248zM645 -92l-119 -379h-34l104 379h49z" />
    <glyph glyph-name="Ncaron" unicode="&#x147;" horiz-adv-x="1591" 
d="M1374 0h-65l-1041 1393h-6v-1393h-45v1450h64l1042 -1391h6v1391h45v-1450zM823 1565h-57l-211 295h47l193 -271l192 271h47z" />
    <glyph glyph-name="ncaron" unicode="&#x148;" horiz-adv-x="1171" 
d="M258 694h4q42 127 146 202t227 75q180 0 260 -116t80 -286v-569h-45v565q0 131 -58 240q-31 57 -92 92t-145 35q-159 0 -267 -126t-108 -335v-471h-45v705q0 150 -10 237h45q8 -68 8 -248zM629 1155h-58l-211 295h48l192 -270l193 270h47z" />
    <glyph glyph-name="napostrophe" unicode="&#x149;" horiz-adv-x="1171" 
d="M258 694h4q42 127 146 202t227 75q180 0 260 -116t80 -286v-569h-45v565q0 131 -58 240q-31 57 -92 92t-145 35q-159 0 -267 -126t-108 -335v-471h-45v705q0 150 -10 237h45q8 -68 8 -248zM272 1450l-118 -379h-35l104 379h49z" />
    <glyph glyph-name="Omacron" unicode="&#x14c;" horiz-adv-x="1785" 
d="M1638 725q0 -334 -212 -550t-534 -216t-533 216q-212 216 -212 550t211 550t535 216q325 0 535 -216t210 -550zM1593 725q0 307 -197 516q-198 209 -503 209t-503 -209t-198 -516t196 -516t505 -209t505 209q195 209 195 516zM1135 1681h-476v41h476v-41z" />
    <glyph glyph-name="omacron" unicode="&#x14d;" horiz-adv-x="1239" 
d="M1112 472q0 -220 -138 -360t-356 -140t-354 140q-137 140 -137 360t137 359t354 139q218 0 356 -138q138 -140 138 -360zM1067 473q0 197 -123 328t-326 131q-202 0 -324 -131t-122 -328t122 -330t324 -133t326 133q123 133 123 330zM854 1272h-475v41h475v-41z" />
    <glyph glyph-name="Obreve" unicode="&#x14e;" horiz-adv-x="1785" 
d="M1638 725q0 -334 -212 -550t-534 -216t-533 216q-212 216 -212 550t211 550t535 216q325 0 535 -216t210 -550zM1593 725q0 307 -197 516q-198 209 -503 209t-503 -209t-198 -516t196 -516t505 -209t505 209q195 209 195 516zM891 1581q-102 0 -171 68t-85 190h39
q20 -105 76 -161t144 -56q87 0 140 51t78 166h37q-20 -123 -88 -191t-170 -67z" />
    <glyph glyph-name="obreve" unicode="&#x14f;" horiz-adv-x="1239" 
d="M1112 472q0 -220 -138 -360t-356 -140t-354 140q-137 140 -137 360t137 359t354 139q218 0 356 -138q138 -140 138 -360zM1067 473q0 197 -123 328t-326 131q-202 0 -324 -131t-122 -328t122 -330t324 -133t326 133q123 133 123 330zM618 1171q-102 0 -171 68t-85 191h39
q21 -104 77 -160t143 -58q87 0 141 52t78 166h37q-21 -123 -89 -191t-170 -68z" />
    <glyph glyph-name="Ohungarumlaut" unicode="&#x150;" horiz-adv-x="1785" 
d="M1638 725q0 -334 -212 -550t-534 -216t-533 216q-212 216 -212 550t211 550t535 216q325 0 535 -216t210 -550zM1593 725q0 307 -197 516q-198 209 -503 209t-503 -209t-198 -516t196 -516t505 -209t505 209q195 209 195 516zM1014 1860l-228 -297h-38l210 297h56z
M1253 1860l-227 -297h-39l211 297h55z" />
    <glyph glyph-name="ohungarumlaut" unicode="&#x151;" horiz-adv-x="1239" 
d="M1112 472q0 -220 -138 -360t-356 -140t-354 140q-137 140 -137 360t137 359t354 139q218 0 356 -138q138 -140 138 -360zM1067 473q0 197 -123 328t-326 131q-202 0 -324 -131t-122 -328t122 -330t324 -133t326 133q123 133 123 330zM735 1450l-227 -297h-39l211 297h55z
M975 1450l-227 -297h-39l211 297h55z" />
    <glyph glyph-name="OE" unicode="&#x152;" horiz-adv-x="2002" 
d="M1090 1409h-132q-342 0 -552 -171t-211 -513q0 -233 103 -390q193 -294 660 -294h132v1368zM1888 0h-940q-358 0 -579 182t-221 542t222 542q222 184 578 184h907v-41h-722v-637h677v-41h-677v-690h755v-41z" />
    <glyph glyph-name="oe" unicode="&#x153;" horiz-adv-x="2072" 
d="M1509 971q209 0 323 -134t114 -317v-39h-838q0 -188 110 -328q110 -141 320 -141t338 172l33 -28q-141 -184 -379 -185q-164 0 -281 89t-162 243q-47 -154 -172 -243t-297 -89q-217 1 -354 141t-137 360t137 359t354 140q170 0 295 -87t172 -237q45 147 159 235t265 89z
M1110 520h793q-4 184 -113 298t-283 114q-100 0 -181 -44q-133 -73 -192 -243q-24 -68 -24 -125zM1065 473q0 197 -122 328t-325 131q-202 0 -324 -131t-122 -328t122 -330t324 -133t325 133q122 133 122 330z" />
    <glyph glyph-name="Racute" unicode="&#x154;" horiz-adv-x="1216" 
d="M262 731v-731h-45v1450h401q455 0 455 -358q0 -264 -275 -339q-71 -19 -147 -20l441 -733h-52l-438 731h-340zM1028 1092q0 319 -434 319h-332v-641h354q201 0 307 84q105 84 105 238zM756 1860l-228 -295h-39l211 295h56z" />
    <glyph glyph-name="racute" unicode="&#x155;" horiz-adv-x="649" 
d="M258 694h4q39 139 126 208t200 69q23 0 37 -2v-39q-10 2 -27 2q-114 0 -192 -70q-146 -131 -146 -375v-487h-45v705q0 150 -10 237h45q8 -68 8 -248zM522 1450l-227 -295h-39l211 295h55z" />
    <glyph glyph-name="Rcommaaccent" unicode="&#x156;" horiz-adv-x="1216" 
d="M262 731v-731h-45v1450h401q455 0 455 -358q0 -264 -275 -339q-71 -19 -147 -20l441 -733h-52l-438 731h-340zM1028 1092q0 319 -434 319h-332v-641h354q201 0 307 84q105 84 105 238zM659 -92l-118 -379h-35l104 379h49z" />
    <glyph glyph-name="rcommaaccent" unicode="&#x157;" horiz-adv-x="649" 
d="M258 694h4q39 139 126 208t200 69q23 0 37 -2v-39q-10 2 -27 2q-114 0 -192 -70q-146 -131 -146 -375v-487h-45v705q0 150 -10 237h45q8 -68 8 -248zM293 -94l-119 -379h-35l105 379h49z" />
    <glyph glyph-name="Rcaron" unicode="&#x158;" horiz-adv-x="1216" 
d="M262 731v-731h-45v1450h401q455 0 455 -358q0 -264 -275 -339q-71 -19 -147 -20l441 -733h-52l-438 731h-340zM1028 1092q0 319 -434 319h-332v-641h354q201 0 307 84q105 84 105 238zM580 1565h-58l-211 295h47l193 -271l192 271h48z" />
    <glyph glyph-name="rcaron" unicode="&#x159;" horiz-adv-x="649" 
d="M258 694h4q39 139 126 208t200 69q23 0 37 -2v-39q-10 2 -27 2q-114 0 -192 -70q-146 -131 -146 -375v-487h-45v705q0 150 -10 237h45q8 -68 8 -248zM426 1155h-57l-211 295h47l192 -270l193 270h47z" />
    <glyph glyph-name="Sacute" unicode="&#x15a;" horiz-adv-x="1167" 
d="M893 64q-127 -104 -313 -105q-270 0 -433 178l35 31q156 -168 396 -168q168 0 282 94t115 263q0 169 -174 261q-93 51 -261 103q-167 52 -267 136q-99 85 -99 257t129 274t318 103q242 0 372 -162l-35 -31q-119 152 -340 152q-160 0 -280 -88t-119 -249q0 -161 116 -245
q95 -67 245 -114q90 -30 142 -50t117 -56q181 -100 181 -290t-127 -294zM805 1860l-227 -295h-39l211 295h55z" />
    <glyph glyph-name="sacute" unicode="&#x15b;" horiz-adv-x="849" 
d="M739 242q0 -119 -88 -193t-219 -74q-219 0 -330 158l37 25q100 -143 295 -144q100 0 180 62t80 166q0 64 -19 90t-31 42t-36 28q-25 14 -39 22t-46 18t-46 15q-15 5 -113 31t-160 77t-62 165t85 177q86 63 203 64q195 0 289 -137l-39 -23q-94 121 -250 121
q-94 0 -169 -49t-75 -152q0 -57 17 -95q27 -62 137 -98q32 -10 140 -38q108 -27 184 -83t75 -175zM631 1450l-228 -295h-38l210 295h56z" />
    <glyph glyph-name="Scircumflex" unicode="&#x15c;" horiz-adv-x="1167" 
d="M893 64q-127 -104 -313 -105q-270 0 -433 178l35 31q156 -168 396 -168q168 0 282 94t115 263q0 169 -174 261q-93 51 -261 103q-167 52 -267 136q-99 85 -99 257t129 274t318 103q242 0 372 -162l-35 -31q-119 152 -340 152q-160 0 -280 -88t-119 -249q0 -161 116 -245
q95 -67 245 -114q90 -30 142 -50t117 -56q181 -100 181 -290t-127 -294zM590 1860h57l211 -295h-47l-193 270l-192 -270h-47z" />
    <glyph glyph-name="scircumflex" unicode="&#x15d;" horiz-adv-x="849" 
d="M739 242q0 -119 -88 -193t-219 -74q-219 0 -330 158l37 25q100 -143 295 -144q100 0 180 62t80 166q0 64 -19 90t-31 42t-36 28q-25 14 -39 22t-46 18t-46 15q-15 5 -113 31t-160 77t-62 165t85 177q86 63 203 64q195 0 289 -137l-39 -23q-94 121 -250 121
q-94 0 -169 -49t-75 -152q0 -57 17 -95q27 -62 137 -98q32 -10 140 -38q108 -27 184 -83t75 -175zM410 1450h57l211 -295h-47l-193 270l-192 -270h-47z" />
    <glyph glyph-name="Scedilla" unicode="&#x15e;" horiz-adv-x="1167" 
d="M612 -160q68 0 121 -32t53 -114q0 -81 -72 -119t-160 -38q-89 0 -181 41l10 35q72 -37 176 -37q184 0 184 125q0 104 -147 104q-86 0 -141 -30l-21 18l113 168q-256 12 -400 176l35 31q156 -168 396 -168q168 0 282 94t115 263q0 169 -174 261q-93 51 -261 103
q-167 52 -267 136q-99 85 -99 257t129 274t318 103q242 0 372 -162l-35 -31q-119 152 -340 152q-160 0 -280 -88t-119 -249q0 -161 116 -245q95 -67 245 -114q90 -30 142 -50t117 -56q181 -100 181 -289t-123 -292t-307 -108l-92 -135q46 16 114 16z" />
    <glyph glyph-name="scedilla" unicode="&#x15f;" horiz-adv-x="849" 
d="M460 -160q69 0 122 -32t53 -114q0 -81 -72 -119q-73 -38 -161 -38t-181 41l10 35q72 -37 177 -37q184 0 184 125q0 104 -148 104q-86 0 -141 -30l-20 18l123 182q-193 8 -304 158l37 25q100 -143 295 -144q100 0 180 62t80 166q0 64 -19 90t-31 42t-36 28q-25 14 -39 22
t-46 18t-46 15q-15 5 -113 31t-160 77t-62 165t85 177q86 63 203 64q195 0 289 -137l-39 -23q-94 121 -250 121q-94 0 -169 -49t-75 -152q0 -57 16 -95t61 -63q44 -25 77 -35q32 -10 140 -38q108 -27 184 -83t76 -172t-85 -191q-84 -75 -206 -79l-103 -151q45 16 114 16z
" />
    <glyph glyph-name="Scaron" unicode="&#x160;" horiz-adv-x="1167" 
d="M893 64q-127 -104 -313 -105q-270 0 -433 178l35 31q156 -168 396 -168q168 0 282 94t115 263q0 169 -174 261q-93 51 -261 103q-167 52 -267 136q-99 85 -99 257t129 274t318 103q242 0 372 -162l-35 -31q-119 152 -340 152q-160 0 -280 -88t-119 -249q0 -161 116 -245
q95 -67 245 -114q90 -30 142 -50t117 -56q181 -100 181 -290t-127 -294zM641 1565h-57l-211 295h47l192 -271l193 271h47z" />
    <glyph glyph-name="scaron" unicode="&#x161;" horiz-adv-x="849" 
d="M739 242q0 -119 -88 -193t-219 -74q-219 0 -330 158l37 25q100 -143 295 -144q100 0 180 62t80 166q0 64 -19 90t-31 42t-36 28q-25 14 -39 22t-46 18t-46 15q-15 5 -113 31t-160 77t-62 165t85 177q86 63 203 64q195 0 289 -137l-39 -23q-94 121 -250 121
q-94 0 -169 -49t-75 -152q0 -57 17 -95q27 -62 137 -98q32 -10 140 -38q108 -27 184 -83t75 -175zM467 1155h-57l-211 295h47l192 -270l193 270h47z" />
    <glyph glyph-name="Tcommaaccent" unicode="&#x162;" horiz-adv-x="1105" 
d="M1069 1409h-494v-1409h-2l-120 -176q45 16 113 16t122 -33q53 -33 53 -113q1 -80 -71 -119q-72 -38 -161 -38t-181 41l10 35q72 -37 176 -37q184 0 184 125q0 104 -147 104q-86 0 -141 -30l-21 18l141 207v1409h-493v41h1032v-41z" />
    <glyph glyph-name="tcommaaccent" unicode="&#x163;" horiz-adv-x="622" 
d="M453 -25q-5 0 -11 1l-104 -152q45 16 114 16q70 0 122 -33t52 -113t-71 -119q-72 -38 -161 -38t-181 41l10 35q72 -37 176 -37q184 0 185 125q0 104 -148 104q-86 0 -141 -30l-21 18l128 186q-68 11 -112 63t-44 153v708h-205v39h203v277h47v-277h276v-39h-276v-708
q0 -180 172 -181q57 1 104 19l6 -35q-51 -23 -120 -23z" />
    <glyph glyph-name="Tcaron" unicode="&#x164;" horiz-adv-x="1105" 
d="M1069 1409h-494v-1409h-45v1409h-493v41h1032v-41zM582 1565h-58l-211 295h47l193 -271l192 271h48z" />
    <glyph glyph-name="tcaron" unicode="&#x165;" horiz-adv-x="622" 
d="M436 -25q-86 -1 -138 59t-52 161v708h-205v39h203v277h47v-277h276v-39h-276v-708q0 -180 172 -181q57 1 104 19l6 -35q-51 -23 -137 -23zM625 1497l-119 -379h-35l104 379h50z" />
    <glyph glyph-name="Tbar" unicode="&#x166;" horiz-adv-x="1105" 
d="M983 1079h-408v-1079h-45v1079h-407v37h407v293h-493v41h1032v-41h-494v-293h408v-37z" />
    <glyph glyph-name="tbar" unicode="&#x167;" horiz-adv-x="622" 
d="M537 530h-246v-335q0 -180 172 -181q57 0 104 19l6 -35q-51 -23 -137 -23q-86 -1 -138 59t-52 161v335h-189v37h189v336h-205v39h203v277h47v-277h276v-39h-276v-336h246v-37z" />
    <glyph glyph-name="Utilde" unicode="&#x168;" horiz-adv-x="1499" 
d="M1303 1450v-901q-1 -268 -133 -429t-420 -161t-421 161q-132 161 -132 429v901h45v-893q0 -167 43 -270t96 -158t147 -92t220 -37t220 36q93 36 147 91q142 145 142 430v893h46zM879 1667q68 0 82 98h32q-14 -137 -114 -137q-51 0 -132 49t-120 49q-66 0 -82 -104h-33
q8 70 40 107t79 37t126 -50q79 -49 122 -49z" />
    <glyph glyph-name="utilde" unicode="&#x169;" horiz-adv-x="1171" 
d="M909 248h-4q-45 -129 -146 -203t-227 -74q-180 0 -260 116t-79 286v569h45v-565q0 -133 57 -240q31 -57 92 -92t145 -35q160 0 268 126t107 335v471h45v-704q0 -150 11 -238h-45q-9 68 -9 248zM705 1219q-51 0 -133 49t-119 49q-68 0 -82 -105h-33q8 70 40 107t79 37
t126 -49t122 -50q68 0 81 99h33q-14 -137 -114 -137z" />
    <glyph glyph-name="Umacron" unicode="&#x16a;" horiz-adv-x="1499" 
d="M1303 1450v-901q-1 -268 -133 -429t-420 -161t-421 161q-132 161 -132 429v901h45v-893q0 -167 43 -270t96 -158t147 -92t220 -37t220 36q93 36 147 91q142 145 142 430v893h46zM989 1681h-475v41h475v-41z" />
    <glyph glyph-name="umacron" unicode="&#x16b;" horiz-adv-x="1171" 
d="M909 248h-4q-45 -129 -146 -203t-227 -74q-180 0 -260 116t-79 286v569h45v-565q0 -133 57 -240q31 -57 92 -92t145 -35q160 0 268 126t107 335v471h45v-704q0 -150 11 -238h-45q-9 68 -9 248zM813 1272h-475v41h475v-41z" />
    <glyph glyph-name="Ubreve" unicode="&#x16c;" horiz-adv-x="1499" 
d="M1303 1450v-901q-1 -268 -133 -429t-420 -161t-421 161q-132 161 -132 429v901h45v-893q0 -167 43 -270t96 -158t147 -92t220 -37t220 36q93 36 147 91q142 145 142 430v893h46zM752 1581q-102 0 -171 68t-85 190h39q20 -105 76 -161q55 -56 143 -56t141 51t78 166h37
q-20 -123 -88 -191t-170 -67z" />
    <glyph glyph-name="ubreve" unicode="&#x16d;" horiz-adv-x="1171" 
d="M909 248h-4q-45 -129 -146 -203t-227 -74q-180 0 -260 116t-79 286v569h45v-565q0 -133 57 -240q31 -57 92 -92t145 -35q160 0 268 126t107 335v471h45v-704q0 -150 11 -238h-45q-9 68 -9 248zM573 1171q-102 0 -171 68t-85 191h39q20 -104 76 -160t144 -58q86 0 140 52
t79 166h36q-20 -123 -88 -191t-170 -68z" />
    <glyph glyph-name="Uring" unicode="&#x16e;" horiz-adv-x="1499" 
d="M1303 1450v-901q-1 -268 -133 -429t-420 -161t-421 161q-132 161 -132 429v901h45v-893q0 -167 43 -270t96 -158t147 -92t220 -37t220 36q93 36 147 91q142 145 142 430v893h46zM950 1740q0 -81 -58 -137q-58 -57 -138 -57t-138 56t-59 138q0 81 58 138q59 57 139 57
t138 -57t58 -138zM911 1741q0 67 -46 113q-45 46 -111 46t-112 -46q-46 -48 -46 -114t46 -112q46 -47 112 -47t112 47t45 113z" />
    <glyph glyph-name="uring" unicode="&#x16f;" horiz-adv-x="1171" 
d="M909 248h-4q-45 -129 -146 -203t-227 -74q-180 0 -260 116t-79 286v569h45v-565q0 -133 57 -240q31 -57 92 -92t145 -35q160 0 268 126t107 335v471h45v-704q0 -150 11 -238h-45q-9 68 -9 248zM772 1330q0 -81 -58 -137t-138 -56t-139 56q-58 56 -58 137t58 138
q58 58 138 58q81 0 139 -58t58 -138zM733 1331q0 66 -46 113t-112 47q-65 0 -111 -47t-46 -113q0 -67 46 -113t112 -46t111 46q46 47 46 113z" />
    <glyph glyph-name="Uhungarumlaut" unicode="&#x170;" horiz-adv-x="1499" 
d="M1303 1450v-901q-1 -268 -133 -429t-420 -161t-421 161q-132 161 -132 429v901h45v-893q0 -167 43 -270t96 -158t147 -92t220 -37t220 36q93 36 147 91q142 145 142 430v893h46zM868 1860l-227 -297h-39l211 297h55zM1108 1860l-227 -297h-39l211 297h55z" />
    <glyph glyph-name="uhungarumlaut" unicode="&#x171;" horiz-adv-x="1171" 
d="M909 248h-4q-45 -129 -146 -203t-227 -74q-180 0 -260 116t-79 286v569h45v-565q0 -133 57 -240q31 -57 92 -92t145 -35q160 0 268 126t107 335v471h45v-704q0 -150 11 -238h-45q-9 68 -9 248zM692 1450l-227 -297h-39l211 297h55zM932 1450l-227 -297h-39l211 297h55z
" />
    <glyph glyph-name="Uogonek" unicode="&#x172;" horiz-adv-x="1499" 
d="M641 -293q0 106 147 254q-14 -2 -38 -2q-289 0 -421 161t-132 429v901h45v-893q0 -167 43 -270t96 -158t147 -92t220 -37t220 36q93 36 147 91q142 145 142 430v893h46v-901q0 -158 -43 -279q-44 -120 -150 -204t-268 -101q-84 -84 -120 -139q-36 -56 -36 -116t36 -95
t110 -35t129 60l20 -33q-70 -63 -156 -63t-135 43q-49 44 -49 120z" />
    <glyph glyph-name="uogonek" unicode="&#x173;" horiz-adv-x="1171" 
d="M727 -306q0 106 92 209q33 36 96 97h3q-8 68 -9 248h-4q-45 -129 -146 -203t-227 -74q-180 0 -260 116t-79 286v569h45v-565q0 -133 57 -240q31 -57 92 -92t145 -35q160 0 268 126t107 335v471h45v-704q0 -150 11 -238q-107 -106 -149 -166t-42 -122t36 -97t110 -35
t129 60l20 -33q-70 -63 -156 -63t-135 43q-49 45 -49 107z" />
    <glyph glyph-name="Wcircumflex" unicode="&#x174;" horiz-adv-x="1957" 
d="M1901 1450l-435 -1450h-69l-420 1407h-4l-412 -1407h-69l-435 1450h47l418 -1409h6l412 1409h70l420 -1409h6l417 1409h48zM946 1860h58l210 -295h-47l-192 270l-193 -270h-47z" />
    <glyph glyph-name="wcircumflex" unicode="&#x175;" horiz-adv-x="1429" 
d="M1360 942l-277 -942h-61l-307 893h-4l-305 -893h-62l-274 942h47l258 -897h4l303 897h63l306 -897h4l258 897h47zM684 1450h57l211 -295h-47l-192 270l-193 -270h-47z" />
    <glyph glyph-name="Ycircumflex" unicode="&#x176;" horiz-adv-x="1101" 
d="M573 0h-45v635l-497 815h53l469 -770l467 770h51l-498 -815v-635zM524 1860h58l211 -295h-48l-192 270l-193 -270h-47z" />
    <glyph glyph-name="ycircumflex" unicode="&#x177;" horiz-adv-x="876" 
d="M827 942l-467 -1253q-68 -184 -227 -185q-45 0 -84 15l12 39q33 -12 93 -12q111 -1 178 182l90 245l-373 969h49l346 -917l334 917h49zM418 1450h57l211 -295h-47l-193 270l-192 -270h-47z" />
    <glyph glyph-name="Ydieresis" unicode="&#x178;" horiz-adv-x="1101" 
d="M573 0h-45v635l-497 815h53l469 -770l467 770h51l-498 -815v-635zM395 1706q-18 0 -33 14q-14 14 -14 38t14 38t32 14t34 -14q14 -14 14 -37t-14 -38t-33 -15zM711 1706q-18 0 -33 14q-14 14 -14 38t14 38t32 14t33 -14t15 -37t-14 -38t-33 -15z" />
    <glyph glyph-name="Zacute" unicode="&#x179;" horiz-adv-x="1216" 
d="M1130 0h-1019v55l954 1354h-928v41h969v-59l-952 -1350h976v-41zM838 1860l-228 -295h-39l211 295h56z" />
    <glyph glyph-name="zacute" unicode="&#x17a;" horiz-adv-x="897" 
d="M793 0h-693v43l623 860h-590v39h635v-45l-616 -858h641v-39zM670 1450l-228 -295h-39l211 295h56z" />
    <glyph glyph-name="Zdotaccent" unicode="&#x17b;" horiz-adv-x="1216" 
d="M1130 0h-1019v55l954 1354h-928v41h969v-59l-952 -1350h976v-41zM625 1706q-18 0 -33 14q-14 14 -14 38t14 38t32 14t33 -14t15 -37t-14 -38t-33 -15z" />
    <glyph glyph-name="zdotaccent" unicode="&#x17c;" horiz-adv-x="897" 
d="M793 0h-693v43l623 860h-590v39h635v-45l-616 -858h641v-39zM457 1296q-19 0 -33 14t-14 39q0 23 14 37t32 14t33 -14t15 -36t-14 -38t-33 -16z" />
    <glyph glyph-name="Zcaron" unicode="&#x17d;" horiz-adv-x="1216" 
d="M1130 0h-1019v55l954 1354h-928v41h969v-59l-952 -1350h976v-41zM649 1565h-57l-211 295h47l193 -271l192 271h47z" />
    <glyph glyph-name="zcaron" unicode="&#x17e;" horiz-adv-x="897" 
d="M793 0h-693v43l623 860h-590v39h635v-45l-616 -858h641v-39zM485 1155h-57l-211 295h47l193 -270l192 270h47z" />
    <glyph glyph-name="florin" unicode="&#x192;" horiz-adv-x="1146" 
d="M856 1436q-172 0 -215 -230l-68 -370h242v-39h-248l-151 -838q-23 -125 -78 -189q-54 -64 -150 -65q-96 0 -135 27l21 39q49 -25 98 -25q98 0 143 67t68 197l139 787h-227v39h233l64 354q50 285 246 285q106 0 153 -39l-24 -37q-43 37 -111 37z" />
    <glyph glyph-name="Ohorn" unicode="&#x1a0;" horiz-adv-x="1785" 
d="M1425 1309q-23 0 -36 2q249 -221 249 -571t-212 -565q-212 -216 -534 -216t-533 216q-212 216 -212 550t211 550t535 216q102 0 191 -23q90 -22 140 -48q141 -71 201 -70q168 0 168 147q0 61 -28 119l47 14q26 -55 26 -139t-56 -133t-157 -49zM193 725q-1 -307 195 -516
t505 -209t505 209t195 516q0 307 -197 516q-198 209 -503 209t-503 -209t-197 -516z" />
    <glyph glyph-name="ohorn" unicode="&#x1a1;" horiz-adv-x="1249" 
d="M1014 840q-43 0 -53 4q151 -140 151 -366t-138 -366t-356 -140t-354 140q-137 140 -137 360t137 359t354 140q109 0 224 -45t172 -45q168 0 168 147q0 61 -29 119l47 14q27 -55 27 -139q1 -84 -55 -133t-158 -49zM618 932q-202 0 -324 -131t-122 -328t122 -330t324 -133
t326 133q123 133 123 330t-123 328t-326 131z" />
    <glyph glyph-name="Uhorn" unicode="&#x1af;" horiz-adv-x="1499" 
d="M1303 1409v-860q-1 -268 -133 -429t-420 -161t-421 161q-132 161 -132 429v901h45v-893q0 -167 43 -270t96 -158t147 -92t220 -37t220 36q93 36 147 91q142 145 142 430v893h46q168 0 167 147q0 61 -28 119l47 15q27 -55 27 -139t-56 -134q-56 -49 -157 -49z" />
    <glyph glyph-name="uhorn" unicode="&#x1b0;" horiz-adv-x="1181" 
d="M909 248h-4q-45 -129 -146 -203t-227 -74q-180 0 -260 116t-79 286v569h45v-565q0 -133 57 -240q31 -57 92 -92t145 -35q160 0 268 126t107 335v471h45q168 0 168 148q0 61 -28 118l47 15q27 -55 27 -139t-56 -134q-55 -50 -158 -49v-663q0 -150 11 -238h-45
q-9 68 -9 248z" />
    <glyph glyph-name="clickdental" unicode="&#x1c0;" horiz-adv-x="454" 
d="M205 1536h45v-2048h-45v2048z" />
    <glyph glyph-name="clicklateral" unicode="&#x1c1;" horiz-adv-x="909" 
d="M659 1536h46v-2048h-46v2048zM205 1536h45v-2048h-45v2048z" />
    <glyph glyph-name="clickretroflex" unicode="&#x1c3;" horiz-adv-x="565" 
d="M283 92q18 0 32 -15q15 -15 15 -38t-14 -37t-33 -14q-18 0 -33 14q-14 14 -14 38t14 38q15 14 33 14zM305 1450v-1051h-45v1051h45z" />
    <glyph glyph-name="DZcaron" unicode="&#x1c4;" horiz-adv-x="3284" 
d="M2226 1604h-57l-211 294h47l193 -270l192 270h47zM2707 0h-1019v55l954 1354h-928v41h969v-59l-952 -1350h976v-41zM629 1450q357 0 579 -182t222 -542q0 -358 -222 -542t-579 -184h-412v1450h412zM618 1409h-354v-1368h354q342 0 553 171t211 513q0 233 -103 390
q-193 294 -661 294z" />
    <glyph glyph-name="Dzcaron" unicode="&#x1c5;" horiz-adv-x="2965" 
d="M2052 1098h-57l-211 295h47l192 -271l193 271h47zM2370 0h-693v43l623 860h-590v39h635v-45l-616 -858h641v-39zM629 1450q357 0 579 -182t222 -542q0 -358 -222 -542t-579 -184h-412v1450h412zM618 1409h-354v-1368h354q342 0 553 171t211 513q0 233 -103 390
q-193 294 -661 294z" />
    <glyph glyph-name="dzcaron" unicode="&#x1c6;" horiz-adv-x="2670" 
d="M1757 1098h-57l-211 295h47l193 -271l192 271h47zM2075 0h-693v43l623 860h-590v39h635v-45l-616 -858h641v-39zM1028 686v862h45v-1548h-45v254h-6q-59 -137 -172 -210t-252 -73q-205 -1 -338 141t-133 357t133 358t338 144q139 0 252 -74t172 -211h6zM1030 470
q0 190 -124 326t-311 136t-305 -136t-118 -328t118 -325t305 -133t311 135t124 325z" />
    <glyph glyph-name="LJ" unicode="&#x1c7;" horiz-adv-x="2002" 
d="M1794 1450v-1055q0 -205 -94 -319t-277 -113q-123 0 -215 65t-129 162l39 19q43 -93 123 -149t182 -56q168 0 247 108t79 289v1049h45zM983 0h-766v1450h45v-1409h721v-41z" />
    <glyph glyph-name="Lj" unicode="&#x1c8;" horiz-adv-x="1482" 
d="M1274 942v-1141q0 -155 -48 -225t-182 -70q-43 0 -59 7l8 38q27 -6 69 -6q42 1 84 21q84 42 83 231v1145h45zM1251 1296q-18 0 -32 14q-15 14 -15 39q0 23 14 37q34 31 66 0q14 -14 14 -36t-14 -38t-33 -16zM983 0h-766v1450h45v-1409h721v-41z" />
    <glyph glyph-name="lj" unicode="&#x1c9;" horiz-adv-x="925" 
d="M717 942v-1141q0 -155 -48 -225t-182 -70q-43 0 -59 7l8 38q28 -6 70 -6q42 1 82 21q84 42 84 231v1145h45zM694 1296q-18 0 -32 14t-14 39q0 23 14 37q34 31 65 0q14 -14 14 -36q-1 -22 -15 -38t-32 -16zM254 0h-45v1548h45v-1548z" />
    <glyph glyph-name="NJ" unicode="&#x1ca;" horiz-adv-x="2574" 
d="M2365 1450v-1055q0 -205 -94 -319t-276 -113q-123 0 -215 65t-129 162l39 19q43 -94 122 -150q80 -55 183 -55q168 0 247 108t78 289v1049h45zM1374 0h-65l-1041 1393h-6v-1393h-45v1450h64l1042 -1391h6v1391h45v-1450z" />
    <glyph glyph-name="Nj" unicode="&#x1cb;" horiz-adv-x="2054" 
d="M1845 942v-1141q0 -155 -48 -225t-181 -70q-43 0 -60 7l9 38q29 -6 71 -6q42 1 81 21q83 43 83 231v1145h45zM1823 1296q-19 0 -33 14t-14 39q0 23 14 37t32 14t33 -14t15 -36t-14 -38t-33 -16zM1374 0h-65l-1041 1393h-6v-1393h-45v1450h64l1042 -1391h6v1391h45v-1450z
" />
    <glyph glyph-name="nj" unicode="&#x1cc;" horiz-adv-x="1634" 
d="M1425 942v-1141q0 -155 -48 -225t-181 -70q-43 0 -59 7l8 38q27 -6 69 -6q42 1 83 21q83 43 83 231v1145h45zM1403 1296q-19 0 -33 14t-14 39q0 23 14 37q33 32 66 0q14 -14 14 -36t-14 -38t-33 -16zM258 694h4q42 127 146 202t227 75q180 0 260 -116t80 -286v-569h-45
v565q0 131 -58 240q-31 57 -92 92t-145 35q-159 0 -267 -126t-108 -335v-471h-45v705q0 150 -10 237h45q8 -68 8 -248z" />
    <glyph glyph-name="Acaron" unicode="&#x1cd;" horiz-adv-x="1363" 
d="M1327 0h-49l-172 416h-842l-178 -416h-49l629 1450h57zM1092 455l-400 966l-411 -966h811zM711 1604h-58l-211 294h47l193 -270l192 270h48z" />
    <glyph glyph-name="acaron" unicode="&#x1ce;" horiz-adv-x="1048" 
d="M532 1126h-57l-211 295h47l193 -270l192 270h47zM811 629q-1 303 -313 303q-150 0 -277 -113l-24 35q135 117 306 117q353 0 353 -344v-414q0 -111 16 -213h-43q-16 86 -16 225h-6q-39 -123 -137 -189t-222 -65q-124 0 -219 70q-94 70 -94 201q0 96 50 162t134 96
q144 53 328 53h164v76zM811 424v90h-145q-485 0 -486 -272q0 -117 83 -174q83 -58 185 -58q274 -1 346 271q17 67 17 143z" />
    <glyph glyph-name="Icaron" unicode="&#x1cf;" horiz-adv-x="479" 
d="M270 1604h-57l-211 294h47l193 -270l192 270h47zM262 0h-45v1450h45v-1450z" />
    <glyph glyph-name="icaron" unicode="&#x1d0;" horiz-adv-x="462" 
d="M262 1098h-57l-211 295h47l192 -271l193 271h47zM254 0h-45v942h45v-942z" />
    <glyph glyph-name="Ocaron" unicode="&#x1d1;" horiz-adv-x="1785" 
d="M1638 725q0 -334 -212 -550t-534 -216t-533 216q-212 216 -212 550t211 550t535 216q325 0 535 -216t210 -550zM1593 725q0 307 -197 516q-198 209 -503 209t-503 -209t-198 -516t196 -516t505 -209t505 209q195 209 195 516zM922 1645h-58l-211 294h47l193 -270l192 270
h48z" />
    <glyph glyph-name="ocaron" unicode="&#x1d2;" horiz-adv-x="1239" 
d="M647 1126h-57l-211 295h47l192 -270l193 270h47zM1112 472q0 -220 -138 -360t-356 -140t-354 140q-137 140 -137 360t137 359t354 139q218 0 356 -138q138 -140 138 -360zM1067 473q0 197 -123 328t-326 131q-202 0 -324 -131t-122 -328t122 -330t324 -133t326 133
q123 133 123 330z" />
    <glyph glyph-name="Ucaron" unicode="&#x1d3;" horiz-adv-x="1499" 
d="M778 1604h-57l-211 294h47l193 -270l192 270h47zM1303 1450v-901q-1 -268 -133 -429t-420 -161t-421 161q-132 161 -132 429v901h45v-893q0 -167 43 -270t96 -158t147 -92t220 -37t220 36q93 36 147 91q142 145 142 430v893h46z" />
    <glyph glyph-name="ucaron" unicode="&#x1d4;" horiz-adv-x="1171" 
d="M606 1098h-57l-211 295h47l193 -271l192 271h47zM909 248h-4q-45 -129 -146 -203t-227 -74q-180 0 -260 116t-79 286v569h45v-565q0 -133 57 -240q31 -57 92 -92t145 -35q160 0 268 126t107 335v471h45v-704q0 -150 11 -238h-45q-9 68 -9 248z" />
    <glyph glyph-name="Udieresismacron" unicode="&#x1d5;" horiz-adv-x="1499" 
d="M987 1862h-475v41h475v-41zM592 1604q-18 0 -33 14q-14 14 -14 38t14 38q15 14 33 14t32 -14t15 -37q-1 -23 -15 -38t-32 -15zM907 1604q-18 0 -33 14q-14 14 -14 38t14 38t32 14t34 -14q14 -14 14 -37t-14 -38t-33 -15zM1303 1450v-901q-1 -268 -133 -429t-420 -161
t-421 161q-132 161 -132 429v901h45v-893q0 -167 43 -270t96 -158t147 -92t220 -37t220 36q93 36 147 91q142 145 142 430v893h46z" />
    <glyph glyph-name="udieresismacron" unicode="&#x1d6;" horiz-adv-x="1171" 
d="M815 1354h-475v41h475v-41zM420 1098q-18 0 -33 14q-14 14 -14 38t14 38q15 14 33 14t32 -14t15 -37q-1 -23 -15 -38t-32 -15zM735 1098q-18 0 -33 14q-14 14 -14 38t14 38t32 14t34 -14q14 -14 14 -37t-14 -38t-33 -15zM909 248h-4q-45 -129 -146 -203t-227 -74
q-180 0 -260 116t-79 286v569h45v-565q0 -133 57 -240q31 -57 92 -92t145 -35q160 0 268 126t107 335v471h45v-704q0 -150 11 -238h-45q-9 68 -9 248z" />
    <glyph glyph-name="Udieresisacute" unicode="&#x1d7;" horiz-adv-x="1499" 
d="M883 2157l-228 -295h-39l211 295h56zM592 1604q-18 0 -33 14q-14 14 -14 38t14 38q15 14 33 14t32 -14t15 -37q-1 -23 -15 -38t-32 -15zM907 1604q-18 0 -33 14q-14 14 -14 38t14 38t32 14t34 -14q14 -14 14 -37t-14 -38t-33 -15zM1303 1450v-901q-1 -268 -133 -429
t-420 -161t-421 161q-132 161 -132 429v901h45v-893q0 -167 43 -270t96 -158t147 -92t220 -37t220 36q93 36 147 91q142 145 142 430v893h46z" />
    <glyph glyph-name="udieresisacute" unicode="&#x1d8;" horiz-adv-x="1171" 
d="M711 1649l-228 -295h-39l211 295h56zM420 1098q-18 0 -33 14q-14 14 -14 38t14 38q15 14 33 14t32 -14t15 -37q-1 -23 -15 -38t-32 -15zM735 1098q-18 0 -33 14q-14 14 -14 38t14 38t32 14t34 -14q14 -14 14 -37t-14 -38t-33 -15zM909 248h-4q-45 -129 -146 -203
t-227 -74q-180 0 -260 116t-79 286v569h45v-565q0 -133 57 -240q31 -57 92 -92t145 -35q160 0 268 126t107 335v471h45v-704q0 -150 11 -238h-45q-9 68 -9 248z" />
    <glyph glyph-name="Udieresiscaron" unicode="&#x1d9;" horiz-adv-x="1499" 
d="M778 1862h-57l-211 295h47l193 -271l192 271h47zM592 1604q-18 0 -33 14q-14 14 -14 38t14 38q15 14 33 14t32 -14t15 -37q-1 -23 -15 -38t-32 -15zM907 1604q-18 0 -33 14q-14 14 -14 38t14 38t32 14t34 -14q14 -14 14 -37t-14 -38t-33 -15zM1303 1450v-901
q-1 -268 -133 -429t-420 -161t-421 161q-132 161 -132 429v901h45v-893q0 -167 43 -270t96 -158t147 -92t220 -37t220 36q93 36 147 91q142 145 142 430v893h46z" />
    <glyph glyph-name="udieresiscaron" unicode="&#x1da;" horiz-adv-x="1171" 
d="M606 1354h-57l-211 295h47l193 -271l192 271h47zM420 1098q-18 0 -33 14q-14 14 -14 38t14 38q15 14 33 14t32 -14t15 -37q-1 -23 -15 -38t-32 -15zM735 1098q-18 0 -33 14q-14 14 -14 38t14 38t32 14t34 -14q14 -14 14 -37t-14 -38t-33 -15zM909 248h-4
q-45 -129 -146 -203t-227 -74q-180 0 -260 116t-79 286v569h45v-565q0 -133 57 -240q31 -57 92 -92t145 -35q160 0 268 126t107 335v471h45v-704q0 -150 11 -238h-45q-9 68 -9 248z" />
    <glyph glyph-name="Udieresisgrave" unicode="&#x1db;" horiz-adv-x="1499" 
d="M616 2157h56l211 -295h-39zM592 1604q-18 0 -33 14q-14 14 -14 38t14 38q15 14 33 14t32 -14t15 -37q-1 -23 -15 -38t-32 -15zM907 1604q-18 0 -33 14q-14 14 -14 38t14 38t32 14t34 -14q14 -14 14 -37t-14 -38t-33 -15zM1303 1450v-901q-1 -268 -133 -429t-420 -161
t-421 161q-132 161 -132 429v901h45v-893q0 -167 43 -270t96 -158t147 -92t220 -37t220 36q93 36 147 91q142 145 142 430v893h46z" />
    <glyph glyph-name="udieresisgrave" unicode="&#x1dc;" horiz-adv-x="1171" 
d="M444 1649h56l211 -295h-39zM420 1098q-18 0 -33 14q-14 14 -14 38t14 38q15 14 33 14t32 -14t15 -37q-1 -23 -15 -38t-32 -15zM735 1098q-18 0 -33 14q-14 14 -14 38t14 38t32 14t34 -14q14 -14 14 -37t-14 -38t-33 -15zM909 248h-4q-45 -129 -146 -203t-227 -74
q-180 0 -260 116t-79 286v569h45v-565q0 -133 57 -240q31 -57 92 -92t145 -35q160 0 268 126t107 335v471h45v-704q0 -150 11 -238h-45q-9 68 -9 248z" />
    <glyph glyph-name="Adieresismacron" unicode="&#x1de;" horiz-adv-x="1363" 
d="M920 1862h-476v41h476v-41zM524 1604q-18 0 -32 14t-14 38t14 38t32 14t32 -14t15 -37q-1 -23 -15 -38t-32 -15zM840 1604q-18 0 -33 14q-14 14 -14 38t14 38q15 14 33 14t32 -14t14 -37t-14 -38t-32 -15zM1327 0h-49l-172 416h-842l-178 -416h-49l629 1450h57zM1092 455
l-400 966l-411 -966h811z" />
    <glyph glyph-name="adieresismacron" unicode="&#x1df;" horiz-adv-x="1048" 
d="M741 1382h-475v41h475v-41zM346 1126q-18 0 -32 14t-15 39q0 24 14 38q15 14 33 14t32 -14t15 -37q-1 -22 -15 -38t-32 -16zM662 1126q-18 0 -32 14t-16 39q0 24 14 38t34 14q18 0 32 -14t14 -37q0 -22 -14 -38t-32 -16zM811 629q-1 303 -313 303q-150 0 -277 -113
l-24 35q135 117 306 117q353 0 353 -344v-414q0 -111 16 -213h-43q-16 86 -16 225h-6q-39 -123 -137 -189t-222 -65q-124 0 -219 70q-94 70 -94 201q0 96 50 162t134 96q144 53 328 53h164v76zM811 424v90h-145q-485 0 -486 -272q0 -117 83 -174q83 -58 185 -58
q274 -1 346 271q17 67 17 143z" />
    <glyph glyph-name="Adotmacron" unicode="&#x1e0;" horiz-adv-x="1363" 
d="M920 1862h-476v41h476v-41zM682 1604q-18 0 -33 14q-14 14 -14 38t14 38q15 14 33 14t32 -14t15 -37q-1 -23 -15 -38t-32 -15zM1327 0h-49l-172 416h-842l-178 -416h-49l629 1450h57zM1092 455l-400 966l-411 -966h811z" />
    <glyph glyph-name="adotmacron" unicode="&#x1e1;" horiz-adv-x="1048" 
d="M741 1382h-475v41h475v-41zM504 1126q-18 0 -32 14t-15 39q0 24 14 38q15 14 33 14t32 -14t15 -37q-1 -22 -15 -38t-32 -16zM811 629q-1 303 -313 303q-150 0 -277 -113l-24 35q135 117 306 117q353 0 353 -344v-414q0 -111 16 -213h-43q-16 86 -16 225h-6
q-39 -123 -137 -189t-222 -65q-124 0 -219 70q-94 70 -94 201q0 96 50 162t134 96q144 53 328 53h164v76zM811 424v90h-145q-485 0 -486 -272q0 -117 83 -174q83 -58 185 -58q274 -1 346 271q17 67 17 143z" />
    <glyph glyph-name="AEmacron" unicode="&#x1e2;" horiz-adv-x="1982" 
d="M1868 0h-862v422h-664l-276 -422h-54l942 1450h879v-41h-782v-637h733v-41h-733v-690h817v-41zM1006 463v946h-27l-610 -946h637zM1178 1604h-476v41h476v-41z" />
    <glyph glyph-name="aemacron" unicode="&#x1e3;" horiz-adv-x="1800" 
d="M1141 1126h-475v41h475v-41zM879 522h751q-8 184 -108 297t-267 113q-94 0 -171 -45q-126 -73 -184 -246q-21 -66 -21 -119zM1257 971q197 0 307 -134t109 -317v-39h-796q0 -262 172 -394q94 -73 229 -73q209 0 330 170l30 -26q-135 -184 -362 -185q-150 0 -260 86
t-156 234q-18 -139 -120 -231t-281 -91q-131 0 -228 65q-96 65 -96 193q0 293 527 293h172v96q0 154 -81 234t-239 80t-291 -113l-24 35q135 117 310 117t263 -77t100 -202q48 127 152 203t233 76zM834 391v90h-154q-498 0 -498 -252q0 -117 84 -168t190 -51q287 0 358 243
q20 64 20 138z" />
    <glyph glyph-name="Gcaron" unicode="&#x1e6;" horiz-adv-x="1628" 
d="M1432 717v-633q-225 -125 -521 -125q-340 0 -552 219t-212 551t211 547t545 215q287 0 488 -168l-33 -33q-78 76 -205 118t-252 42q-315 0 -512 -208t-197 -516t198 -517q196 -209 525 -209q252 0 474 109v569h-377v39h420zM817 1645h-57l-211 294h47l192 -270l193 270
h47z" />
    <glyph glyph-name="gcaron" unicode="&#x1e7;" horiz-adv-x="1282" 
d="M629 1126h-58l-211 295h48l192 -270l193 270h47zM1028 57v197h-6q-51 -133 -168 -208t-256 -75q-205 -1 -338 141t-133 357t133 358t338 144q139 0 252 -74t172 -211h6v256h45v-889q0 -163 -41 -283q-40 -120 -148 -201t-276 -81q-262 0 -415 176l30 31
q150 -168 387 -168t332 166q86 149 86 364zM1030 470q0 192 -124 326q-124 136 -311 136t-305 -136t-118 -328t118 -326t305 -134t311 135t124 327z" />
    <glyph glyph-name="Kcaron" unicode="&#x1e8;" horiz-adv-x="1157" 
d="M684 1604h-57l-211 294h47l192 -270l193 270h47zM262 784h2l729 666h66l-737 -666l774 -784h-64l-768 780h-2v-780h-45v1450h45v-666z" />
    <glyph glyph-name="kcaron" unicode="&#x1e9;" horiz-adv-x="911" 
d="M565 1702h-57l-211 295h47l193 -271l192 271h47zM254 508h2l487 434h64l-498 -436l555 -506h-67l-541 498h-2v-498h-45v1548h45v-1040z" />
    <glyph glyph-name="Oogonek" unicode="&#x1ea;" horiz-adv-x="1785" 
d="M1638 725q0 -334 -212 -550q-190 -194 -468 -214q-106 -105 -148 -165t-42 -122t36 -98q36 -35 110 -35t128 60l21 -33q-70 -64 -156 -64t-135 44t-49 106q0 106 92 210q32 35 94 95h-16q-322 0 -534 216t-212 550t211 550t535 216q325 0 535 -216t210 -550zM1593 725
q0 307 -197 516q-198 209 -503 209t-503 -209t-198 -516t196 -516t505 -209t505 209q195 209 195 516z" />
    <glyph glyph-name="oogonek" unicode="&#x1eb;" horiz-adv-x="1239" 
d="M494 -314q0 -132 145 -132q74 0 129 59l20 -33q-70 -63 -156 -63t-134 44q-49 45 -49 107q0 108 92 208q32 35 94 96q-8 0 -17 -1q-217 1 -354 141t-137 360t137 359t354 139q218 0 356 -138q138 -140 138 -360t-130 -352t-312 -147h14q-106 -105 -148 -165t-42 -122z
M1067 473q0 197 -123 328t-326 131q-202 0 -324 -131t-122 -328t122 -330t324 -133t326 133q123 133 123 330z" />
    <glyph glyph-name="Oogonekmacron" unicode="&#x1ec;" horiz-adv-x="1785" 
d="M1130 1645h-475v41h475v-41zM723 -346q0 106 92 210q32 35 94 95h-16q-322 0 -534 216t-212 550t211 550t535 216q325 0 535 -216t210 -550t-212 -550q-190 -194 -468 -214q-106 -105 -148 -165t-42 -122t36 -98q36 -34 110 -34t128 59l21 -33q-70 -64 -156 -64t-135 44
t-49 106zM1593 725q0 307 -197 516q-198 209 -503 209t-503 -209t-198 -516t196 -516t505 -209t505 209q195 209 195 516z" />
    <glyph glyph-name="oogonekmacron" unicode="&#x1ed;" horiz-adv-x="1239" 
d="M856 1126h-475v41h475v-41zM494 -314q0 -132 145 -132q74 0 129 59l20 -33q-70 -63 -156 -63t-134 44q-49 45 -49 107q0 108 92 208q32 35 94 96q-8 0 -17 -1q-217 1 -354 141t-137 360t137 359t354 139q218 0 356 -138q138 -140 138 -360t-130 -352t-312 -147h14
q-106 -105 -148 -165t-42 -122zM1067 473q0 197 -123 328t-326 131q-202 0 -324 -131t-122 -328t122 -330t324 -133t326 133q123 133 123 330z" />
    <glyph glyph-name="DZ" unicode="&#x1f1;" horiz-adv-x="2793" 
d="M2707 0h-1019v55l954 1354h-928v41h969v-59l-952 -1350h976v-41zM629 1450q357 0 579 -182t222 -542q0 -358 -222 -542t-579 -184h-412v1450h412zM618 1409h-354v-1368h354q342 0 553 171t211 513q0 233 -103 390q-193 294 -661 294z" />
    <glyph glyph-name="Dz" unicode="&#x1f2;" horiz-adv-x="2473" 
d="M2370 0h-693v43l623 860h-590v39h635v-45l-616 -858h641v-39zM629 1450q357 0 579 -182t222 -542q0 -358 -222 -542t-579 -184h-412v1450h412zM618 1409h-354v-1368h354q342 0 553 171t211 513q0 233 -103 390q-193 294 -661 294z" />
    <glyph glyph-name="dz" unicode="&#x1f3;" horiz-adv-x="2179" 
d="M2075 0h-693v43l623 860h-590v39h635v-45l-616 -858h641v-39zM1028 686v862h45v-1548h-45v254h-6q-59 -137 -172 -210t-252 -73q-205 -1 -338 141t-133 357t133 358t338 144q139 0 252 -74t172 -211h6zM1030 470q0 190 -124 326t-311 136t-305 -136t-118 -328t118 -325
t305 -133t311 135t124 325z" />
    <glyph glyph-name="Gacute" unicode="&#x1f4;" horiz-adv-x="1628" 
d="M1432 717v-633q-225 -125 -521 -125q-340 0 -552 219t-212 551t211 547t545 215q287 0 488 -168l-33 -33q-78 76 -205 118t-252 42q-315 0 -512 -208t-197 -516t198 -517q196 -209 525 -209q252 0 474 109v569h-377v39h420zM922 1939l-228 -294h-39l211 294h56z" />
    <glyph glyph-name="gacute" unicode="&#x1f5;" horiz-adv-x="1282" 
d="M733 1421l-227 -295h-39l211 295h55zM1028 57v197h-6q-51 -133 -168 -208t-256 -75q-205 -1 -338 141t-133 357t133 358t338 144q139 0 252 -74t172 -211h6v256h45v-889q0 -163 -41 -283q-40 -120 -148 -201t-276 -81q-262 0 -415 176l30 31q150 -168 387 -168t332 166
q86 149 86 364zM1030 470q0 192 -124 326q-124 136 -311 136t-305 -136t-118 -328t118 -326t305 -134t311 135t124 327z" />
    <glyph glyph-name="Ngrave" unicode="&#x1f8;" horiz-adv-x="1591" 
d="M1374 0h-65l-1041 1393h-6v-1393h-45v1450h64l1042 -1391h6v1391h45v-1450zM662 1898h55l211 -294h-39z" />
    <glyph glyph-name="ngrave" unicode="&#x1f9;" horiz-adv-x="1171" 
d="M457 1421h55l211 -295h-39zM258 694h4q42 127 146 202t227 75q180 0 260 -116t80 -286v-569h-45v565q0 131 -58 240q-31 57 -92 92t-145 35q-159 0 -267 -126t-108 -335v-471h-45v705q0 150 -10 237h45q8 -68 8 -248z" />
    <glyph glyph-name="Aringacute" unicode="&#x1fa;" horiz-adv-x="1363" 
d="M815 2441l-227 -295h-39l211 295h55zM879 1797q-1 -81 -59 -137t-138 -56t-138 56t-58 137t58 138t138 57t138 -56q58 -58 59 -139zM840 1798q0 66 -46 113t-112 47t-112 -47t-46 -113t46 -112t112 -48q66 0 112 47t46 113zM1327 0h-49l-172 416h-842l-178 -416h-49
l629 1450h57zM1092 455l-400 966l-411 -966h811z" />
    <glyph glyph-name="aringacute" unicode="&#x1fb;" horiz-adv-x="1048" 
d="M637 1962l-227 -295h-39l211 295h55zM700 1320q0 -81 -58 -137q-58 -57 -138 -57t-138 56t-58 138q0 81 58 138q58 58 138 58t138 -58t58 -138zM662 1321q0 66 -46 113t-112 47t-112 -47t-46 -113t46 -113t112 -47t112 47t46 113zM811 629q-1 303 -313 303
q-150 0 -277 -113l-24 35q135 117 306 117q353 0 353 -344v-414q0 -111 16 -213h-43q-16 86 -16 225h-6q-39 -123 -137 -189t-222 -65q-124 0 -219 70q-94 70 -94 201q0 96 50 162t134 96q144 53 328 53h164v76zM811 424v90h-145q-485 0 -486 -272q0 -117 83 -174
q83 -58 185 -58q274 -1 346 271q17 67 17 143z" />
    <glyph glyph-name="AEacute" unicode="&#x1fc;" horiz-adv-x="1982" 
d="M1868 0h-862v422h-664l-276 -422h-54l942 1450h879v-41h-782v-637h733v-41h-733v-690h817v-41zM1006 463v946h-27l-610 -946h637zM1073 1898l-227 -294h-39l211 294h55z" />
    <glyph glyph-name="aeacute" unicode="&#x1fd;" horiz-adv-x="1800" 
d="M1036 1421l-227 -295h-39l211 295h55zM879 522h751q-8 184 -108 297t-267 113q-94 0 -171 -45q-126 -73 -184 -246q-21 -66 -21 -119zM1257 971q197 0 307 -134t109 -317v-39h-796q0 -262 172 -394q94 -73 229 -73q209 0 330 170l30 -26q-135 -184 -362 -185
q-150 0 -260 86t-156 234q-18 -139 -120 -231t-281 -91q-131 0 -228 65q-96 65 -96 193q0 293 527 293h172v96q0 154 -81 234t-239 80t-291 -113l-24 35q135 117 310 117t263 -77t100 -202q48 127 152 203t233 76zM834 391v90h-154q-498 0 -498 -252q0 -117 84 -168t190 -51
q287 0 358 243q20 64 20 138z" />
    <glyph glyph-name="Oslashacute" unicode="&#x1fe;" horiz-adv-x="1785" 
d="M999 1939l-227 -294h-39l211 294h55zM866 1450q-304 0 -502 -209t-198 -520t205 -520l940 1093q-186 156 -445 156zM1612 738q0 -346 -212 -563q-212 -216 -518 -216t-511 180l-140 -162l-28 29l139 160q-221 211 -221 552t211 557t534 216q272 0 475 -162l138 160
l30 -27l-137 -159q240 -219 240 -565zM866 0q309 0 505 209q195 209 195 527t-225 532l-942 -1096q195 -172 467 -172z" />
    <glyph glyph-name="oslashacute" unicode="&#x1ff;" horiz-adv-x="1239" 
d="M741 1423l-227 -295h-39l211 295h55zM1112 470q0 -218 -138 -358t-352 -140t-354 139l-135 -136l-29 27l138 137q-115 135 -115 344t137 348t345 139t345 -118l121 121l29 -29l-123 -121q131 -135 131 -353zM620 10q202 0 324 133q123 133 123 327t-117 323l-651 -652
q119 -131 321 -131zM607 932q-191 0 -313 -131t-122 -319t100 -312l652 651q-125 111 -317 111z" />
    <glyph glyph-name="Adblgrave" unicode="&#x200;" horiz-adv-x="1363" 
d="M672 1898h55l211 -294h-39zM426 1898h55l211 -294h-39zM1327 0h-49l-172 416h-842l-178 -416h-49l629 1450h57zM1092 455l-400 966l-411 -966h811z" />
    <glyph glyph-name="adblgrave" unicode="&#x201;" horiz-adv-x="1048" 
d="M494 1421h55l211 -295h-39zM248 1421h55l211 -295h-39zM811 629q-1 303 -313 303q-150 0 -277 -113l-24 35q135 117 306 117q353 0 353 -344v-414q0 -111 16 -213h-43q-16 86 -16 225h-6q-39 -123 -137 -189t-222 -65q-124 0 -219 70q-94 70 -94 201q0 96 50 162t134 96
q144 53 328 53h164v76zM811 424v90h-145q-485 0 -486 -272q0 -117 83 -174q83 -58 185 -58q274 -1 346 271q17 67 17 143z" />
    <glyph glyph-name="Ainvertedbreve" unicode="&#x202;" horiz-adv-x="1363" 
d="M685 1645q87 0 140 51t78 166h37q-20 -123 -88 -191q-68 -67 -170 -67t-171 68t-85 190h39q21 -104 77 -160t143 -57zM1327 0h-49l-172 416h-842l-178 -416h-49l629 1450h57zM1092 455l-400 966l-411 -966h811z" />
    <glyph glyph-name="ainvertedbreve" unicode="&#x203;" horiz-adv-x="1048" 
d="M504 1126q-102 0 -171 68t-85 190h39q21 -104 77 -160t143 -56t140 50q53 51 78 166h37q-20 -122 -88 -190t-170 -68zM811 629q-1 303 -313 303q-150 0 -277 -113l-24 35q135 117 306 117q353 0 353 -344v-414q0 -111 16 -213h-43q-16 86 -16 225h-6q-39 -123 -137 -189
t-222 -65q-124 0 -219 70q-94 70 -94 201q0 96 50 162t134 96q144 53 328 53h164v76zM811 424v90h-145q-485 0 -486 -272q0 -117 83 -174q83 -58 185 -58q274 -1 346 271q17 67 17 143z" />
    <glyph glyph-name="Edblgrave" unicode="&#x204;" horiz-adv-x="1208" 
d="M645 1898h55l211 -294h-39zM399 1898h56l211 -294h-39zM1094 0h-877v1450h844v-41h-801v-637h754v-41h-754v-690h834v-41z" />
    <glyph glyph-name="edblgrave" unicode="&#x205;" horiz-adv-x="1138" 
d="M559 1421h55l211 -295h-39zM313 1421h56l211 -295h-39zM1012 481h-840q0 -188 111 -328q111 -141 321 -141t338 172l33 -28q-141 -184 -365 -184t-353 142q-130 144 -130 362t129 356q128 138 328 139q200 0 314 -134t114 -317v-39zM174 520h795q-4 184 -113 298
t-283 114q-100 0 -181 -44q-136 -74 -194 -243q-24 -68 -24 -125z" />
    <glyph glyph-name="Einvertedbreve" unicode="&#x206;" horiz-adv-x="1208" 
d="M658 1645q87 0 141 51q53 51 78 166h36q-20 -123 -88 -191q-68 -67 -170 -67t-171 68t-85 190h39q20 -104 76 -160t144 -57zM1094 0h-877v1450h844v-41h-801v-637h754v-41h-754v-690h834v-41z" />
    <glyph glyph-name="einvertedbreve" unicode="&#x207;" horiz-adv-x="1138" 
d="M569 1126q-102 0 -171 68t-85 190h39q20 -104 76 -160t144 -56q86 0 140 50q54 51 79 166h36q-20 -122 -88 -190t-170 -68zM1012 481h-840q0 -188 111 -328q111 -141 321 -141t338 172l33 -28q-141 -184 -365 -184t-353 142q-130 144 -130 362t129 356q128 138 328 139
q200 0 314 -134t114 -317v-39zM174 520h795q-4 184 -113 298t-283 114q-100 0 -181 -44q-136 -74 -194 -243q-24 -68 -24 -125z" />
    <glyph glyph-name="Idblgrave" unicode="&#x208;" horiz-adv-x="479" 
d="M229 1898h56l211 -294h-39zM-16 1898h55l211 -294h-39zM262 0h-45v1450h45v-1450z" />
    <glyph glyph-name="idblgrave" unicode="&#x209;" horiz-adv-x="462" 
d="M221 1393h55l211 -295h-38zM-25 1393h56l211 -295h-39zM254 0h-45v942h45v-942z" />
    <glyph glyph-name="Iinvertedbreve" unicode="&#x20a;" horiz-adv-x="479" 
d="M242 1645q88 0 141 51t78 166h37q-20 -123 -88 -191q-68 -67 -170 -67t-171 68t-85 190h39q20 -104 76 -160q55 -56 143 -57zM262 0h-45v1450h45v-1450z" />
    <glyph glyph-name="iinvertedbreve" unicode="&#x20b;" horiz-adv-x="462" 
d="M234 1139q87 0 141 51q53 51 78 166h36q-20 -123 -88 -191q-68 -67 -170 -67t-171 68t-85 190h39q20 -104 76 -160t144 -57zM254 0h-45v942h45v-942z" />
    <glyph glyph-name="Odblgrave" unicode="&#x20c;" horiz-adv-x="1785" 
d="M883 1939h55l211 -294h-39zM637 1939h55l211 -294h-39zM1638 725q0 -334 -212 -550t-534 -216t-533 216q-212 216 -212 550t211 550t535 216q325 0 535 -216t210 -550zM1593 725q0 307 -197 516q-198 209 -503 209t-503 -209t-198 -516t196 -516t505 -209t505 209
q195 209 195 516z" />
    <glyph glyph-name="odblgrave" unicode="&#x20d;" horiz-adv-x="1239" 
d="M608 1421h56l210 -295h-38zM362 1421h56l211 -295h-39zM1112 472q0 -220 -138 -360t-356 -140t-354 140q-137 140 -137 360t137 359t354 139q218 0 356 -138q138 -140 138 -360zM1067 473q0 197 -123 328t-326 131q-202 0 -324 -131t-122 -328t122 -330t324 -133t326 133
q123 133 123 330z" />
    <glyph glyph-name="Oinvertedbreve" unicode="&#x20e;" horiz-adv-x="1785" 
d="M896 1686q87 0 140 51t78 166h37q-20 -123 -88 -191t-170 -68t-171 68t-85 191h39q20 -105 76 -161t144 -56zM1638 725q0 -334 -212 -550t-534 -216t-533 216q-212 216 -212 550t211 550t535 216q325 0 535 -216t210 -550zM1593 725q0 307 -197 516q-198 209 -503 209
t-503 -209t-198 -516t196 -516t505 -209t505 209q195 209 195 516z" />
    <glyph glyph-name="oinvertedbreve" unicode="&#x20f;" horiz-adv-x="1239" 
d="M618 1126q-102 0 -171 68t-85 190h39q21 -104 77 -160t143 -56t141 50q54 51 78 166h37q-21 -122 -89 -190t-170 -68zM1112 472q0 -220 -138 -360t-356 -140t-354 140q-137 140 -137 360t137 359t354 139q218 0 356 -138q138 -140 138 -360zM1067 473q0 197 -123 328
t-326 131q-202 0 -324 -131t-122 -328t122 -330t324 -133t326 133q123 133 123 330z" />
    <glyph glyph-name="Rdblgrave" unicode="&#x210;" horiz-adv-x="1216" 
d="M643 1898h55l211 -294h-39zM397 1898h56l211 -294h-39zM262 731v-731h-45v1450h401q455 0 455 -358q0 -264 -275 -339q-71 -19 -147 -20l441 -733h-52l-438 731h-340zM1028 1092q0 319 -434 319h-332v-641h354q201 0 307 84q105 84 105 238z" />
    <glyph glyph-name="rdblgrave" unicode="&#x211;" horiz-adv-x="649" 
d="M403 1421h56l211 -295h-39zM158 1421h55l211 -295h-39zM258 694h4q39 139 126 208t200 69q23 0 37 -2v-39q-10 2 -27 2q-114 0 -192 -70q-146 -131 -146 -375v-487h-45v705q0 150 -10 237h45q8 -68 8 -248z" />
    <glyph glyph-name="Rinvertedbreve" unicode="&#x212;" horiz-adv-x="1216" 
d="M656 1645q87 0 141 51q52 51 77 166h37q-20 -123 -88 -191q-68 -67 -170 -67t-171 68t-85 190h39q20 -104 76 -160t144 -57zM262 731v-731h-45v1450h401q455 0 455 -358q0 -264 -275 -339q-71 -19 -147 -20l441 -733h-52l-438 731h-340zM1028 1092q0 319 -434 319h-332
v-641h354q201 0 307 84q105 84 105 238z" />
    <glyph glyph-name="rinvertedbreve" unicode="&#x213;" horiz-adv-x="649" 
d="M414 1126q-102 0 -171 68t-85 190h39q20 -104 76 -160q55 -56 143 -56t141 50q53 51 78 166h37q-20 -122 -88 -190t-170 -68zM258 694h4q39 139 126 208t200 69q23 0 37 -2v-39q-10 2 -27 2q-114 0 -192 -70q-146 -131 -146 -375v-487h-45v705q0 150 -10 237h45
q8 -68 8 -248z" />
    <glyph glyph-name="Udblgrave" unicode="&#x214;" horiz-adv-x="1499" 
d="M739 1898h56l211 -294h-39zM494 1898h55l211 -294h-39zM1303 1450v-901q-1 -268 -133 -429t-420 -161t-421 161q-132 161 -132 429v901h45v-893q0 -167 43 -270t96 -158t147 -92t220 -37t220 36q93 36 147 91q142 145 142 430v893h46z" />
    <glyph glyph-name="udblgrave" unicode="&#x215;" horiz-adv-x="1171" 
d="M567 1393h56l211 -295h-39zM322 1393h55l211 -295h-39zM909 248h-4q-45 -129 -146 -203t-227 -74q-180 0 -260 116t-79 286v569h45v-565q0 -133 57 -240q31 -57 92 -92t145 -35q160 0 268 126t107 335v471h45v-704q0 -150 11 -238h-45q-9 68 -9 248z" />
    <glyph glyph-name="Uinvertedbreve" unicode="&#x216;" horiz-adv-x="1499" 
d="M752 1645q88 0 141 51t78 166h37q-20 -123 -88 -191q-68 -67 -170 -67t-171 68t-85 190h38q20 -104 76 -160t144 -57zM1303 1450v-901q-1 -268 -133 -429t-420 -161t-421 161q-132 161 -132 429v901h45v-893q0 -167 43 -270t96 -158t147 -92t220 -37t220 36q93 36 147 91
q142 145 142 430v893h46z" />
    <glyph glyph-name="uinvertedbreve" unicode="&#x217;" horiz-adv-x="1171" 
d="M580 1139q87 0 141 51q53 51 78 166h37q-20 -123 -88 -191q-68 -67 -170 -67t-172 68q-68 68 -84 190h38q20 -104 76 -160t144 -57zM909 248h-4q-45 -129 -146 -203t-227 -74q-180 0 -260 116t-79 286v569h45v-565q0 -133 57 -240q31 -57 92 -92t145 -35q160 0 268 126
t107 335v471h45v-704q0 -150 11 -238h-45q-9 68 -9 248z" />
    <glyph glyph-name="Scommaaccent" unicode="&#x218;" horiz-adv-x="1167" 
d="M893 64q-127 -104 -313 -105q-270 0 -433 178l35 31q156 -168 396 -168q168 0 282 94t115 263q0 169 -174 261q-93 51 -261 103q-167 52 -267 136q-99 85 -99 257t129 274t318 103q242 0 372 -162l-35 -31q-119 152 -340 152q-160 0 -280 -88t-119 -249q0 -161 116 -245
q95 -67 245 -114q90 -30 142 -50t117 -56q181 -100 181 -290t-127 -294zM643 -92l-119 -379h-35l105 379h49z" />
    <glyph glyph-name="scommaaccent" unicode="&#x219;" horiz-adv-x="849" 
d="M739 242q0 -119 -88 -193t-219 -74q-219 0 -330 158l37 25q100 -143 295 -144q100 0 180 62t80 166q0 64 -19 90t-31 42t-36 28q-25 14 -39 22t-46 18t-46 15q-15 5 -113 31t-160 77t-62 165t85 177q86 63 203 64q195 0 289 -137l-39 -23q-94 121 -250 121
q-94 0 -169 -49t-75 -152q0 -57 17 -95q27 -62 137 -98q32 -10 140 -38q108 -27 184 -83t75 -175zM479 -92l-119 -379h-34l104 379h49z" />
    <glyph glyph-name="uni021A" unicode="&#x21a;" horiz-adv-x="1105" 
d="M1069 1409h-494v-1409h-45v1409h-493v41h1032v-41zM606 -92l-119 -379h-34l104 379h49z" />
    <glyph glyph-name="uni021B" unicode="&#x21b;" horiz-adv-x="622" 
d="M436 -25q-86 -1 -138 59t-52 161v708h-205v39h203v277h47v-277h276v-39h-276v-708q0 -180 172 -181q57 1 104 19l6 -35q-51 -23 -137 -23zM438 -92l-119 -379h-34l104 379h49z" />
    <glyph glyph-name="Hcaron" unicode="&#x21e;" horiz-adv-x="1499" 
d="M1282 0h-45v729h-975v-729h-45v1450h45v-680h975v680h45v-1450zM778 1604h-57l-211 294h47l193 -270l192 270h47z" />
    <glyph glyph-name="hcaron" unicode="&#x21f;" horiz-adv-x="1165" 
d="M616 1702h-57l-211 295h47l193 -271l192 271h47zM254 694h4q41 127 143 202t228 75q180 0 260 -116t80 -286v-569h-45v565q0 131 -58 240q-31 57 -92 92t-145 35q-160 0 -268 -126t-107 -335v-471h-45v1548h45v-854z" />
    <glyph glyph-name="Adotaccent" unicode="&#x226;" horiz-adv-x="1363" 
d="M1327 0h-49l-172 416h-842l-178 -416h-49l629 1450h57zM1092 455l-400 966l-411 -966h811zM682 1604q-18 0 -33 14q-14 14 -14 38t14 38q15 14 33 14t32 -14t15 -37q-1 -23 -15 -38t-32 -15z" />
    <glyph glyph-name="adotaccent" unicode="&#x227;" horiz-adv-x="1048" 
d="M504 1126q-18 0 -32 14t-15 39q0 24 14 38q15 14 33 14t32 -14t15 -37q-1 -22 -15 -38t-32 -16zM811 629q-1 303 -313 303q-150 0 -277 -113l-24 35q135 117 306 117q353 0 353 -344v-414q0 -111 16 -213h-43q-16 86 -16 225h-6q-39 -123 -137 -189t-222 -65
q-124 0 -219 70q-94 70 -94 201q0 96 50 162t134 96q144 53 328 53h164v76zM811 424v90h-145q-485 0 -486 -272q0 -117 83 -174q83 -58 185 -58q274 -1 346 271q17 67 17 143z" />
    <glyph glyph-name="Ecedilla" unicode="&#x228;" horiz-adv-x="1208" 
d="M687 -160q69 0 122 -32t53 -114q0 -81 -72 -119t-160 -38q-89 0 -181 41l10 35q72 -37 176 -37q184 0 184 125q0 104 -147 104q-86 0 -142 -30l-20 18l141 207h-434v1450h844v-41h-801v-637h754v-41h-754v-690h834v-41h-400l-121 -176q45 16 114 16z" />
    <glyph glyph-name="ecedilla" unicode="&#x229;" horiz-adv-x="1138" 
d="M776 -333q0 -81 -72 -119q-150 -80 -342 3l11 35q72 -37 176 -37q184 0 184 125q0 104 -147 105q-86 0 -142 -31l-20 19l140 205q-187 10 -312 148t-125 356t129 356q128 138 328 139q200 0 314 -134t114 -317v-39h-840q0 -188 111 -328q111 -141 321 -141t338 172
l33 -28q-138 -180 -368 -185l-120 -174q45 17 114 17t122 -33t53 -114zM174 520h795q-4 184 -113 298t-283 114q-100 0 -181 -44q-136 -74 -194 -243q-24 -68 -24 -125z" />
    <glyph glyph-name="Odieresismacron" unicode="&#x22a;" horiz-adv-x="1785" 
d="M1130 1903h-475v41h475v-41zM735 1645q-18 0 -33 14q-14 14 -14 38t14 38t32 14t34 -14q14 -14 14 -37t-14 -38t-33 -15zM1051 1645q-18 0 -33 14q-14 14 -14 38t14 38t32 14t33 -14t15 -37t-14 -38t-33 -15zM1638 725q0 -334 -212 -550t-534 -216t-533 216
q-212 216 -212 550t211 550t535 216q325 0 535 -216t210 -550zM1593 725q0 307 -197 516q-198 209 -503 209t-503 -209t-198 -516t196 -516t505 -209t505 209q195 209 195 516z" />
    <glyph glyph-name="odieresismacron" unicode="&#x22b;" horiz-adv-x="1239" 
d="M856 1382h-475v41h475v-41zM461 1126q-19 0 -33 14t-14 39q0 24 14 38t32 14t34 -14q14 -14 14 -37q0 -22 -14 -38t-33 -16zM776 1126q-18 0 -32 14t-15 39q0 24 14 38q15 14 33 14t32 -14t15 -37q-1 -22 -15 -38t-32 -16zM1112 472q0 -220 -138 -360t-356 -140t-354 140
q-137 140 -137 360t137 359t354 139q218 0 356 -138q138 -140 138 -360zM1067 473q0 197 -123 328t-326 131q-202 0 -324 -131t-122 -328t122 -330t324 -133t326 133q123 133 123 330z" />
    <glyph glyph-name="Otildemacron" unicode="&#x22c;" horiz-adv-x="1785" 
d="M1130 1942h-475v40h475v-40zM1020 1690q66 0 82 98h33q-14 -137 -115 -137q-51 0 -132 49t-120 49q-68 0 -82 -104h-33q8 71 40 107t79 36t126 -49t122 -49zM1638 725q0 -334 -212 -550t-534 -216t-533 216q-212 216 -212 550t211 550t535 216q325 0 535 -216t210 -550z
M1593 725q0 307 -197 516q-198 209 -503 209t-503 -209t-198 -516t196 -516t505 -209t505 209q195 209 195 516z" />
    <glyph glyph-name="otildemacron" unicode="&#x22d;" horiz-adv-x="1239" 
d="M856 1421h-475v41h475v-41zM745 1133q-51 0 -132 49t-119 49q-68 0 -82 -105h-33q8 70 40 107t79 37t126 -49t121 -50q68 0 82 99h33q-14 -137 -115 -137zM1112 472q0 -220 -138 -360t-356 -140t-354 140q-137 140 -137 360t137 359t354 139q218 0 356 -138
q138 -140 138 -360zM1067 473q0 197 -123 328t-326 131q-202 0 -324 -131t-122 -328t122 -330t324 -133t326 133q123 133 123 330z" />
    <glyph glyph-name="Odotaccent" unicode="&#x22e;" horiz-adv-x="1785" 
d="M1638 725q0 -334 -212 -550t-534 -216t-533 216q-212 216 -212 550t211 550t535 216q325 0 535 -216t210 -550zM1593 725q0 307 -197 516q-198 209 -503 209t-503 -209t-198 -516t196 -516t505 -209t505 209q195 209 195 516zM893 1645q-18 0 -33 14q-14 14 -14 38t14 38
t32 14t34 -14q14 -14 14 -37t-14 -38t-33 -15z" />
    <glyph glyph-name="odotaccent" unicode="&#x22f;" horiz-adv-x="1239" 
d="M618 1126q-18 0 -32 14t-14 39q0 24 14 38t32 14t32 -14t16 -37q0 -22 -15 -38t-33 -16zM1112 472q0 -220 -138 -360t-356 -140t-354 140q-137 140 -137 360t137 359t354 139q218 0 356 -138q138 -140 138 -360zM1067 473q0 197 -123 328t-326 131q-202 0 -324 -131
t-122 -328t122 -330t324 -133t326 133q123 133 123 330z" />
    <glyph glyph-name="Odotaccentmacron" unicode="&#x230;" horiz-adv-x="1785" 
d="M1130 1903h-475v41h475v-41zM893 1645q-18 0 -33 14q-14 14 -14 38t14 38t32 14t34 -14q14 -14 14 -37t-14 -38t-33 -15zM1638 725q0 -334 -212 -550t-534 -216t-533 216q-212 216 -212 550t211 550t535 216q325 0 535 -216t210 -550zM1593 725q0 307 -197 516
q-198 209 -503 209t-503 -209t-198 -516t196 -516t505 -209t505 209q195 209 195 516z" />
    <glyph glyph-name="odotaccentmacron" unicode="&#x231;" horiz-adv-x="1239" 
d="M856 1382h-475v41h475v-41zM618 1126q-18 0 -32 14t-14 39q0 24 14 38t32 14t32 -14t16 -37q0 -22 -15 -38t-33 -16zM1112 472q0 -220 -138 -360t-356 -140t-354 140q-137 140 -137 360t137 359t354 139q218 0 356 -138q138 -140 138 -360zM1067 473q0 197 -123 328
t-326 131q-202 0 -324 -131t-122 -328t122 -330t324 -133t326 133q123 133 123 330z" />
    <glyph glyph-name="Ymacron" unicode="&#x232;" horiz-adv-x="1101" 
d="M573 0h-45v635l-497 815h53l469 -770l467 770h51l-498 -815v-635zM788 1604h-475v41h475v-41z" />
    <glyph glyph-name="ymacron" unicode="&#x233;" horiz-adv-x="876" 
d="M676 1098h-475v41h475v-41zM827 942l-467 -1253q-68 -184 -227 -185q-45 0 -84 15l12 39q33 -12 93 -12q111 -1 178 182l90 245l-373 969h49l346 -917l334 917h49z" />
    <glyph glyph-name="commaturnedmod" unicode="&#x2bb;" horiz-adv-x="450" 
d="M143 983l129 467h35l-114 -467h-50z" />
    <glyph glyph-name="afii57929" unicode="&#x2bc;" horiz-adv-x="450" 
d="M307 1450l-129 -467h-35l115 467h49z" />
    <glyph glyph-name="circumflex" unicode="&#x2c6;" 
d="M217 1450h57l211 -295h-47l-192 270l-193 -270h-47z" />
    <glyph glyph-name="caron" unicode="&#x2c7;" 
d="M274 1155h-57l-211 295h47l193 -270l192 270h47z" />
    <glyph glyph-name="uni02C9" unicode="&#x2c9;" 
d="M483 1681h-475v41h475v-41z" />
    <glyph glyph-name="breve" unicode="&#x2d8;" 
d="M244 1171q-102 0 -171 68t-85 191h39q20 -104 76 -160q55 -56 143 -58q88 0 141 52t78 166h37q-20 -123 -88 -191t-170 -68z" />
    <glyph glyph-name="dotaccent" unicode="&#x2d9;" 
d="M246 1296q-18 0 -32 14t-15 39q0 23 14 37q33 32 66 0q14 -14 14 -36q-1 -22 -15 -38t-32 -16z" />
    <glyph glyph-name="ring" unicode="&#x2da;" 
d="M442 1330q0 -81 -58 -137t-138 -56t-138 56t-58 137t58 138q58 58 138 58t138 -58t58 -138zM403 1331q0 66 -46 113q-45 47 -111 47t-112 -47t-46 -113q0 -67 46 -113t112 -46t112 46q46 47 45 113z" />
    <glyph glyph-name="ogonek" unicode="&#x2db;" 
d="M82 -306q0 106 92 209q33 36 96 97h47q-106 -106 -148 -166t-42 -122t36 -97q35 -35 109 -35t129 60l21 -33q-70 -63 -156 -63t-135 43q-49 45 -49 107z" />
    <glyph glyph-name="tilde" unicode="&#x2dc;" 
d="M373 1219q-51 0 -132 49t-120 49q-68 0 -82 -105h-33q8 70 40 107t79 37t126 -49t122 -50q68 0 82 99h32q-14 -137 -114 -137z" />
    <glyph glyph-name="hungarumlaut" unicode="&#x2dd;" 
d="M350 1450l-227 -297h-39l211 297h55zM590 1450l-228 -297h-38l211 297h55z" />
    <glyph glyph-name="uni02EE" unicode="&#x2ee;" horiz-adv-x="716" 
d="M307 1450l-129 -467h-35l115 467h49zM573 1450l-133 -467h-34l118 467h49z" />
    <glyph glyph-name="gravecmb" unicode="&#x300;" horiz-adv-x="0" 
d="M-492 1450h56l211 -295h-39z" />
    <glyph glyph-name="acutecmb" unicode="&#x301;" horiz-adv-x="0" 
d="M-225 1450l-228 -295h-39l211 295h56z" />
    <glyph glyph-name="circumflexcmb" unicode="&#x302;" horiz-adv-x="0" 
d="M-281 1450h58l211 -295h-47l-193 270l-192 -270h-48z" />
    <glyph glyph-name="tildecmb" unicode="&#x303;" horiz-adv-x="0" 
d="M-125 1219q-51 0 -132 49t-120 49q-66 0 -82 -105h-33q8 70 40 107t79 37t126 -49t122 -50q68 0 82 99h33q-14 -137 -115 -137z" />
    <glyph glyph-name="macroncmb" unicode="&#x304;" horiz-adv-x="0" 
d="M-16 1272h-476v41h476v-41z" />
    <glyph glyph-name="brevecmb" unicode="&#x306;" horiz-adv-x="0" 
d="M-236 1171q-102 0 -171 68t-85 191h39q21 -104 77 -160t143 -58q87 0 141 52t78 166h37q-21 -123 -89 -191t-170 -68z" />
    <glyph glyph-name="dotaccentcmb" unicode="&#x307;" horiz-adv-x="0" 
d="M-444 1296q-18 0 -32 14t-16 39q0 23 14 37t34 14q18 0 32 -14t14 -36t-14 -38t-32 -16z" />
    <glyph glyph-name="dieresiscmb" unicode="&#x308;" horiz-adv-x="0" 
d="M-444 1296q-18 0 -32 14t-16 39q0 23 14 37t34 14q18 0 32 -14t14 -36t-14 -38t-32 -16zM-129 1296q-19 0 -33 14t-14 39q0 23 14 37q33 32 66 0q14 -14 14 -36t-14 -38t-33 -16z" />
    <glyph glyph-name="hookabovecomb" unicode="&#x309;" 
d="M256 1137h-39q1 39 21 65t84 56t63 88q0 58 -34 91q-34 32 -91 31q-131 0 -154 -129l-38 7q33 162 192 161q74 0 120 -42t46 -109q0 -92 -100 -139q-70 -33 -70 -80z" />
    <glyph glyph-name="ringcmb" unicode="&#x30a;" horiz-adv-x="0" 
d="M-98 1330q0 -81 -58 -137t-139 -56q-80 0 -138 56q-59 56 -59 137t58 138q58 58 139 58t139 -58t58 -138zM-137 1331q0 66 -46 113t-112 47t-112 -47t-46 -113q0 -67 46 -113t112 -46t112 46q46 47 46 113z" />
    <glyph glyph-name="hungarumlautcmb" unicode="&#x30b;" horiz-adv-x="0" 
d="M-225 1450l-228 -297h-39l211 297h56zM14 1450l-227 -297h-39l211 297h55z" />
    <glyph glyph-name="caroncmb" unicode="&#x30c;" horiz-adv-x="0" 
d="M-223 1155h-58l-211 295h48l192 -270l193 270h47z" />
    <glyph glyph-name="doublegravecmb" unicode="&#x30f;" horiz-adv-x="0" 
d="M-492 1450h56l211 -295h-39zM-737 1450h55l211 -295h-39z" />
    <glyph glyph-name="invertedbrevecmb" unicode="&#x311;" horiz-adv-x="0" 
d="M-258 1171q-102 0 -171 68t-85 191h39q21 -104 77 -160t143 -58q87 0 140 52t78 166h37q-20 -123 -88 -191t-170 -68z" />
    <glyph glyph-name="horncmb" unicode="&#x31b;" horiz-adv-x="0" 
d="M-336 942q168 0 168 148q0 61 -29 118l47 15q27 -55 27 -139t-55 -134t-165 -49q-110 0 -138 41h145z" />
    <glyph glyph-name="dotbelowcomb" unicode="&#x323;" 
d="M199 -296q0 22 13 36q14 16 34 16t34 -15t13 -37q0 -22 -13 -37q-14 -15 -34 -15t-34 15q-13 15 -13 37z" />
    <glyph glyph-name="dieresisbelowcmb" unicode="&#x324;" horiz-adv-x="0" 
d="M-444 -248q-18 0 -32 14t-16 38q0 24 14 38t34 14q18 0 32 -14t14 -37t-14 -38t-32 -15zM-129 -248q-19 0 -33 14t-14 38t14 38q33 33 66 0q14 -14 14 -37t-14 -38t-33 -15z" />
    <glyph glyph-name="ringbelowcmb" unicode="&#x325;" horiz-adv-x="0" 
d="M-98 -339q0 -81 -58 -137t-139 -56q-80 0 -138 56q-59 56 -59 137t58 138t139 57t139 -56q58 -58 58 -139zM-137 -338q0 66 -46 113t-112 47t-112 -47t-46 -113t46 -113t112 -47t112 47t46 113z" />
    <glyph glyph-name="commabelowcmb" unicode="&#x326;" horiz-adv-x="0" 
d="M-326 -143l-131 -467h-35l117 467h49z" />
    <glyph glyph-name="cedillacmb" unicode="&#x327;" horiz-adv-x="0" 
d="M-253 -160q69 0 122 -32t53 -114q0 -81 -72 -119t-160 -38t-182 41l11 35q72 -37 176 -37q184 0 184 125q0 104 -147 104q-86 0 -142 -30l-20 18l141 207h43l-121 -176q45 16 114 16z" />
    <glyph glyph-name="ogonekcmb" unicode="&#x328;" horiz-adv-x="0" 
d="M-446 -288q0 -62 36 -97t109 -35q74 0 129 60l20 -33q-70 -63 -156 -63t-134 43q-50 45 -50 107t30 118t63 91q33 36 96 97h47q-106 -106 -148 -166t-42 -122z" />
    <glyph glyph-name="circumflexbelowcmb" unicode="&#x32d;" horiz-adv-x="0" 
d="M-281 -143h58l211 -295h-47l-193 270l-192 -270h-48z" />
    <glyph glyph-name="brevebelowcmb" unicode="&#x32e;" horiz-adv-x="0" 
d="M-233 -360q87 0 141 51q53 51 78 166h37q-21 -123 -89 -191t-170 -68t-171 68t-85 191h39q21 -105 77 -161t143 -56z" />
    <glyph glyph-name="tildebelowcmb" unicode="&#x330;" horiz-adv-x="0" 
d="M-125 -242q68 0 82 99h33q-14 -137 -115 -138q-51 -1 -132 49t-120 50q-66 0 -82 -105h-33q8 70 40 107q32 36 79 36t126 -49t122 -49z" />
    <glyph glyph-name="macronbelowcmb" unicode="&#x331;" horiz-adv-x="0" 
d="M-16 -184h-476v41h476v-41z" />
    <glyph glyph-name="gravetonecmb" unicode="&#x340;" horiz-adv-x="0" 
d="M-492 1450h56l211 -295h-39z" />
    <glyph glyph-name="acutetonecmb" unicode="&#x341;" horiz-adv-x="0" 
d="M-225 1450l-228 -295h-39l211 295h56z" />
    <glyph glyph-name="dialytikatonoscmb" unicode="&#x344;" horiz-adv-x="0" 
d="M-154 1849l-227 -295h-39l211 295h55zM-444 1296q-18 0 -32 14t-16 39q0 23 14 37t34 14q18 0 32 -14t14 -36t-14 -38t-32 -16zM-129 1296q-19 0 -33 14t-14 39q0 23 14 37q33 32 66 0q14 -14 14 -36t-14 -38t-33 -16z" />
    <glyph glyph-name="combininggraphemejoiner" unicode="&#x34f;" horiz-adv-x="1024" 
 />
    <glyph glyph-name="uni037E" unicode="&#x37e;" horiz-adv-x="573" 
d="M287 838q-18 0 -33 14q-14 14 -14 38t14 38t32 14t33 -14t15 -37t-14 -38t-33 -15zM332 184l-131 -467h-35l117 467h49z" />
    <glyph glyph-name="u0384" unicode="&#x384;" horiz-adv-x="532" 
d="M250 1112l-12 354h55l-10 -354h-33z" />
    <glyph glyph-name="dieresistonos" unicode="&#x385;" 
d="M233 1112l-12 354h55l-10 -354h-33zM88 1116q-18 0 -33 14q-14 14 -14 38t14 38q33 33 66 0q14 -14 14 -37q-1 -23 -15 -38t-32 -15zM403 1116q-18 0 -32 14q-15 14 -15 38t14 38q33 32 66 0q14 -14 14 -37t-14 -38q-15 -15 -33 -15z" />
    <glyph glyph-name="u0386" unicode="&#x386;" horiz-adv-x="1363" 
d="M1327 0h-49l-172 416h-842l-178 -416h-49l629 1450h57zM1092 455l-400 966l-411 -966h811zM188 1112l-12 354h55l-10 -354h-33z" />
    <glyph glyph-name="anoteleia" unicode="&#x387;" 
d="M246 469q-18 0 -33 14q-14 14 -14 38t14 38q15 14 33 14t32 -14t15 -37q-1 -23 -15 -38t-32 -15z" />
    <glyph glyph-name="u0388" unicode="&#x388;" horiz-adv-x="1466" 
d="M1352 0h-877v1450h844v-41h-801v-637h754v-41h-754v-690h834v-41zM188 1112l-12 354h55l-10 -354h-33z" />
    <glyph glyph-name="u0389" unicode="&#x389;" horiz-adv-x="1689" 
d="M1473 0h-46v729h-974v-729h-45v1450h45v-680h974v680h46v-1450zM188 1112l-12 354h55l-10 -354h-33z" />
    <glyph glyph-name="u038A" unicode="&#x38a;" horiz-adv-x="733" 
d="M516 0h-45v1450h45v-1450zM188 1112l-12 354h55l-10 -354h-33z" />
    <glyph glyph-name="u038C" unicode="&#x38c;" horiz-adv-x="1941" 
d="M1794 725q0 -334 -212 -550t-534 -216t-533 216q-212 216 -212 550t211 550t535 216q325 0 535 -216t210 -550zM1749 725q0 307 -198 516q-199 209 -503 209t-502 -209t-198 -516t196 -516t505 -209t505 209t195 516zM188 1112l-12 354h55l-10 -354h-33z" />
    <glyph glyph-name="u038E" unicode="&#x38e;" horiz-adv-x="1540" 
d="M1012 0h-45v635l-498 815h53l469 -770l467 770h51l-497 -815v-635zM188 1112l-12 354h55l-10 -354h-33z" />
    <glyph glyph-name="u038F" unicode="&#x38f;" horiz-adv-x="1779" 
d="M1640 0h-456v356q194 33 318 171t124 323q0 268 -174 414t-450 147q-276 0 -449 -146q-172 -146 -172 -415q0 -203 121 -333t321 -161v-356h-456v39h411v280q-206 41 -324 187t-118 346q0 274 193 436q194 162 477 162t474 -161t191 -435q0 -184 -122 -338t-320 -194
v-283h411v-39zM188 1112l-12 354h55l-10 -354h-33z" />
    <glyph glyph-name="u0390" unicode="&#x390;" horiz-adv-x="512" 
d="M274 0h-45v942h45v-942zM240 1112l-13 354h56l-11 -354h-32zM94 1116q-18 0 -33 14q-14 14 -14 38t14 38q33 33 66 0q14 -14 14 -37q-1 -23 -15 -38t-32 -15zM410 1116q-18 0 -33 14t-15 38t14 38t34 14q18 0 32 -14t14 -37t-14 -38t-32 -15z" />
    <glyph glyph-name="u0391" unicode="&#x391;" horiz-adv-x="1363" 
d="M1327 0h-49l-172 416h-842l-178 -416h-49l629 1450h57zM1092 455l-400 966l-411 -966h811z" />
    <glyph glyph-name="u0392" unicode="&#x392;" horiz-adv-x="1253" 
d="M1128 378q0 -102 -43 -182t-115 -119q-138 -77 -308 -77h-445v1450h395q185 0 307 -71q142 -81 142 -271q0 -143 -84 -226t-211 -112v-4q118 -12 240 -103q122 -90 122 -285zM1016 1106q0 160 -116 232t-300 71h-338v-625h348q164 0 285 81t121 241zM1083 381
q0 125 -68 210q-125 154 -351 152h-402v-702h379q201 0 322 84q120 84 120 256z" />
    <glyph glyph-name="u0393" unicode="&#x393;" horiz-adv-x="1019" 
d="M217 1450h766v-41h-721v-1409h-45v1450z" />
    <glyph glyph-name="u0394" unicode="&#x394;" horiz-adv-x="1345" 
d="M1309 0h-1272l600 1458h63zM1247 41l-579 1378l-574 -1378h1153z" />
    <glyph glyph-name="u0395" unicode="&#x395;" horiz-adv-x="1208" 
d="M1094 0h-877v1450h844v-41h-801v-637h754v-41h-754v-690h834v-41z" />
    <glyph glyph-name="u0396" unicode="&#x396;" horiz-adv-x="1216" 
d="M1130 0h-1019v55l954 1354h-928v41h969v-59l-952 -1350h976v-41z" />
    <glyph glyph-name="u0397" unicode="&#x397;" horiz-adv-x="1499" 
d="M1282 0h-45v729h-975v-729h-45v1450h45v-680h975v680h45v-1450z" />
    <glyph glyph-name="u0398" unicode="&#x398;" horiz-adv-x="1785" 
d="M1321 754v-39h-854v39h854zM1638 725q0 -334 -212 -550t-534 -216t-533 216q-212 216 -212 550t211 550t535 216q325 0 535 -216t210 -550zM1593 725q0 307 -197 516q-198 209 -503 209t-503 -209t-198 -516t196 -516t505 -209t505 209q195 209 195 516z" />
    <glyph glyph-name="u0399" unicode="&#x399;" horiz-adv-x="479" 
d="M262 0h-45v1450h45v-1450z" />
    <glyph glyph-name="u039A" unicode="&#x39a;" horiz-adv-x="1157" 
d="M262 784h2l729 666h66l-737 -666l774 -784h-64l-768 780h-2v-780h-45v1450h45v-666z" />
    <glyph glyph-name="u039B" unicode="&#x39b;" horiz-adv-x="1417" 
d="M705 1405l-617 -1405h-51l629 1450h84l630 -1450h-51l-616 1405h-8z" />
    <glyph glyph-name="u039C" unicode="&#x39c;" horiz-adv-x="1855" 
d="M1638 0h-45v1399h-8l-641 -1399h-37l-639 1399h-6v-1399h-45v1450h80l631 -1384l631 1384h79v-1450z" />
    <glyph glyph-name="u039D" unicode="&#x39d;" horiz-adv-x="1591" 
d="M1374 0h-65l-1041 1393h-6v-1393h-45v1450h64l1042 -1391h6v1391h45v-1450z" />
    <glyph glyph-name="u039E" unicode="&#x39e;" horiz-adv-x="1241" 
d="M115 1450h987v-43h-987v43zM158 774h895v-39h-895v39zM115 41h1011v-41h-1011v41z" />
    <glyph glyph-name="u039F" unicode="&#x39f;" horiz-adv-x="1785" 
d="M1638 725q0 -334 -212 -550t-534 -216t-533 216q-212 216 -212 550t211 550t535 216q325 0 535 -216t210 -550zM1593 725q0 307 -197 516q-198 209 -503 209t-503 -209t-198 -516t196 -516t505 -209t505 209q195 209 195 516z" />
    <glyph glyph-name="u03A0" unicode="&#x3a0;" horiz-adv-x="1458" 
d="M1241 1450v-1450h-45v1405h-934v-1405h-45v1450h1024z" />
    <glyph glyph-name="u03A1" unicode="&#x3a1;" horiz-adv-x="1171" 
d="M1059 1090q0 -178 -121 -278t-301 -99h-375v-713h-45v1450h393q115 0 210 -30t167 -114t72 -216zM1014 1090q0 114 -60 190t-144 104q-83 28 -181 27h-367v-659h377q155 0 265 85t110 253z" />
    <glyph glyph-name="u03A3" unicode="&#x3a3;" horiz-adv-x="1302" 
d="M135 1450h1008v-41h-940v-4l784 -668v-10l-784 -682v-4h964v-41h-1032v51l783 676v12l-783 660v51z" />
    <glyph glyph-name="u03A4" unicode="&#x3a4;" horiz-adv-x="1105" 
d="M1069 1409h-494v-1409h-45v1409h-493v41h1032v-41z" />
    <glyph glyph-name="u03A5" unicode="&#x3a5;" horiz-adv-x="1101" 
d="M573 0h-45v635l-497 815h53l469 -770l467 770h51l-498 -815v-635z" />
    <glyph glyph-name="u03A6" unicode="&#x3a6;" horiz-adv-x="1781" 
d="M1634 725q0 -291 -206 -465t-513 -182v-182h-45v182q-310 4 -516 180t-207 467q1 291 207 467t516 180v168h45v-168q307 -8 513 -182t206 -465zM1589 725q1 263 -185 431t-489 175v-1212q302 6 488 174t186 432zM195 725q0 -264 186 -432t489 -174v1212
q-303 -5 -489 -173t-186 -433z" />
    <glyph glyph-name="u03A7" unicode="&#x3a7;" horiz-adv-x="1208" 
d="M1143 0h-56l-483 725l-485 -725h-53l512 760l-463 690h53l436 -655l436 655h52l-461 -690z" />
    <glyph glyph-name="u03A8" unicode="&#x3a8;" horiz-adv-x="1738" 
d="M197 860v590h45v-592q0 -233 147 -350t354 -117h105v1059h45v-1059h102q205 0 354 116q148 116 148 341v602h45v-590q0 -246 -150 -378t-388 -132h-111v-350h-45v350h-113q-238 0 -388 132t-150 378z" />
    <glyph glyph-name="u03A9" unicode="&#x3a9;" horiz-adv-x="1552" 
d="M1413 0h-457v356q195 33 319 171t124 323q0 268 -174 414q-175 146 -451 147q-276 0 -448 -146t-172 -415q0 -203 120 -333t322 -161v-356h-457v39h412v280q-207 41 -325 187t-117 346q0 274 193 436q194 162 476 162t474 -161q191 -161 192 -435q0 -184 -122 -338
t-321 -194v-283h412v-39z" />
    <glyph glyph-name="u03AA" unicode="&#x3aa;" horiz-adv-x="479" 
d="M262 0h-45v1450h45v-1450zM82 1706q-18 0 -33 14q-14 14 -14 38t14 38q15 14 33 14t32 -14t15 -37q-1 -23 -15 -38t-32 -15zM397 1706q-18 0 -32 14q-15 14 -15 38t14 38t33 14t33 -14t14 -37t-14 -38t-33 -15z" />
    <glyph glyph-name="u03AB" unicode="&#x3ab;" horiz-adv-x="1101" 
d="M573 0h-45v635l-497 815h53l469 -770l467 770h51l-498 -815v-635zM395 1706q-18 0 -33 14q-14 14 -14 38t14 38t32 14t34 -14q14 -14 14 -37t-14 -38t-33 -15zM711 1706q-18 0 -33 14q-14 14 -14 38t14 38t32 14t33 -14t15 -37t-14 -38t-33 -15z" />
    <glyph glyph-name="u03AC" unicode="&#x3ac;" horiz-adv-x="1304" 
d="M1059 221h-10q-72 -113 -191 -173t-248 -60q-213 0 -348 140t-135 351t135 351t348 141q131 1 250 -63t193 -179h6v213h45v-942h-45v221zM174 477q0 -195 121 -323t321 -129q200 0 324 131q125 132 125 324t-125 321q-124 129 -324 129t-321 -129t-121 -324zM639 1112
l-12 354h55l-10 -354h-33z" />
    <glyph glyph-name="u03AD" unicode="&#x3ad;" horiz-adv-x="950" 
d="M504 932q-154 0 -242 -58q-90 -58 -90 -160t101 -156t259 -54h99v-43h-123q-174 0 -272 -52t-98 -160t100 -171q100 -64 262 -64t274 88q55 45 78 88l37 -24q-35 -59 -88 -96q-127 -94 -311 -94t-289 75q-106 76 -107 199q0 82 52 135q89 91 284 102v2q-123 -1 -213 61
t-90 172t101 180q102 70 268 69q166 0 278 -84q49 -37 76 -82l-43 -19q-20 39 -59 72q-90 74 -244 74zM475 1112l-12 354h55l-10 -354h-33z" />
    <glyph glyph-name="u03AE" unicode="&#x3ae;" horiz-adv-x="1179" 
d="M258 694h4q42 127 146 202t227 75q180 0 260 -116t80 -286v-1036h-45v1032q0 131 -58 240q-31 57 -92 92t-145 35q-159 0 -267 -126t-108 -335v-471h-45v705q0 150 -10 237h45q8 -68 8 -248zM586 1112l-13 354h56l-11 -354h-32z" />
    <glyph glyph-name="u03AF" unicode="&#x3af;" horiz-adv-x="462" 
d="M254 0h-45v942h45v-942zM217 1112l-12 354h55l-10 -354h-33z" />
    <glyph glyph-name="u03B0" unicode="&#x3b0;" horiz-adv-x="1165" 
d="M584 -23q-203 0 -303 111t-101 287v567h45v-567q0 -147 87 -253q86 -106 272 -106t275 106t89 253v567h43v-567q0 -174 -102 -286t-305 -112zM573 1112l-12 354h55l-10 -354h-33zM428 1116q-18 0 -33 14q-14 14 -14 38t14 38q33 33 66 0q14 -14 14 -37q-1 -23 -15 -38
t-32 -15zM743 1116q-18 0 -32 14q-15 14 -15 38t14 38q33 32 66 0q14 -14 14 -37t-14 -38q-15 -15 -33 -15z" />
    <glyph glyph-name="u03B1" unicode="&#x3b1;" horiz-adv-x="1304" 
d="M1059 221h-10q-72 -113 -191 -173t-248 -60q-213 0 -348 140t-135 351t135 351t348 141q131 1 250 -63t193 -179h6v213h45v-942h-45v221zM174 477q0 -195 121 -323t321 -129q200 0 324 131q125 132 125 324t-125 321q-124 129 -324 129t-321 -129t-121 -324z" />
    <glyph glyph-name="u03B2" unicode="&#x3b2;" horiz-adv-x="1253" 
d="M250 1083v-704q0 -172 117 -267q117 -96 285 -96t301 110q132 110 132 290t-114 278q-115 98 -305 99h-152v38h135q127 1 206 89t79 236t-95 236t-249 89q-154 -1 -247 -101t-93 -297zM250 -467h-45v1565q1 200 109 312t272 112t278 -98t115 -248t-63 -242t-154 -105v-6
q108 0 231 -92q59 -45 99 -127t38 -182q0 -209 -140 -328t-361 -119q-176 0 -295 99q-55 45 -84 100v-641z" />
    <glyph glyph-name="u03B3" unicode="&#x3b3;" horiz-adv-x="1140" 
d="M602 -467h-45v563l-461 844h54l430 -780l411 782l51 -2l-440 -844v-563z" />
    <glyph glyph-name="u03B4" unicode="&#x3b4;" horiz-adv-x="1234" 
d="M223 1280q0 106 119 168q118 62 300 63q182 0 306 -38q41 -12 101 -39l-17 -37q-48 20 -154 48t-220 28q-114 1 -194 -19q-81 -20 -135 -62q-53 -42 -55 -100t28 -83t47 -39q26 -21 241 -104q380 -149 477 -354q45 -95 45 -216q0 -228 -137 -374t-352 -146t-355 140
t-141 355q0 215 138 349t345 134l72 -2h16l11 13q-6 12 -263 116l-20 9q-23 8 -29 11q-5 3 -27 12t-31 15t-29 18t-28 20l-23 23q-36 36 -36 91zM624 10q202 0 322 133t121 332q0 199 -120 322q-121 123 -323 123t-327 -126t-125 -324t125 -329t327 -131z" />
    <glyph glyph-name="u03B5" unicode="&#x3b5;" horiz-adv-x="950" 
d="M504 932q-154 0 -242 -58q-90 -58 -90 -160t101 -156t259 -54h99v-43h-123q-174 0 -272 -52t-98 -160t100 -171q100 -64 262 -64t274 88q55 45 78 88l37 -24q-35 -59 -88 -96q-127 -94 -311 -94t-289 75q-106 76 -107 199q0 82 52 135q89 91 284 102v2q-123 -1 -213 61
t-90 172t101 180q102 70 268 69q166 0 278 -84q49 -37 76 -82l-43 -19q-20 39 -59 72q-90 74 -244 74z" />
    <glyph glyph-name="u03B6" unicode="&#x3b6;" horiz-adv-x="1052" 
d="M131 477q0 541 733 965h-676v45l768 -2v-45q-123 -52 -257 -150q-311 -226 -446 -499q-77 -154 -77 -308t58 -226q34 -42 68 -69t112 -53t192 -45q115 -20 143 -28q29 -8 71 -23q136 -51 136 -199q0 -62 -38 -129t-98 -105q-114 -75 -195 -89l-19 41q308 86 306 276
q0 59 -25 97t-84 62t-86 31t-69 14t-49 9t-41 8t-102 21q-69 15 -116 40q-109 58 -159 141t-50 220z" />
    <glyph glyph-name="u03B7" unicode="&#x3b7;" horiz-adv-x="1179" 
d="M258 694h4q42 127 146 202t227 75q180 0 260 -116t80 -286v-1036h-45v1032q0 131 -58 240q-31 57 -92 92t-145 35q-159 0 -267 -126t-108 -335v-471h-45v705q0 150 -10 237h45q8 -68 8 -248z" />
    <glyph glyph-name="u03B8" unicode="&#x3b8;" horiz-adv-x="1253" 
d="M624 1546q250 0 368 -214t118 -576t-117 -578q-117 -215 -366 -215q-170 1 -282 107t-157 278t-45 412q0 362 115 574t366 212zM627 1507q-335 0 -414 -452q-21 -124 -22 -277h-7v-39h7q6 -739 436 -739q156 0 256 103t141 263t43 371h29v41h-29q-3 325 -108 527
t-332 202zM191 778h876v-41l-876 2v39z" />
    <glyph glyph-name="u03B9" unicode="&#x3b9;" horiz-adv-x="454" 
d="M250 0h-45v942h45v-942z" />
    <glyph glyph-name="u03BA" unicode="&#x3ba;" horiz-adv-x="935" 
d="M250 942v-424h6l479 424h58l-488 -430l537 -512h-62l-524 496h-6v-496h-45v942h45z" />
    <glyph glyph-name="u03BB" unicode="&#x3bb;" horiz-adv-x="876" 
d="M137 1397q-43 0 -76 -13l-12 39q39 14 84 15q159 -1 227 -185l467 -1253h-49l-334 918l-346 -918h-49l373 969l-90 245q-29 82 -73 132t-122 51z" />
    <glyph glyph-name="u03BC" unicode="&#x3bc;" horiz-adv-x="1175" 
d="M922 0v248h-4q-44 -129 -146 -203t-227 -74q-215 0 -295 176v-614h-45v1409h45v-565q0 -133 57 -240q31 -57 92 -92t146 -35q159 0 267 126t108 335v471h45v-704l6 -238h-49z" />
    <glyph glyph-name="u03BD" unicode="&#x3bd;" horiz-adv-x="888" 
d="M840 942l-361 -942h-59l-371 942h49l351 -897h4l338 897h49z" />
    <glyph glyph-name="u03BE" unicode="&#x3be;" horiz-adv-x="960" 
d="M86 390q0 158 119 247q119 90 284 115v4q-129 8 -241 81q-59 39 -96 105t-37 152q1 152 109 230t315 118l-7 12l-47 -6q-47 -6 -135 -6h-225v45h702l-2 -35q-409 -49 -549 -140q-118 -80 -116 -216q0 -164 135 -242t362 -78h183v-39h-209q-219 0 -357 -94t-143 -258
q-4 -133 119 -203t414 -114q264 -43 264 -228q0 -88 -69 -164q-118 -130 -263 -157l-23 35q115 26 212 98t98 176q0 45 -9 72q-8 26 -40 58q-63 63 -281 95q-219 31 -343 105t-124 232z" />
    <glyph glyph-name="u03BF" unicode="&#x3bf;" horiz-adv-x="1239" 
d="M1112 472q0 -220 -138 -360t-356 -140t-354 140q-137 140 -137 360t137 359t354 139q218 0 356 -138q138 -140 138 -360zM1067 473q0 197 -123 328t-326 131q-202 0 -324 -131t-122 -328t122 -330t324 -133t326 133q123 133 123 330z" />
    <glyph glyph-name="u03C0" unicode="&#x3c0;" horiz-adv-x="1423" 
d="M377 903v-903h-45v903h-238v39h1235v-39h-235v-903h-45v903h-672z" />
    <glyph glyph-name="u03C1" unicode="&#x3c1;" horiz-adv-x="1308" 
d="M248 233v-725h-43v971q0 229 143 361t351 131t345 -141q138 -140 138 -353t-138 -357t-352 -145q-131 0 -249 69t-191 189h-4zM1137 478q0 198 -122 326q-121 128 -321 128t-322 -129t-122 -330t123 -330t321 -129t321 133q122 133 122 331z" />
    <glyph glyph-name="u03C2" unicode="&#x3c2;" horiz-adv-x="1040" 
d="M862 -164q0 166 -250 203q-51 8 -95 18t-116 43q-73 33 -121 77t-86 124t-38 180q0 219 130 355t336 135q206 0 316 -154l-29 -29q-93 142 -283 142t-308 -122t-117 -325q1 -91 29 -159t65 -108t112 -73t121 -46t118 -31t102 -27q100 -35 136 -96q22 -39 22 -103
t-38 -124q-37 -60 -112 -110t-162 -73l-27 35q115 28 205 92t90 176z" />
    <glyph glyph-name="u03C3" unicode="&#x3c3;" horiz-adv-x="1320" 
d="M1112 472q0 -220 -138 -360t-356 -140t-354 140q-137 140 -137 360t137 359t354 140q99 0 181 -29h481v-39h-397q49 -29 91 -72q138 -139 138 -359zM1067 473q0 197 -123 328t-326 131q-202 0 -324 -131t-122 -328t122 -330t324 -133t326 133q123 133 123 330z" />
    <glyph glyph-name="u03C4" unicode="&#x3c4;" horiz-adv-x="1001" 
d="M94 942h813v-39h-395v-903h-45v903h-373v39z" />
    <glyph glyph-name="u03C5" unicode="&#x3c5;" horiz-adv-x="1220" 
d="M608 -23q-203 0 -303 111t-100 287v567h45v-567q0 -147 87 -253t272 -106t275 106t89 253v567h43v-567q0 -174 -102 -286t-306 -112z" />
    <glyph glyph-name="u03C6" unicode="&#x3c6;" horiz-adv-x="1552" 
d="M805 16h39q240 0 406 132t167 352q0 112 -50 194q-81 134 -278 189q-75 20 -143 20h-141v-887zM760 16v926h184q222 0 370 -127t148 -328q0 -239 -185 -375t-433 -137h-39v-442h-45v442h-35q-275 1 -455 133t-180 375q0 182 119 299t278 160l19 -39q-145 -39 -258 -145
t-113 -273q0 -219 166 -344t438 -125h21z" />
    <glyph glyph-name="u03C7" unicode="&#x3c7;" horiz-adv-x="1107" 
d="M530 268l-411 674h49l387 -634l389 634h43l-409 -672l450 -737h-49l-426 697l-424 -697h-49z" />
    <glyph glyph-name="u03C8" unicode="&#x3c8;" horiz-adv-x="1642" 
d="M195 512v430h45v-450q0 -211 150 -332t351 -121h56v903h45v-903h78q287 0 426 203q76 111 75 270v430h45v-430q0 -246 -150 -379t-388 -133h-86v-467h-45v467h-64q-238 0 -388 133t-150 379z" />
    <glyph glyph-name="u03C9" unicode="&#x3c9;" horiz-adv-x="1650" 
d="M473 -23q-158 -1 -258 131t-100 344t128 344t308 175l14 -41q-406 -106 -405 -484q0 -184 90 -305t236 -125t231 102q84 106 84 298v200h45v-200q0 -193 84 -298q84 -106 230 -102t237 125q90 121 90 305q0 377 -406 484l15 41q167 -41 302 -167q134 -126 134 -366
q0 -200 -100 -330t-258 -130t-248 85q-90 86 -101 238h-4q-10 -152 -100 -238t-248 -86z" />
    <glyph glyph-name="u03CA" unicode="&#x3ca;" horiz-adv-x="462" 
d="M254 0h-45v942h45v-942zM74 1296q-18 0 -32 14t-15 39q0 23 14 37q15 14 33 14t32 -14t14 -36t-14 -38t-32 -16zM389 1296q-19 0 -33 14t-14 39q0 23 14 37q33 32 66 0q14 -14 14 -36t-14 -38t-33 -16z" />
    <glyph glyph-name="u03CB" unicode="&#x3cb;" horiz-adv-x="1220" 
d="M608 -23q-203 0 -303 111t-100 287v567h45v-567q0 -147 87 -253t272 -106t275 106t89 253v567h43v-567q0 -174 -102 -286t-306 -112zM453 1296q-19 0 -33 14t-14 39q0 23 14 37t32 14t33 -14t15 -36t-14 -38t-33 -16zM768 1296q-18 0 -32 14t-15 39q0 23 14 37
q33 32 66 0q14 -14 14 -36q-1 -22 -15 -38t-32 -16z" />
    <glyph glyph-name="u03CC" unicode="&#x3cc;" horiz-adv-x="1239" 
d="M1112 472q0 -220 -138 -360t-356 -140t-354 140q-137 140 -137 360t137 359t354 139q218 0 356 -138q138 -140 138 -360zM1067 473q0 197 -123 328t-326 131q-202 0 -324 -131t-122 -328t122 -330t324 -133t326 133q123 133 123 330zM610 1112l-12 354h55l-10 -354h-33z
" />
    <glyph glyph-name="u03CD" unicode="&#x3cd;" horiz-adv-x="1220" 
d="M608 -23q-203 0 -303 111t-100 287v567h45v-567q0 -147 87 -253t272 -106t275 106t89 253v567h43v-567q0 -174 -102 -286t-306 -112zM596 1112l-12 354h55l-10 -354h-33z" />
    <glyph glyph-name="u03CE" unicode="&#x3ce;" horiz-adv-x="1650" 
d="M473 -23q-158 -1 -258 131t-100 344t128 344t308 175l14 -41q-406 -106 -405 -484q0 -184 90 -305t236 -125t231 102q84 106 84 298v200h45v-200q0 -193 84 -298q84 -106 230 -102t237 125q90 121 90 305q0 377 -406 484l15 41q167 -41 302 -167q134 -126 134 -366
q0 -200 -100 -330t-258 -130t-248 85q-90 86 -101 238h-4q-10 -152 -100 -238t-248 -86zM809 1112l-12 354h55l-10 -354h-33z" />
    <glyph glyph-name="u0401" unicode="&#x401;" horiz-adv-x="1208" 
d="M1094 0h-877v1450h844v-41h-801v-637h754v-41h-754v-690h834v-41zM489 1706q-18 0 -32 14q-15 14 -15 38t14 38t33 14t33 -14t14 -37t-14 -38q-15 -15 -33 -15zM805 1706q-18 0 -33 14q-14 14 -14 38t14 38t32 14t34 -14q14 -14 14 -37t-14 -38t-33 -15z" />
    <glyph glyph-name="u0402" unicode="&#x402;" horiz-adv-x="1699" 
d="M535 440v-440h-46v1409h-452v41h1096v-41h-598v-743q57 139 181 222t312 83q225 0 380 -153t155 -460t-142 -487q-120 -153 -268 -227l-33 28q150 73 262 218q136 176 136 462q0 285 -144 432q-144 148 -358 148q-213 0 -347 -134t-134 -358z" />
    <glyph glyph-name="u0403" unicode="&#x403;" horiz-adv-x="1019" 
d="M217 1450h766v-41h-721v-1409h-45v1450zM791 1860l-228 -295h-39l211 295h56z" />
    <glyph glyph-name="u0404" unicode="&#x404;" horiz-adv-x="1482" 
d="M887 -41q-326 0 -533 216t-207 550t207 550q206 216 520 216t494 -186l-29 -33q-81 86 -205 132t-247 46q-307 0 -497 -206t-197 -499h970v-40h-970q5 -297 195 -501t499 -204q141 0 271 54t214 155l33 -31q-90 -106 -228 -162t-290 -57z" />
    <glyph glyph-name="u0405" unicode="&#x405;" horiz-adv-x="1167" 
d="M893 64q-127 -104 -313 -105q-270 0 -433 178l35 31q156 -168 396 -168q168 0 282 94t115 263q0 169 -174 261q-93 51 -261 103q-167 52 -267 136q-99 85 -99 257t129 274t318 103q242 0 372 -162l-35 -31q-119 152 -340 152q-160 0 -280 -88t-119 -249q0 -161 116 -245
q95 -67 245 -114q90 -30 142 -50t117 -56q181 -100 181 -290t-127 -294z" />
    <glyph glyph-name="u0406" unicode="&#x406;" horiz-adv-x="479" 
d="M262 0h-45v1450h45v-1450z" />
    <glyph glyph-name="u0407" unicode="&#x407;" horiz-adv-x="479" 
d="M262 0h-45v1450h45v-1450zM82 1706q-18 0 -33 14q-14 14 -14 38t14 38q15 14 33 14t32 -14t15 -37q-1 -23 -15 -38t-32 -15zM397 1706q-18 0 -32 14q-15 14 -15 38t14 38t33 14t33 -14t14 -37t-14 -38t-33 -15z" />
    <glyph glyph-name="u0408" unicode="&#x408;" horiz-adv-x="983" 
d="M774 1450v-1055q0 -205 -94 -319t-277 -113q-123 0 -215 65t-129 162l39 19q43 -93 123 -149t182 -56q168 0 247 108t79 289v1049h45z" />
    <glyph glyph-name="u0409" unicode="&#x409;" horiz-adv-x="1994" 
d="M1153 729v-688h303q162 0 281 83t119 256t-109 261t-309 88h-285zM1432 0h-324v1409h-393l-572 -1409h-49l592 1450h467v-680h258q489 0 490 -391q0 -283 -300 -360q-79 -19 -169 -19z" />
    <glyph glyph-name="u040A" unicode="&#x40a;" horiz-adv-x="2013" 
d="M1153 729v-688h303q162 0 281 83t119 256t-109 261t-309 88h-285zM1425 0h-317v729h-846v-729h-45v1450h45v-680h846v680h45v-680h238q256 0 383 -101t127 -290q0 -283 -306 -360q-80 -19 -170 -19z" />
    <glyph glyph-name="u040B" unicode="&#x40b;" horiz-adv-x="1576" 
d="M535 909h426q207 1 313 -119t106 -325v-465h-45v432q0 219 -88 329t-307 109h-405v-870h-46v1409h-452v41h1096v-41h-598v-500z" />
    <glyph glyph-name="u040C" unicode="&#x40c;" horiz-adv-x="1157" 
d="M262 784h2l729 666h66l-737 -666l774 -784h-64l-768 780h-2v-780h-45v1450h45v-666zM862 1860l-227 -295h-39l211 295h55z" />
    <glyph glyph-name="u040E" unicode="&#x40e;" horiz-adv-x="1290" 
d="M328 25q153 0 291 245l-576 1180h53l550 -1129q9 17 18 35l522 1094h51l-541 -1135q-80 -166 -169 -253t-205 -87t-187 56l33 47q57 -53 160 -53zM629 1575q115 0 178 62t104 163l37 -16q-37 -106 -117 -178q-81 -72 -203 -72t-202 72t-117 178l37 16q40 -100 104 -162
t179 -63z" />
    <glyph glyph-name="u040F" unicode="&#x40f;" horiz-adv-x="1458" 
d="M1241 1450v-1450h-473v-326h-45v326h-506v1450h45v-1405h934v1405h45z" />
    <glyph glyph-name="u0410" unicode="&#x410;" horiz-adv-x="1363" 
d="M1327 0h-49l-172 416h-842l-178 -416h-49l629 1450h57zM1092 455l-400 966l-411 -966h811z" />
    <glyph glyph-name="u0411" unicode="&#x411;" horiz-adv-x="1243" 
d="M217 0v1450h813v-41h-768v-625h344q502 0 502 -383q0 -181 -139 -291t-377 -110h-375zM262 41h322q209 0 344 91q135 92 135 268q0 344 -455 343h-346v-702z" />
    <glyph glyph-name="u0412" unicode="&#x412;" horiz-adv-x="1253" 
d="M1128 378q0 -102 -43 -182t-115 -119q-138 -77 -308 -77h-445v1450h395q185 0 307 -71q142 -81 142 -271q0 -143 -84 -226t-211 -112v-4q118 -12 240 -103q122 -90 122 -285zM1016 1106q0 160 -116 232t-300 71h-338v-625h348q164 0 285 81t121 241zM1083 381
q0 125 -68 210q-125 154 -351 152h-402v-702h379q201 0 322 84q120 84 120 256z" />
    <glyph glyph-name="u0413" unicode="&#x413;" horiz-adv-x="1019" 
d="M217 1450h766v-41h-721v-1409h-45v1450z" />
    <glyph glyph-name="u0414" unicode="&#x414;" horiz-adv-x="1486" 
d="M1384 -285v299h-1280v-299h-59v351h166l494 1384h33l-472 -1384h951l-472 1384h41l490 -1384h168v-351h-60zM745 1450h-7l3 10z" />
    <glyph glyph-name="u0415" unicode="&#x415;" horiz-adv-x="1208" 
d="M1094 0h-877v1450h844v-41h-801v-637h754v-41h-754v-690h834v-41z" />
    <glyph glyph-name="u0416" unicode="&#x416;" horiz-adv-x="1732" 
d="M844 0v780h-2l-717 -780h-64l723 784l-690 666h66l682 -666h2v666h45v-666h2l682 666h65l-690 -666l723 -784h-63l-717 780h-2v-780h-45z" />
    <glyph glyph-name="u0417" unicode="&#x417;" horiz-adv-x="1189" 
d="M438 737v43h64q195 0 331 78t136 238t-110 246t-294 88q-119 0 -213 -56t-137 -147l-39 24q123 219 402 219q196 0 316 -98t120 -274q0 -119 -88 -209t-205 -123v-4q259 -38 340 -201q35 -70 35 -160q0 -197 -140 -307t-342 -110q-204 0 -316 68t-183 204l43 29
q129 -260 432 -260q219 0 340 101t121 275q0 336 -549 336h-64z" />
    <glyph glyph-name="u0418" unicode="&#x418;" horiz-adv-x="1591" 
d="M1374 1450v-1450h-45v1391h-6l-1042 -1391h-64v1450h45v-1393h6l1041 1393h65z" />
    <glyph glyph-name="u0419" unicode="&#x419;" horiz-adv-x="1591" 
d="M1374 1450v-1450h-45v1391h-6l-1042 -1391h-64v1450h45v-1393h6l1041 1393h65zM807 1575q115 0 178 62t105 163l36 -16q-36 -106 -116 -178t-203 -72t-203 72t-117 178l37 16q40 -100 104 -162t179 -63z" />
    <glyph glyph-name="u041A" unicode="&#x41a;" horiz-adv-x="1157" 
d="M262 784h2l729 666h66l-737 -666l774 -784h-64l-768 780h-2v-780h-45v1450h45v-666z" />
    <glyph glyph-name="u041B" unicode="&#x41b;" horiz-adv-x="1556" 
d="M1339 1450v-1450h-45v1409h-575l-576 -1409h-49l596 1450h649z" />
    <glyph glyph-name="u041C" unicode="&#x41c;" horiz-adv-x="1855" 
d="M1638 0h-45v1399h-8l-639 -1399h-37l-639 1399h-8v-1399h-45v1450h80l631 -1384l631 1384h79v-1450z" />
    <glyph glyph-name="u041D" unicode="&#x41d;" horiz-adv-x="1499" 
d="M1282 0h-45v729h-975v-729h-45v1450h45v-680h975v680h45v-1450z" />
    <glyph glyph-name="u041E" unicode="&#x41e;" horiz-adv-x="1785" 
d="M1638 725q0 -334 -212 -550t-534 -216t-533 216q-212 216 -212 550t211 550t535 216q325 0 535 -216t210 -550zM1593 725q0 307 -197 516q-198 209 -503 209t-503 -209t-198 -516t196 -516t505 -209t505 209q195 209 195 516z" />
    <glyph glyph-name="u041F" unicode="&#x41f;" horiz-adv-x="1458" 
d="M1241 1450v-1450h-45v1405h-934v-1405h-45v1450h1024z" />
    <glyph glyph-name="u0420" unicode="&#x420;" horiz-adv-x="1171" 
d="M1059 1090q0 -178 -121 -278t-301 -99h-375v-713h-45v1450h393q115 0 210 -30t167 -114t72 -216zM1014 1090q0 114 -60 190t-144 104q-83 28 -181 27h-367v-659h377q155 0 265 85t110 253z" />
    <glyph glyph-name="u0421" unicode="&#x421;" horiz-adv-x="1482" 
d="M887 -41q-326 0 -533 216t-207 550t207 550q206 216 520 216t494 -186l-29 -33q-81 86 -205 132t-247 46q-307 0 -501 -209t-194 -517t194 -516q192 -208 501 -208q141 0 271 54t214 155l33 -31q-90 -106 -228 -162t-290 -57z" />
    <glyph glyph-name="u0422" unicode="&#x422;" horiz-adv-x="1105" 
d="M1069 1409h-494v-1409h-45v1409h-493v41h1032v-41z" />
    <glyph glyph-name="u0423" unicode="&#x423;" horiz-adv-x="1329" 
d="M364 25q102 1 170 71t126 177l-574 1177h53l548 -1124q7 15 15 30l527 1094h51l-541 -1135q-80 -168 -169 -254t-226 -86q-92 1 -168 52l27 43q59 -45 161 -45z" />
    <glyph glyph-name="u0424" unicode="&#x424;" horiz-adv-x="1845" 
d="M948 0h-45v186h-145q-274 0 -443 170q-168 170 -168 427t169 427t442 170h145v170h45v-170h139q271 0 441 -170t170 -427t-168 -427t-443 -170h-139v-186zM193 782q-1 -250 157 -402t412 -153h141v1112h-141q-252 0 -411 -153q-158 -154 -158 -404zM1653 782
q0 250 -159 404t-411 153h-135v-1112h135q254 1 412 153t158 402z" />
    <glyph glyph-name="u0425" unicode="&#x425;" horiz-adv-x="1208" 
d="M1143 0h-56l-483 725l-485 -725h-53l512 760l-463 690h53l436 -655l436 655h52l-461 -690z" />
    <glyph glyph-name="u0426" unicode="&#x426;" horiz-adv-x="1564" 
d="M1343 0h-1126v1450h45v-1405h934v1405h45v-1405h148v-371h-46v326z" />
    <glyph glyph-name="u0427" unicode="&#x427;" horiz-adv-x="1370" 
d="M641 539q-233 0 -360 103t-127 304v504h45v-477q0 -393 442 -393q381 0 467 249v621h45v-1450h-45v746q-112 -207 -467 -207z" />
    <glyph glyph-name="u0428" unicode="&#x428;" horiz-adv-x="2045" 
d="M1055 45h729v1405h45v-1450h-1612v1450h45v-1405h748v1405h45v-1405z" />
    <glyph glyph-name="u0429" unicode="&#x429;" horiz-adv-x="2152" 
d="M1055 45h729v1405h45v-1405h147v-371h-45v326h-1714v1450h45v-1405h748v1405h45v-1405z" />
    <glyph glyph-name="u042A" unicode="&#x42a;" horiz-adv-x="1476" 
d="M1364 403q0 -147 -75 -241t-176 -128t-224 -34h-393v1409h-453v41h498v-631h389q186 -1 310 -111t124 -305zM920 39q162 0 280 88t119 275q0 186 -116 282t-273 96h-389v-741h379z" />
    <glyph glyph-name="u042B" unicode="&#x42b;" horiz-adv-x="1601" 
d="M1384 0h-45v1450h45v-1450zM1085 403q-1 -147 -75 -241t-175 -128t-225 -34h-393v1450h45v-631h389q186 0 311 -110q123 -111 123 -306zM1040 402q0 187 -115 283q-116 95 -274 95h-389v-741h379q162 0 281 88q118 88 118 275z" />
    <glyph glyph-name="u042C" unicode="&#x42c;" horiz-adv-x="1198" 
d="M1085 403q-1 -147 -75 -241t-175 -128t-225 -34h-393v1450h45v-631h389q186 0 311 -110q123 -111 123 -306zM1040 402q0 187 -115 283q-116 95 -274 95h-389v-741h379q162 0 281 88q118 88 118 275z" />
    <glyph glyph-name="u042D" unicode="&#x42d;" horiz-adv-x="1482" 
d="M596 0q308 0 498 204t196 501h-971v40h971q-6 293 -196 499t-498 206q-123 0 -247 -46t-206 -132l-28 33q179 186 493 186t520 -216t207 -550q0 -334 -207 -550t-532 -216q-152 1 -290 57t-228 162l33 31q84 -101 214 -155t271 -54z" />
    <glyph glyph-name="u042E" unicode="&#x42e;" horiz-adv-x="2263" 
d="M2116 725q0 -334 -212 -550t-534 -216q-322 1 -530 213t-215 533h-363v-705h-45v1450h45v-705h363q6 320 214 533q207 213 531 213t535 -216t211 -550zM2071 725q0 307 -198 516t-503 209t-503 -209q-197 -209 -197 -516t196 -516t504 -209q309 0 505 209t196 516z" />
    <glyph glyph-name="u042F" unicode="&#x42f;" horiz-adv-x="1282" 
d="M1020 0v678l-404 -2l-411 -676h-51l411 680q-164 16 -266 120t-102 263q0 387 479 387h389v-1450h-45zM1020 719v692h-342q-430 0 -430 -346t436 -346h336z" />
    <glyph glyph-name="u0430" unicode="&#x430;" horiz-adv-x="1048" 
d="M811 629q-1 303 -313 303q-150 0 -277 -113l-24 35q135 117 306 117q353 0 353 -344v-414q0 -111 16 -213h-43q-16 86 -16 225h-6q-39 -123 -137 -189t-222 -65q-124 0 -219 70q-94 70 -94 201q0 96 50 162t134 96q144 53 328 53h164v76zM811 424v90h-145
q-485 0 -486 -272q0 -117 83 -174q83 -58 185 -58q274 -1 346 271q17 67 17 143z" />
    <glyph glyph-name="u0431" unicode="&#x431;" horiz-adv-x="1200" 
d="M612 934q207 0 336 -131t129 -343t-137 -342t-346 -130t-339 138t-130 376q0 482 157 714t506 232h271v-39h-268q-322 0 -455 -194q-68 -97 -103 -214t-55 -286q63 99 179 159t255 60zM1032 464q0 188 -119 310t-305 123q-186 0 -312 -109q-126 -108 -126 -310t119 -326
t317 -125q198 0 313 124q113 125 113 313z" />
    <glyph glyph-name="u0432" unicode="&#x432;" horiz-adv-x="1134" 
d="M250 39h401q147 0 226 51q77 51 77 172t-94 162t-268 41h-342v-426zM625 0h-420v942h399q188 0 268 -62t80 -180q0 -184 -213 -213q113 0 187 -60t74 -177q0 -118 -86 -184t-289 -66zM250 504h348q154 0 232 41t77 147q0 211 -258 211h-399v-399z" />
    <glyph glyph-name="u0433" unicode="&#x433;" horiz-adv-x="872" 
d="M250 903v-903h-45v942h573v-39h-528z" />
    <glyph glyph-name="u0434" unicode="&#x434;" horiz-adv-x="1335" 
d="M172 0v-326h-45v365h94l365 903h446v-903h139v-365h-45v326h-954zM987 903h-366l-353 -864h719v864z" />
    <glyph glyph-name="u0435" unicode="&#x435;" horiz-adv-x="1138" 
d="M1012 481h-840q0 -188 111 -328q111 -141 321 -141t338 172l33 -28q-141 -184 -365 -184t-353 142q-130 144 -130 362t129 356q128 138 328 139q200 0 314 -134t114 -317v-39zM174 520h795q-4 184 -113 298t-283 114q-100 0 -181 -44q-136 -74 -194 -243
q-24 -68 -24 -125z" />
    <glyph glyph-name="u0436" unicode="&#x436;" horiz-adv-x="1323" 
d="M639 496h-6l-524 -496h-62l537 512l-488 430h58l479 -424h6v424h45v-424h6l479 424h58l-488 -430l537 -512h-62l-524 496h-6v-496h-45v496z" />
    <glyph glyph-name="u0437" unicode="&#x437;" horiz-adv-x="1001" 
d="M474 971q161 0 245 -76t84 -173q1 -97 -63 -162t-169 -71v-4q113 0 190 -54t77 -171t-102 -197q-102 -79 -261 -79q-160 0 -258 94q-43 39 -67 96l32 25q23 -49 66 -88q88 -88 231 -88t230 66q86 67 86 165t-77 152t-235 55h-123v39h103q131 0 216 53t85 151t-75 162
t-221 64t-224 -74q-38 -33 -56 -74l-41 21q23 47 66 84q100 84 261 84z" />
    <glyph glyph-name="u0438" unicode="&#x438;" horiz-adv-x="1253" 
d="M1049 958v-958h-45v893h-7l-741 -893h-51v958h45v-892h6q51 57 403 485l338 407h52z" />
    <glyph glyph-name="u0439" unicode="&#x439;" horiz-adv-x="1253" 
d="M649 1206q115 0 178 62t105 164l37 -17q-37 -106 -117 -178t-203 -72t-203 72t-116 178l37 17q41 -100 104 -163t178 -63zM205 0v958h45v-892h6q51 57 403 485l338 407h52v-958h-45v893h-7l-741 -893h-51z" />
    <glyph glyph-name="u043A" unicode="&#x43a;" horiz-adv-x="892" 
d="M254 942v-424h6l479 424h58l-488 -430l537 -512h-62l-524 496h-6v-496h-45v942h45z" />
    <glyph glyph-name="u043B" unicode="&#x43b;" horiz-adv-x="1230" 
d="M1028 942v-942h-45v903h-432l-369 -903h-47l381 942h512z" />
    <glyph glyph-name="u043C" unicode="&#x43c;" horiz-adv-x="1460" 
d="M205 958h55l473 -616l467 616h55v-958h-45v893h-10l-450 -596h-37l-453 586h-10v-883h-45v958z" />
    <glyph glyph-name="u043D" unicode="&#x43d;" horiz-adv-x="1214" 
d="M250 485v-485h-45v942h45v-418h715v418h45v-942h-45v485h-715z" />
    <glyph glyph-name="u043E" unicode="&#x43e;" horiz-adv-x="1239" 
d="M1112 472q0 -220 -138 -360t-356 -140t-354 140q-137 140 -137 360t137 359t354 139q218 0 356 -138q138 -140 138 -360zM1067 473q0 197 -123 328t-326 131q-202 0 -324 -131t-122 -328t122 -330t324 -133t326 133q123 133 123 330z" />
    <glyph glyph-name="u043F" unicode="&#x43f;" horiz-adv-x="1198" 
d="M250 903v-903h-45v942h788v-942h-45v903h-698z" />
    <glyph glyph-name="u0440" unicode="&#x440;" horiz-adv-x="1277" 
d="M250 686h6q59 137 172 211t252 74q209 1 340 -141t131 -359t-133 -358t-338 -142q-139 0 -256 75t-168 208h-6v-746h-45v1434h45v-256zM1106 468q0 192 -118 328t-305 136t-311 -135t-124 -325t124 -326t311 -136t305 133t118 325z" />
    <glyph glyph-name="u0441" unicode="&#x441;" horiz-adv-x="983" 
d="M590 932q-178 0 -298 -136t-120 -328t120 -325t304 -133t293 107l31 -29q-117 -117 -320 -117q-203 1 -338 141t-135 357t136 359q137 142 335 142t317 -124l-34 -31q-113 117 -291 117z" />
    <glyph glyph-name="u0442" unicode="&#x442;" horiz-adv-x="1001" 
d="M94 942h813v-39h-395v-903h-45v903h-373v39z" />
    <glyph glyph-name="u0443" unicode="&#x443;" horiz-adv-x="876" 
d="M827 942l-467 -1253q-68 -184 -227 -185q-45 0 -84 15l12 39q33 -12 93 -12q111 -1 178 182l90 245l-373 969h49l346 -917l334 917h49z" />
    <glyph glyph-name="u0444" unicode="&#x444;" horiz-adv-x="1372" 
d="M709 -502h-45v477q-240 1 -388 143t-149 360q0 218 146 356t391 137v577h45v-577q244 -1 390 -137t146 -356q0 -218 -148 -360t-388 -143v-477zM664 18v908q-230 -2 -361 -128t-131 -322t132 -327t360 -131zM709 18q227 0 359 132t132 326q0 196 -130 322t-361 128v-908z
" />
    <glyph glyph-name="u0445" unicode="&#x445;" horiz-adv-x="925" 
d="M809 0l-350 467l-344 -467h-58l373 498l-326 444h58l299 -414l297 414h59l-328 -444l379 -498h-59z" />
    <glyph glyph-name="u0446" unicode="&#x446;" horiz-adv-x="1267" 
d="M250 942v-903h682v903h45v-903h127v-365h-45v326h-854v942h45z" />
    <glyph glyph-name="u0447" unicode="&#x447;" horiz-adv-x="1247" 
d="M1042 942v-942h-45v555q-27 -75 -84 -130q-109 -105 -307 -105t-300 102q-101 104 -101 285v235h45v-205q0 -182 84 -280q84 -99 280 -99t289 100q94 100 94 279v205h45z" />
    <glyph glyph-name="u0448" unicode="&#x448;" horiz-adv-x="1669" 
d="M250 942v-903h563v903h45v-903h561v903h45v-942h-1259v942h45z" />
    <glyph glyph-name="u0449" unicode="&#x449;" horiz-adv-x="1755" 
d="M250 942v-903h563v903h45v-903h561v903h45v-903h127v-365h-45v326h-1341v942h45z" />
    <glyph glyph-name="u044A" unicode="&#x44a;" horiz-adv-x="1296" 
d="M526 553v-514h305q147 0 228 58q80 57 80 199t-82 200t-232 57h-299zM94 942h432v-350h293q360 0 361 -295q0 -133 -80 -215t-252 -82h-367v901h-387v41z" />
    <glyph glyph-name="u044B" unicode="&#x44b;" horiz-adv-x="1361" 
d="M205 942h45v-350h293q360 0 360 -295q0 -133 -80 -215t-252 -82h-366v942zM250 553v-514h305q147 0 227 58q80 57 80 199t-82 200t-231 57h-299zM1157 0h-45v940h45v-940z" />
    <glyph glyph-name="u044C" unicode="&#x44c;" horiz-adv-x="1073" 
d="M205 942h45v-350h334q360 0 360 -295q0 -133 -80 -215t-252 -82h-407v942zM250 553v-514h346q147 0 227 58q80 57 80 199t-82 200t-231 57h-340z" />
    <glyph glyph-name="u044D" unicode="&#x44d;" horiz-adv-x="983" 
d="M386 971q198 -1 334 -143t136 -359t-135 -357t-338 -140t-320 116l31 29q110 -107 294 -107t302 132t121 319h-618v39h617q-9 172 -124 302t-293 130t-291 -117l-34 31q120 125 318 125z" />
    <glyph glyph-name="u044E" unicode="&#x44e;" horiz-adv-x="1667" 
d="M1540 472q0 -220 -138 -360t-355 -140t-352 137q-135 138 -140 348h-305v-457h-45v942h45v-446h305q7 204 141 339t350 135q218 0 356 -138q138 -140 138 -360zM1495 473q0 197 -123 328q-124 131 -326 131t-324 -131t-122 -328t122 -330t325 -133t325 133t123 330z" />
    <glyph glyph-name="u044F" unicode="&#x44f;" horiz-adv-x="1118" 
d="M195 680q0 126 97 194t271 68h350v-942h-45v414h-290q-41 0 -78 3l-281 -417h-51l289 422q-262 37 -262 258zM868 903h-286q-156 0 -249 -47t-93 -176q0 -227 295 -227h333v450z" />
    <glyph glyph-name="u0451" unicode="&#x451;" horiz-adv-x="1138" 
d="M1012 481h-840q0 -188 111 -328q111 -141 321 -141t338 172l33 -28q-141 -184 -365 -184t-353 142q-130 144 -130 362t129 356q128 138 328 139q200 0 314 -134t114 -317v-39zM174 520h795q-4 184 -113 298t-283 114q-100 0 -181 -44q-136 -74 -194 -243
q-24 -68 -24 -125zM412 1296q-18 0 -32 14t-15 39q0 23 14 37q15 14 33 14t32 -14t14 -36t-14 -38t-32 -16zM727 1296q-19 0 -33 14t-14 39q0 23 14 37q33 32 66 0q14 -14 14 -36t-14 -38t-33 -16z" />
    <glyph glyph-name="u0452" unicode="&#x452;" horiz-adv-x="1347" 
d="M1208 393q0 -145 -44 -270t-110 -212t-163 -164q-98 -77 -181 -123t-188 -91l-26 41q328 130 496 320t169 474q0 284 -127 424q-126 140 -326 140t-331 -125t-131 -356v-451h-45v1231h-228v39h228v278h45v-278h467v-39h-467v-537h4q74 143 184 210q111 67 291 67
q217 0 350 -156t133 -422z" />
    <glyph glyph-name="u0453" unicode="&#x453;" horiz-adv-x="872" 
d="M250 903v-903h-45v942h573v-39h-528zM618 1450l-227 -295h-39l211 295h55z" />
    <glyph glyph-name="u0454" unicode="&#x454;" horiz-adv-x="1067" 
d="M811 500v-39h-618q3 -187 121 -319t302 -132t293 107l31 -29q-118 -117 -320 -117q-202 1 -337 141t-136 357q1 217 137 359t334 142t318 -124l-35 -31q-113 117 -291 117t-293 -130t-124 -302h618z" />
    <glyph glyph-name="u0455" unicode="&#x455;" horiz-adv-x="849" 
d="M739 242q0 -119 -88 -193t-219 -74q-219 0 -330 158l37 25q100 -143 295 -144q100 0 180 62t80 166q0 64 -19 90t-31 42t-36 28q-25 14 -39 22t-46 18t-46 15q-15 5 -113 31t-160 77t-62 165t85 177q86 63 203 64q195 0 289 -137l-39 -23q-94 121 -250 121
q-94 0 -169 -49t-75 -152q0 -57 17 -95q27 -62 137 -98q32 -10 140 -38q108 -27 184 -83t75 -175z" />
    <glyph glyph-name="u0456" unicode="&#x456;" horiz-adv-x="462" 
d="M231 1296q-18 0 -32 14q-15 14 -15 39q0 23 14 37q34 31 66 0q14 -14 14 -36t-14 -38q-15 -16 -33 -16zM254 0h-45v942h45v-942z" />
    <glyph glyph-name="u0457" unicode="&#x457;" horiz-adv-x="462" 
d="M254 0h-45v942h45v-942zM74 1296q-18 0 -32 14t-15 39q0 23 14 37q15 14 33 14t32 -14t14 -36t-14 -38t-32 -16zM389 1296q-19 0 -33 14t-14 39q0 23 14 37q33 32 66 0q14 -14 14 -36t-14 -38t-33 -16z" />
    <glyph glyph-name="u0458" unicode="&#x458;" horiz-adv-x="462" 
d="M254 942v-1141q0 -155 -48 -225t-181 -70q-43 0 -60 7l8 38q29 -6 71 -6q42 1 82 21q83 43 83 231v1145h45zM231 1296q-18 0 -32 14q-15 14 -15 39q0 23 14 37q34 31 66 0q14 -14 14 -36t-14 -38q-15 -16 -33 -16z" />
    <glyph glyph-name="u0459" unicode="&#x459;" horiz-adv-x="1697" 
d="M934 553v-514h305q147 0 227 58q80 57 80 199t-82 200t-231 57h-299zM934 942v-350h293q360 0 360 -295q0 -133 -80 -215t-252 -82h-366v903h-342l-365 -903h-47l381 942h418z" />
    <glyph glyph-name="u045A" unicode="&#x45a;" horiz-adv-x="1708" 
d="M924 942h45v-369h252q360 0 360 -297q0 -276 -332 -276h-325v535h-674v-535h-45v942h45v-371h674v371zM969 535v-496h264q155 0 231 49t76 188q0 258 -313 259h-258z" />
    <glyph glyph-name="u045B" unicode="&#x45b;" horiz-adv-x="1165" 
d="M254 694h4q41 127 143 202t228 75q180 0 260 -116t80 -286v-569h-45v565q0 131 -58 240q-31 57 -92 92t-145 35q-160 0 -268 -126t-107 -335v-471h-45v1210h-236v39h236v299h45v-299h459v-39h-459v-516z" />
    <glyph glyph-name="u045C" unicode="&#x45c;" horiz-adv-x="892" 
d="M254 942v-424h6l479 424h58l-488 -430l537 -512h-62l-524 496h-6v-496h-45v942h45zM690 1450l-227 -295h-39l211 295h55z" />
    <glyph glyph-name="u045E" unicode="&#x45e;" horiz-adv-x="876" 
d="M463 1206q115 0 178 62t104 164l37 -17q-36 -106 -116 -178t-203 -72t-203 72t-117 178l37 17q40 -100 104 -163t179 -63zM360 -311q-68 -184 -227 -185q-45 0 -84 15l12 39q33 -12 93 -12q111 -1 178 182l90 245l-373 969h49l346 -917l334 917h49z" />
    <glyph glyph-name="u045F" unicode="&#x45f;" horiz-adv-x="1181" 
d="M250 942v-903h682v903h45v-942h-348v-326h-45v326h-379v942h45z" />
    <glyph glyph-name="u0490" unicode="&#x490;" horiz-adv-x="1120" 
d="M985 1409h-723v-1409h-45v1450h723v326h45v-367z" />
    <glyph glyph-name="u0491" unicode="&#x491;" horiz-adv-x="872" 
d="M250 903v-903h-45v942h528v328h45v-367h-528z" />
    <glyph glyph-name="palochkacyrillic" unicode="&#x4c0;" horiz-adv-x="479" 
d="M262 0h-45v1450h45v-1450z" />
    <glyph glyph-name="Aiecyrillic" unicode="&#x4d4;" horiz-adv-x="1982" 
d="M1868 0h-862v422h-664l-276 -422h-54l942 1450h879v-41h-782v-637h733v-41h-733v-690h817v-41zM1006 463v946h-27l-610 -946h637z" />
    <glyph glyph-name="aiecyrillic" unicode="&#x4d5;" horiz-adv-x="1800" 
d="M879 522h751q-8 184 -108 297t-267 113q-94 0 -171 -45q-126 -73 -184 -246q-21 -66 -21 -119zM1257 971q197 0 307 -134t109 -317v-39h-796q0 -262 172 -394q94 -73 229 -73q209 0 330 170l30 -26q-135 -184 -362 -185q-150 0 -260 86t-156 234q-18 -139 -120 -231
t-281 -91q-131 0 -228 65q-96 65 -96 193q0 293 527 293h172v96q0 154 -81 234t-239 80t-291 -113l-24 35q135 117 310 117t263 -77t100 -202q48 127 152 203t233 76zM834 391v90h-154q-498 0 -498 -252q0 -117 84 -168t190 -51q287 0 358 243q20 64 20 138z" />
    <glyph glyph-name="Aringbelow" unicode="&#x1e00;" horiz-adv-x="1363" 
d="M1327 0h-49l-172 416h-842l-178 -416h-49l629 1450h57zM1092 455l-400 966l-411 -966h811zM682 -152q80 0 138 -57t59 -138q-1 -81 -59 -137t-138 -56t-138 56t-58 137t58 138t138 57zM840 -346q0 66 -46 113t-112 47t-112 -47t-46 -113t46 -113t112 -47t112 47t46 113z
" />
    <glyph glyph-name="aringbelow" unicode="&#x1e01;" horiz-adv-x="1048" 
d="M700 -376q0 -81 -58 -137t-138 -56t-138 56t-58 137t58 138q58 58 138 58t138 -58t58 -138zM662 -375q0 66 -46 113t-112 47t-112 -47t-46 -113q0 -67 46 -113t112 -46t112 46q46 47 46 113zM811 629q-1 303 -313 303q-150 0 -277 -113l-24 35q135 117 306 117
q353 0 353 -344v-414q0 -111 16 -213h-43q-16 86 -16 225h-6q-39 -123 -137 -189t-222 -65q-124 0 -219 70q-94 70 -94 201q0 96 50 162t134 96q144 53 328 53h164v76zM811 424v90h-145q-485 0 -486 -272q0 -117 83 -174q83 -58 185 -58q274 -1 346 271q17 67 17 143z" />
    <glyph glyph-name="uni1E02" unicode="&#x1e02;" horiz-adv-x="1253" 
d="M1128 378q0 -102 -43 -182t-115 -119q-138 -77 -308 -77h-445v1450h395q185 0 307 -71q142 -81 142 -271q0 -143 -84 -226t-211 -112v-4q118 -12 240 -103q122 -90 122 -285zM1016 1106q0 160 -116 232t-300 71h-338v-625h348q164 0 285 81t121 241zM1083 381
q0 125 -68 210q-125 154 -351 152h-402v-702h379q201 0 322 84q120 84 120 256zM598 1706q-18 0 -33 14q-14 14 -14 38t14 38q15 14 33 14t32 -14t15 -37q-1 -23 -15 -38t-32 -15z" />
    <glyph glyph-name="uni1E03" unicode="&#x1e03;" horiz-adv-x="1282" 
d="M254 686h6q59 137 172 211t252 74q209 1 340 -141t131 -359t-133 -358t-338 -142q-139 0 -256 75t-168 208h-6v-254h-45v1548h45v-862zM1110 468q0 192 -118 328t-305 136t-311 -135t-124 -325t124 -326t311 -136t305 133t118 325zM672 1632q-18 0 -32 14t-15 39
q0 23 14 37q33 32 66 0q14 -14 14 -36q-1 -22 -15 -38t-32 -16z" />
    <glyph glyph-name="Bdotbelow" unicode="&#x1e04;" horiz-adv-x="1253" 
d="M1128 378q0 -102 -43 -182t-115 -119q-138 -77 -308 -77h-445v1450h395q185 0 307 -71q142 -81 142 -271q0 -143 -84 -226t-211 -112v-4q118 -12 240 -103q122 -90 122 -285zM1016 1106q0 160 -116 232t-300 71h-338v-625h348q164 0 285 81t121 241zM1083 381
q0 125 -68 210q-125 154 -351 152h-402v-702h379q201 0 322 84q120 84 120 256zM672 -256q-18 0 -33 14q-14 14 -14 38t14 38q15 14 33 14t32 -14t15 -37q-1 -23 -15 -38t-32 -15z" />
    <glyph glyph-name="bdotbelow" unicode="&#x1e05;" horiz-adv-x="1282" 
d="M682 -285q-18 1 -32 15t-15 38q0 24 14 38q33 32 66 -1q14 -15 14 -37q-1 -22 -15 -38t-32 -15zM254 686h6q59 137 172 211t252 74q209 1 340 -141t131 -359t-133 -358t-338 -142q-139 0 -256 75t-168 208h-6v-254h-45v1548h45v-862zM1110 468q0 192 -118 328t-305 136
t-311 -135t-124 -325t124 -326t311 -136t305 133t118 325z" />
    <glyph glyph-name="Blinebelow" unicode="&#x1e06;" horiz-adv-x="1253" 
d="M909 -193h-475v41h475v-41zM1128 378q0 -102 -43 -182t-115 -119q-138 -77 -308 -77h-445v1450h395q185 0 307 -71q142 -81 142 -271q0 -143 -84 -226t-211 -112v-4q118 -12 240 -103q122 -90 122 -285zM1016 1106q0 160 -116 232t-300 71h-338v-625h348q164 0 285 81
t121 241zM1083 381q0 125 -68 210q-125 154 -351 152h-402v-702h379q201 0 322 84q120 84 120 256z" />
    <glyph glyph-name="blinebelow" unicode="&#x1e07;" horiz-adv-x="1282" 
d="M920 -221h-476v41h476v-41zM254 686h6q59 137 172 211t252 74q209 1 340 -141t131 -359t-133 -358t-338 -142q-139 0 -256 75t-168 208h-6v-254h-45v1548h45v-862zM1110 468q0 192 -118 328t-305 136t-311 -135t-124 -325t124 -326t311 -136t305 133t118 325z" />
    <glyph glyph-name="Ccedillaacute" unicode="&#x1e08;" horiz-adv-x="1482" 
d="M909 1939l-227 -294h-39l211 294h55zM921 -160q69 0 122 -32t53 -114q0 -81 -72 -119t-161 -38t-181 41l10 35q72 -37 176 -37q184 0 185 125q0 104 -148 104q-86 0 -141 -30l-21 18l113 168q-313 12 -511 224t-198 543t207 547q206 216 520 216t494 -186l-29 -33
q-81 86 -205 132t-247 46q-307 0 -501 -209t-194 -517t194 -516q192 -208 501 -208q141 0 271 54t214 155l33 -31q-86 -104 -220 -160t-286 -59l-92 -135q45 16 114 16z" />
    <glyph glyph-name="ccedillaacute" unicode="&#x1e09;" horiz-adv-x="983" 
d="M655 1421l-227 -295h-39l211 295h55zM642 -160q69 0 122 -32t53 -114q0 -81 -72 -119q-73 -38 -161 -38t-181 41l11 35q72 -37 176 -37q184 0 184 125q0 104 -147 104q-86 0 -142 -30l-20 18l121 178q-203 9 -331 147t-128 353t136 357q137 142 335 142t317 -124l-34 -31
q-113 117 -291 117t-298 -136t-120 -328t120 -325t304 -133t293 107l31 -29q-106 -106 -291 -117l-101 -147q45 16 114 16z" />
    <glyph glyph-name="uni1E0A" unicode="&#x1e0a;" horiz-adv-x="1576" 
d="M629 1450q357 0 579 -182t222 -542q0 -358 -222 -542t-579 -184h-412v1450h412zM618 1409h-354v-1368h354q342 0 553 171t211 513q0 233 -103 390q-193 294 -661 294zM727 1706q-18 0 -33 14q-14 14 -14 38t14 38t32 14t34 -14q14 -14 14 -37t-14 -38t-33 -15z" />
    <glyph glyph-name="uni1E0B" unicode="&#x1e0b;" horiz-adv-x="1282" 
d="M1028 686v862h45v-1548h-45v254h-6q-59 -137 -172 -210t-252 -73q-205 -1 -338 141t-133 357t133 358t338 144q139 0 252 -74t172 -211h6zM1030 470q0 190 -124 326t-311 136t-305 -136t-118 -328t118 -325t305 -133t311 135t124 325zM614 1632q-18 0 -32 14t-14 39
q0 23 14 37q34 31 65 0q15 -14 15 -36t-15 -38t-33 -16z" />
    <glyph glyph-name="Ddotbelow" unicode="&#x1e0c;" horiz-adv-x="1576" 
d="M823 -256q-18 0 -32 14q-15 14 -15 38t14 38t33 14t33 -14t14 -37t-14 -38t-33 -15zM629 1450q357 0 579 -182t222 -542q0 -358 -222 -542t-579 -184h-412v1450h412zM618 1409h-354v-1368h354q342 0 553 171t211 513q0 233 -103 390q-193 294 -661 294z" />
    <glyph glyph-name="ddotbelow" unicode="&#x1e0d;" horiz-adv-x="1282" 
d="M600 -285q-18 1 -32 15t-15 38q0 24 14 38q33 32 66 -1q14 -15 14 -37q-1 -22 -15 -38t-32 -15zM1028 686v862h45v-1548h-45v254h-6q-59 -137 -172 -210t-252 -73q-205 -1 -338 141t-133 357t133 358t338 144q139 0 252 -74t172 -211h6zM1030 470q0 190 -124 326
t-311 136t-305 -136t-118 -328t118 -325t305 -133t311 135t124 325z" />
    <glyph glyph-name="Dlinebelow" unicode="&#x1e0e;" horiz-adv-x="1576" 
d="M1061 -193h-475v41h475v-41zM629 1450q357 0 579 -182t222 -542q0 -358 -222 -542t-579 -184h-412v1450h412zM618 1409h-354v-1368h354q342 0 553 171t211 513q0 233 -103 390q-193 294 -661 294z" />
    <glyph glyph-name="dlinebelow" unicode="&#x1e0f;" horiz-adv-x="1282" 
d="M838 -221h-476v41h476v-41zM1028 686v862h45v-1548h-45v254h-6q-59 -137 -172 -210t-252 -73q-205 -1 -338 141t-133 357t133 358t338 144q139 0 252 -74t172 -211h6zM1030 470q0 190 -124 326t-311 136t-305 -136t-118 -328t118 -325t305 -133t311 135t124 325z" />
    <glyph glyph-name="Dcommaaccent" unicode="&#x1e10;" horiz-adv-x="1576" 
d="M907 -152l-131 -466h-35l117 466h49zM629 1450q357 0 579 -182t222 -542q0 -358 -222 -542t-579 -184h-412v1450h412zM618 1409h-354v-1368h354q342 0 553 171t211 513q0 233 -103 390q-193 294 -661 294z" />
    <glyph glyph-name="dcommaaccent" unicode="&#x1e11;" horiz-adv-x="1282" 
d="M684 -180l-131 -467h-35l117 467h49zM1028 686v862h45v-1548h-45v254h-6q-59 -137 -172 -210t-252 -73q-205 -1 -338 141t-133 357t133 358t338 144q139 0 252 -74t172 -211h6zM1030 470q0 190 -124 326t-311 136t-305 -136t-118 -328t118 -325t305 -133t311 135t124 325
z" />
    <glyph glyph-name="Dcircumflexbelow" unicode="&#x1e12;" horiz-adv-x="1576" 
d="M629 1450q357 0 579 -182t222 -542q0 -358 -222 -542t-579 -184h-412v1450h412zM618 1409h-354v-1368h354q342 0 553 171t211 513q0 233 -103 390q-193 294 -661 294zM795 -152h57l211 -294h-47l-193 270l-192 -270h-47z" />
    <glyph glyph-name="dcircumflexbelow" unicode="&#x1e13;" horiz-adv-x="1282" 
d="M571 -180h58l211 -295h-47l-193 270l-192 -270h-48zM1028 686v862h45v-1548h-45v254h-6q-59 -137 -172 -210t-252 -73q-205 -1 -338 141t-133 357t133 358t338 144q139 0 252 -74t172 -211h6zM1030 470q0 190 -124 326t-311 136t-305 -136t-118 -328t118 -325t305 -133
t311 135t124 325z" />
    <glyph glyph-name="Emacrongrave" unicode="&#x1e14;" horiz-adv-x="1208" 
d="M522 2093h56l210 -295h-38zM893 1604h-475v41h475v-41zM1094 0h-877v1450h844v-41h-801v-637h754v-41h-754v-690h834v-41z" />
    <glyph glyph-name="emacrongrave" unicode="&#x1e15;" horiz-adv-x="1138" 
d="M436 1614h56l210 -295h-38zM807 1126h-475v41h475v-41zM1012 481h-840q0 -188 111 -328q111 -141 321 -141t338 172l33 -28q-141 -184 -365 -184t-353 142q-130 144 -130 362t129 356q128 138 328 139q200 0 314 -134t114 -317v-39zM174 520h795q-4 184 -113 298
t-283 114q-100 0 -181 -44q-136 -74 -194 -243q-24 -68 -24 -125z" />
    <glyph glyph-name="Emacronacute" unicode="&#x1e16;" horiz-adv-x="1208" 
d="M788 2093l-227 -295h-39l211 295h55zM893 1604h-475v41h475v-41zM1094 0h-877v1450h844v-41h-801v-637h754v-41h-754v-690h834v-41z" />
    <glyph glyph-name="emacronacute" unicode="&#x1e17;" horiz-adv-x="1138" 
d="M702 1614l-227 -295h-39l211 295h55zM807 1126h-475v41h475v-41zM1012 481h-840q0 -188 111 -328q111 -141 321 -141t338 172l33 -28q-141 -184 -365 -184t-353 142q-130 144 -130 362t129 356q128 138 328 139q200 0 314 -134t114 -317v-39zM174 520h795
q-4 184 -113 298t-283 114q-100 0 -181 -44q-136 -74 -194 -243q-24 -68 -24 -125z" />
    <glyph glyph-name="Ecircumflexbelow" unicode="&#x1e18;" horiz-adv-x="1208" 
d="M627 -152h57l211 -294h-47l-193 270l-192 -270h-47zM1094 0h-877v1450h844v-41h-801v-637h754v-41h-754v-690h834v-41z" />
    <glyph glyph-name="ecircumflexbelow" unicode="&#x1e19;" horiz-adv-x="1138" 
d="M541 -180h57l211 -295h-47l-193 270l-192 -270h-47zM1012 481h-840q0 -188 111 -328q111 -141 321 -141t338 172l33 -28q-141 -184 -365 -184t-353 142q-130 144 -130 362t129 356q128 138 328 139q200 0 314 -134t114 -317v-39zM174 520h795q-4 184 -113 298t-283 114
q-100 0 -181 -44q-136 -74 -194 -243q-24 -68 -24 -125z" />
    <glyph glyph-name="Etildebelow" unicode="&#x1e1a;" horiz-adv-x="1208" 
d="M782 -250q66 0 82 98h33q-14 -137 -115 -137q-51 0 -132 49t-120 50q-68 0 -81 -105h-33q8 70 40 107q32 36 79 36t126 -49t121 -49zM1094 0h-877v1450h844v-41h-801v-637h754v-41h-754v-690h834v-41z" />
    <glyph glyph-name="etildebelow" unicode="&#x1e1b;" horiz-adv-x="1138" 
d="M696 -317q-51 0 -132 49t-120 49q-68 0 -82 -105h-32q8 70 40 107t78 37t126 -49q79 -49 122 -50q66 0 82 99h33q-14 -137 -115 -137zM1012 481h-840q0 -188 111 -328q111 -141 321 -141t338 172l33 -28q-141 -184 -365 -184t-353 142q-130 144 -130 362t129 356
q128 138 328 139q200 0 314 -134t114 -317v-39zM174 520h795q-4 184 -113 298t-283 114q-100 0 -181 -44q-136 -74 -194 -243q-24 -68 -24 -125z" />
    <glyph glyph-name="Ecedillabreve" unicode="&#x1e1c;" horiz-adv-x="1208" 
d="M687 -160q69 0 122 -32t53 -114q0 -81 -72 -119t-160 -38q-89 0 -181 41l10 35q72 -37 176 -37q184 0 184 125q0 104 -147 104q-86 0 -142 -30l-20 18l141 207h-434v1450h844v-41h-801v-637h754v-41h-754v-690h834v-41h-400l-121 -176q45 16 114 16zM658 1645
q87 0 141 51q53 51 78 166h36q-20 -123 -88 -191q-68 -67 -170 -67t-171 68t-85 190h39q20 -104 76 -160t144 -57z" />
    <glyph glyph-name="ecedillabreve" unicode="&#x1e1d;" horiz-adv-x="1138" 
d="M776 -333q0 -81 -72 -119q-150 -80 -342 3l11 35q72 -37 176 -37q184 0 184 125q0 104 -147 105q-86 0 -142 -31l-20 19l140 205q-187 10 -312 148t-125 356t129 356q128 138 328 139q200 0 314 -134t114 -317v-39h-840q0 -188 111 -328q111 -141 321 -141t338 172
l33 -28q-138 -180 -368 -185l-120 -174q45 17 114 17t122 -33t53 -114zM569 1126q-102 0 -171 68t-85 190h39q20 -104 76 -160t144 -56q86 0 140 50q54 51 79 166h36q-20 -122 -88 -190t-170 -68zM174 520h795q-4 184 -113 298t-283 114q-100 0 -181 -44q-136 -74 -194 -243
q-24 -68 -24 -125z" />
    <glyph glyph-name="uni1E1E" unicode="&#x1e1e;" horiz-adv-x="1146" 
d="M1044 1409h-782v-637h727v-41h-727v-731h-45v1450h827v-41zM631 1706q-18 0 -33 14q-14 14 -14 38t14 38t32 14t34 -14q14 -14 14 -37t-14 -38t-33 -15z" />
    <glyph glyph-name="uni1E1F" unicode="&#x1e1f;" horiz-adv-x="577" 
d="M494 1536q-104 0 -152 -75t-49 -179v-340h256v-39h-256v-903h-45v903h-199v39h197v338q0 158 72 226t174 67q53 0 94 -12l-8 -35q-45 10 -84 10zM328 1747q-18 0 -33 14q-14 14 -14 38t14 38q15 14 33 14t32 -14t14 -37t-14 -38t-32 -15z" />
    <glyph glyph-name="Gmacron" unicode="&#x1e20;" horiz-adv-x="1628" 
d="M1432 717v-633q-225 -125 -521 -125q-340 0 -552 219t-212 551t211 547t545 215q287 0 488 -168l-33 -33q-78 76 -205 118t-252 42q-315 0 -512 -208t-197 -516t198 -517q196 -209 525 -209q252 0 474 109v569h-377v39h420zM1026 1645h-475v41h475v-41z" />
    <glyph glyph-name="gmacron" unicode="&#x1e21;" horiz-adv-x="1282" 
d="M838 1126h-476v41h476v-41zM1028 57v197h-6q-51 -133 -168 -208t-256 -75q-205 -1 -338 141t-133 357t133 358t338 144q139 0 252 -74t172 -211h6v256h45v-889q0 -163 -41 -283q-40 -120 -148 -201t-276 -81q-262 0 -415 176l30 31q150 -168 387 -168t332 166
q86 149 86 364zM1030 470q0 192 -124 326q-124 136 -311 136t-305 -136t-118 -328t118 -326t305 -134t311 135t124 327z" />
    <glyph glyph-name="uni1E22" unicode="&#x1e22;" horiz-adv-x="1499" 
d="M1282 0h-45v729h-975v-729h-45v1450h45v-680h975v680h45v-1450zM752 1706q-18 0 -33 14q-14 14 -14 38t14 38q15 14 33 14t32 -14t14 -37t-14 -38t-32 -15z" />
    <glyph glyph-name="uni1E23" unicode="&#x1e23;" horiz-adv-x="1165" 
d="M254 694h4q41 127 143 202t228 75q180 0 260 -116t80 -286v-569h-45v565q0 131 -58 240q-31 57 -92 92t-145 35q-160 0 -268 -126t-107 -335v-471h-45v1548h45v-854zM582 1632q-18 0 -32 14t-15 39q0 23 14 37q15 14 33 14t32 -14t14 -36t-14 -38t-32 -16z" />
    <glyph glyph-name="Hdotbelow" unicode="&#x1e24;" horiz-adv-x="1499" 
d="M1282 0h-45v729h-975v-729h-45v1450h45v-680h975v680h45v-1450zM750 -256q-18 0 -33 14t-15 38t14 38t34 14q18 0 32 -14t14 -37t-14 -38t-32 -15z" />
    <glyph glyph-name="hdotbelow" unicode="&#x1e25;" horiz-adv-x="1165" 
d="M588 -256q-18 0 -33 14q-14 14 -14 38t14 38q15 14 33 14t32 -14t15 -37q-1 -23 -15 -38t-32 -15zM254 694h4q41 127 143 202t228 75q180 0 260 -116t80 -286v-569h-45v565q0 131 -58 240q-31 57 -92 92t-145 35q-160 0 -268 -126t-107 -335v-471h-45v1548h45v-854z" />
    <glyph glyph-name="Hdieresis" unicode="&#x1e26;" horiz-adv-x="1499" 
d="M592 1604q-18 0 -33 14q-14 14 -14 38t14 38q15 14 33 14t32 -14t15 -37q-1 -23 -15 -38t-32 -15zM907 1604q-18 0 -33 14q-14 14 -14 38t14 38t32 14t34 -14q14 -14 14 -37t-14 -38t-33 -15zM1282 0h-45v729h-975v-729h-45v1450h45v-680h975v680h45v-1450z" />
    <glyph glyph-name="hdieresis" unicode="&#x1e27;" horiz-adv-x="1165" 
d="M430 1702q-18 0 -33 14q-14 14 -14 38t14 38q15 14 33 14t32 -14t15 -37q-1 -23 -15 -38t-32 -15zM745 1702q-18 0 -32 14q-15 14 -15 38t14 38t33 14t33 -14t14 -37t-14 -38q-15 -15 -33 -15zM254 694h4q41 127 143 202t228 75q180 0 260 -116t80 -286v-569h-45v565
q0 131 -58 240q-31 57 -92 92t-145 35q-160 0 -268 -126t-107 -335v-471h-45v1548h45v-854z" />
    <glyph glyph-name="Hcedilla" unicode="&#x1e28;" horiz-adv-x="1499" 
d="M1282 0h-45v729h-975v-729h19l-121 -176q46 16 114 16t121 -33t53 -113t-71 -119q-72 -38 -161 -38t-181 41l10 35q72 -37 176 -37q184 0 185 125q0 104 -148 104q-86 0 -141 -30l-21 18l142 207h-21v1450h45v-680h975v680h45v-1450z" />
    <glyph glyph-name="hcedilla" unicode="&#x1e29;" horiz-adv-x="1165" 
d="M274 -160q68 0 122 -32t53 -114q0 -81 -72 -119t-161 -38t-181 41l10 35q72 -37 176 -37q184 0 185 125q0 104 -148 104q-86 0 -141 -30l-21 18l142 207h-29v1548h45v-854h4q41 127 143 202t228 75q180 0 260 -116t80 -286v-569h-45v565q0 131 -58 240q-31 57 -92 92
t-145 35q-160 0 -268 -126t-107 -335v-471h27l-121 -176q46 16 114 16z" />
    <glyph glyph-name="Hbrevebelow" unicode="&#x1e2a;" horiz-adv-x="1499" 
d="M750 -410q-102 0 -171 68t-85 190h38q20 -104 76 -160t144 -56t141 50q53 51 78 166h37q-20 -122 -88 -190t-170 -68zM1282 0h-45v729h-975v-729h-45v1450h45v-680h975v680h45v-1450z" />
    <glyph glyph-name="hbrevebelow" unicode="&#x1e2b;" horiz-adv-x="1165" 
d="M588 -410q-102 0 -171 68t-85 190h39q20 -104 76 -160q55 -56 143 -56t141 50q53 51 78 166h37q-20 -122 -88 -190t-170 -68zM254 694h4q41 127 143 202t228 75q180 0 260 -116t80 -286v-569h-45v565q0 131 -58 240q-31 57 -92 92t-145 35q-160 0 -268 -126t-107 -335
v-471h-45v1548h45v-854z" />
    <glyph glyph-name="Itildebelow" unicode="&#x1e2c;" horiz-adv-x="479" 
d="M262 0h-45v1450h45v-1450zM369 -250q68 0 82 98h32q-14 -137 -114 -137q-51 0 -132 49t-120 50q-68 0 -82 -105h-33q8 70 40 107q32 36 79 36t126 -49t122 -49z" />
    <glyph glyph-name="itildebelow" unicode="&#x1e2d;" horiz-adv-x="462" 
d="M360 -250q66 0 82 98h33q-14 -137 -115 -137q-51 0 -132 49t-119 50q-68 0 -82 -105h-33q8 70 40 107q32 36 79 36t126 -49t121 -49zM231 1296q-18 0 -32 14q-15 14 -15 39q0 23 14 37q34 31 66 0q14 -14 14 -36t-14 -38q-15 -16 -33 -16zM254 0h-45v942h45v-942z" />
    <glyph glyph-name="Idieresisacute" unicode="&#x1e2e;" horiz-adv-x="479" 
d="M375 2157l-228 -295h-38l210 295h56zM84 1604q-18 0 -33 14q-14 14 -14 38t14 38q15 14 33 14t32 -14t15 -37q-1 -23 -15 -38t-32 -15zM399 1604q-18 0 -32 14q-15 14 -15 38t14 38t33 14t33 -14t14 -37t-14 -38t-33 -15zM262 0h-45v1450h45v-1450z" />
    <glyph glyph-name="idieresisacute" unicode="&#x1e2f;" horiz-adv-x="462" 
d="M367 1649l-228 -295h-39l211 295h56zM76 1098q-18 0 -33 14q-14 14 -14 38t14 38q15 14 33 14t32 -14t15 -37q-1 -23 -15 -38t-32 -15zM391 1098q-18 0 -33 14q-14 14 -14 38t14 38t32 14t34 -14q14 -14 14 -37t-14 -38t-33 -15zM254 0h-45v942h45v-942z" />
    <glyph glyph-name="Kacute" unicode="&#x1e30;" horiz-adv-x="1157" 
d="M262 784h2l729 666h66l-737 -666l774 -784h-64l-768 780h-2v-780h-45v1450h45v-666zM788 1898l-227 -294h-39l211 294h55z" />
    <glyph glyph-name="kacute" unicode="&#x1e31;" horiz-adv-x="911" 
d="M670 1997l-228 -295h-39l211 295h56zM254 508h2l487 434h64l-498 -436l555 -506h-67l-541 498h-2v-498h-45v1548h45v-1040z" />
    <glyph glyph-name="Kdotbelow" unicode="&#x1e32;" horiz-adv-x="1157" 
d="M655 -256q-18 0 -32 14q-15 14 -15 38t14 38t33 14t33 -14t14 -37t-14 -38t-33 -15zM262 784h2l729 666h66l-737 -666l774 -784h-64l-768 780h-2v-780h-45v1450h45v-666z" />
    <glyph glyph-name="kdotbelow" unicode="&#x1e33;" horiz-adv-x="911" 
d="M537 -256q-18 0 -33 14q-14 14 -14 38t14 38t32 14t33 -14t15 -37t-14 -38t-33 -15zM254 508h2l487 434h64l-498 -436l555 -506h-67l-541 498h-2v-498h-45v1548h45v-1040z" />
    <glyph glyph-name="Klinebelow" unicode="&#x1e34;" horiz-adv-x="1157" 
d="M262 784h2l729 666h66l-737 -666l774 -784h-64l-768 780h-2v-780h-45v1450h45v-666zM893 -193h-475v41h475v-41z" />
    <glyph glyph-name="klinebelow" unicode="&#x1e35;" horiz-adv-x="911" 
d="M774 -193h-475v41h475v-41zM254 508h2l487 434h64l-498 -436l555 -506h-67l-541 498h-2v-498h-45v1548h45v-1040z" />
    <glyph glyph-name="Ldotbelow" unicode="&#x1e36;" horiz-adv-x="1019" 
d="M983 0h-766v1450h45v-1409h721v-41zM600 -256q-18 0 -33 14q-14 14 -14 38t14 38q15 14 33 14t32 -14t15 -37q-1 -23 -15 -38t-32 -15z" />
    <glyph glyph-name="ldotbelow" unicode="&#x1e37;" horiz-adv-x="462" 
d="M233 -256q-18 0 -32 14q-15 14 -15 38t14 38t33 14t33 -14t14 -37t-14 -38q-15 -15 -33 -15zM254 0h-45v1548h45v-1548z" />
    <glyph glyph-name="Ldotbelowmacron" unicode="&#x1e38;" horiz-adv-x="1019" 
d="M838 1604h-476v41h476v-41zM600 -256q-18 0 -33 14q-14 14 -14 38t14 38q15 14 33 14t32 -14t15 -37q-1 -23 -15 -38t-32 -15zM983 0h-766v1450h45v-1409h721v-41z" />
    <glyph glyph-name="ldotbelowmacron" unicode="&#x1e39;" horiz-adv-x="462" 
d="M471 1702h-475v41h475v-41zM233 -256q-18 0 -32 14q-15 14 -15 38t14 38t33 14t33 -14t14 -37t-14 -38q-15 -15 -33 -15zM254 0h-45v1548h45v-1548z" />
    <glyph glyph-name="Llinebelow" unicode="&#x1e3a;" horiz-adv-x="1019" 
d="M838 -193h-476v41h476v-41zM983 0h-766v1450h45v-1409h721v-41z" />
    <glyph glyph-name="llinebelow" unicode="&#x1e3b;" horiz-adv-x="462" 
d="M471 -193h-475v41h475v-41zM254 0h-45v1548h45v-1548z" />
    <glyph glyph-name="Lcircumflexbelow" unicode="&#x1e3c;" horiz-adv-x="1019" 
d="M983 0h-766v1450h45v-1409h721v-41zM571 -152h58l211 -294h-47l-193 270l-192 -270h-48z" />
    <glyph glyph-name="lcircumflexbelow" unicode="&#x1e3d;" horiz-adv-x="462" 
d="M205 -152h57l211 -294h-47l-193 270l-192 -270h-47zM254 0h-45v1548h45v-1548z" />
    <glyph glyph-name="Macute" unicode="&#x1e3e;" horiz-adv-x="1855" 
d="M1638 0h-45v1399h-8l-641 -1399h-37l-639 1399h-6v-1399h-45v1450h80l631 -1384l631 1384h79v-1450zM1061 1898l-227 -294h-39l211 294h55z" />
    <glyph glyph-name="macute" unicode="&#x1e3f;" horiz-adv-x="1820" 
d="M1047 1421l-228 -295h-39l211 295h56zM1289 971q124 1 201 -61q78 -62 106 -148t28 -193v-569h-45v565q0 200 -115 305q-68 61 -172 62q-152 0 -254 -126t-102 -335v-471h-45v565q0 133 -53 241q-64 126 -220 126t-257 -126t-101 -335v-471h-45v705q0 150 -10 237h45
q8 -68 8 -248h4q41 127 138 202t214 75q265 0 312 -289h4q41 137 138 213t221 76z" />
    <glyph glyph-name="Mdotaccent" unicode="&#x1e40;" horiz-adv-x="1855" 
d="M928 1604q-18 0 -33 14q-14 14 -14 38t14 38q15 14 33 14t32 -14t15 -37q-1 -23 -15 -38t-32 -15zM1638 0h-45v1399h-8l-641 -1399h-37l-639 1399h-6v-1399h-45v1450h80l631 -1384l631 1384h79v-1450z" />
    <glyph glyph-name="mdotaccent" unicode="&#x1e41;" horiz-adv-x="1820" 
d="M913 1126q-18 0 -32 14q-15 14 -15 39q0 24 14 38t33 14t33 -14t14 -37q0 -22 -14 -38q-15 -16 -33 -16zM1289 971q124 1 201 -61q78 -62 106 -148t28 -193v-569h-45v565q0 200 -115 305q-68 61 -172 62q-152 0 -254 -126t-102 -335v-471h-45v565q0 133 -53 241
q-64 126 -220 126t-257 -126t-101 -335v-471h-45v705q0 150 -10 237h45q8 -68 8 -248h4q41 127 138 202t214 75q265 0 312 -289h4q41 137 138 213t221 76z" />
    <glyph glyph-name="Mdotbelow" unicode="&#x1e42;" horiz-adv-x="1855" 
d="M1638 0h-45v1399h-8l-641 -1399h-37l-639 1399h-6v-1399h-45v1450h80l631 -1384l631 1384h79v-1450zM928 -256q-18 0 -33 14q-14 14 -14 38t14 38q15 14 33 14t32 -14t15 -37q-1 -23 -15 -38t-32 -15z" />
    <glyph glyph-name="mdotbelow" unicode="&#x1e43;" horiz-adv-x="1820" 
d="M913 -256q-18 0 -32 14q-15 14 -15 38t14 38t33 14t33 -14t14 -37t-14 -38q-15 -15 -33 -15zM1289 971q124 1 201 -61q78 -62 106 -148t28 -193v-569h-45v565q0 200 -115 305q-68 61 -172 62q-152 0 -254 -126t-102 -335v-471h-45v565q0 133 -53 241q-64 126 -220 126
t-257 -126t-101 -335v-471h-45v705q0 150 -10 237h45q8 -68 8 -248h4q41 127 138 202t214 75q265 0 312 -289h4q41 137 138 213t221 76z" />
    <glyph glyph-name="Ndotaccent" unicode="&#x1e44;" horiz-adv-x="1591" 
d="M795 1604q-18 0 -33 14q-14 14 -14 38t14 38t32 14t33 -14t15 -37t-14 -38t-33 -15zM1374 0h-65l-1041 1393h-6v-1393h-45v1450h64l1042 -1391h6v1391h45v-1450z" />
    <glyph glyph-name="ndotaccent" unicode="&#x1e45;" horiz-adv-x="1171" 
d="M590 1126q-18 0 -32 14t-15 39q0 24 14 38q15 14 33 14t32 -14t15 -37q-1 -22 -15 -38t-32 -16zM258 694h4q42 127 146 202t227 75q180 0 260 -116t80 -286v-569h-45v565q0 131 -58 240q-31 57 -92 92t-145 35q-159 0 -267 -126t-108 -335v-471h-45v705q0 150 -10 237h45
q8 -68 8 -248z" />
    <glyph glyph-name="Ndotbelow" unicode="&#x1e46;" horiz-adv-x="1591" 
d="M795 -256q-18 0 -33 14q-14 14 -14 38t14 38t32 14t33 -14t15 -37t-14 -38t-33 -15zM1374 0h-65l-1041 1393h-6v-1393h-45v1450h64l1042 -1391h6v1391h45v-1450z" />
    <glyph glyph-name="ndotbelow" unicode="&#x1e47;" horiz-adv-x="1171" 
d="M590 -256q-18 0 -33 14q-14 14 -14 38t14 38q15 14 33 14t32 -14t15 -37q-1 -23 -15 -38t-32 -15zM258 694h4q42 127 146 202t227 75q180 0 260 -116t80 -286v-569h-45v565q0 131 -58 240q-31 57 -92 92t-145 35q-159 0 -267 -126t-108 -335v-471h-45v705q0 150 -10 237
h45q8 -68 8 -248z" />
    <glyph glyph-name="Nlinebelow" unicode="&#x1e48;" horiz-adv-x="1591" 
d="M1374 0h-65l-1041 1393h-6v-1393h-45v1450h64l1042 -1391h6v1391h45v-1450zM1032 -193h-475v41h475v-41z" />
    <glyph glyph-name="nlinebelow" unicode="&#x1e49;" horiz-adv-x="1171" 
d="M827 -193h-475v41h475v-41zM258 694h4q42 127 146 202t227 75q180 0 260 -116t80 -286v-569h-45v565q0 131 -58 240q-31 57 -92 92t-145 35q-159 0 -267 -126t-108 -335v-471h-45v705q0 150 -10 237h45q8 -68 8 -248z" />
    <glyph glyph-name="Ncircumflexbelow" unicode="&#x1e4a;" horiz-adv-x="1591" 
d="M766 -152h57l211 -294h-47l-192 270l-193 -270h-47zM1374 0h-65l-1041 1393h-6v-1393h-45v1450h64l1042 -1391h6v1391h45v-1450z" />
    <glyph glyph-name="ncircumflexbelow" unicode="&#x1e4b;" horiz-adv-x="1171" 
d="M561 -152h57l211 -294h-47l-192 270l-193 -270h-47zM258 694h4q42 127 146 202t227 75q180 0 260 -116t80 -286v-569h-45v565q0 131 -58 240q-31 57 -92 92t-145 35q-159 0 -267 -126t-108 -335v-471h-45v705q0 150 -10 237h45q8 -68 8 -248z" />
    <glyph glyph-name="Otildeacute" unicode="&#x1e4c;" horiz-adv-x="1785" 
d="M1026 2236l-227 -294h-39l211 294h55zM1020 1690q66 0 82 98h33q-14 -137 -115 -137q-51 0 -132 49t-120 49q-68 0 -82 -104h-33q8 71 40 107t79 36t126 -49t122 -49zM1638 725q0 -334 -212 -550t-534 -216t-533 216q-212 216 -212 550t211 550t535 216q325 0 535 -216
t210 -550zM1593 725q0 307 -197 516q-198 209 -503 209t-503 -209t-198 -516t196 -516t505 -209t505 209q195 209 195 516z" />
    <glyph glyph-name="otildeacute" unicode="&#x1e4d;" horiz-adv-x="1239" 
d="M752 1716l-228 -295h-39l211 295h56zM745 1133q-51 0 -132 49t-119 49q-68 0 -82 -105h-33q8 70 40 107t79 37t126 -49t121 -50q68 0 82 99h33q-14 -137 -115 -137zM1112 472q0 -220 -138 -360t-356 -140t-354 140q-137 140 -137 360t137 359t354 139q218 0 356 -138
q138 -140 138 -360zM1067 473q0 197 -123 328t-326 131q-202 0 -324 -131t-122 -328t122 -330t324 -133t326 133q123 133 123 330z" />
    <glyph glyph-name="Otildedieresis" unicode="&#x1e4e;" horiz-adv-x="1785" 
d="M735 1942q-18 0 -33 14q-14 14 -14 38t14 38t32 14t34 -14q14 -14 14 -37t-14 -38t-33 -15zM1051 1942q-18 0 -33 14q-14 14 -14 38t14 38t32 14t33 -14t15 -37t-14 -38t-33 -15zM1020 1690q66 0 82 98h33q-14 -137 -115 -137q-51 0 -132 49t-120 49q-68 0 -82 -104h-33
q8 71 40 107t79 36t126 -49t122 -49zM1638 725q0 -334 -212 -550t-534 -216t-533 216q-212 216 -212 550t211 550t535 216q325 0 535 -216t210 -550zM1593 725q0 307 -197 516q-198 209 -503 209t-503 -209t-198 -516t196 -516t505 -209t505 209q195 209 195 516z" />
    <glyph glyph-name="otildedieresis" unicode="&#x1e4f;" horiz-adv-x="1239" 
d="M461 1421q-19 1 -33 15t-14 38t14 38q33 32 66 -1q14 -15 14 -37t-14 -38t-33 -15zM776 1421q-18 1 -32 15t-15 38q0 24 14 38q33 32 66 -1q14 -15 14 -37q-1 -22 -15 -38t-32 -15zM745 1133q-51 0 -132 49t-119 49q-68 0 -82 -105h-33q8 70 40 107t79 37t126 -49
t121 -50q68 0 82 99h33q-14 -137 -115 -137zM1112 472q0 -220 -138 -360t-356 -140t-354 140q-137 140 -137 360t137 359t354 139q218 0 356 -138q138 -140 138 -360zM1067 473q0 197 -123 328t-326 131q-202 0 -324 -131t-122 -328t122 -330t324 -133t326 133
q123 133 123 330z" />
    <glyph glyph-name="Omacrongrave" unicode="&#x1e50;" horiz-adv-x="1785" 
d="M760 2134h55l211 -295h-39zM1130 1645h-475v41h475v-41zM1638 725q0 -334 -212 -550t-534 -216t-533 216q-212 216 -212 550t211 550t535 216q325 0 535 -216t210 -550zM1593 725q0 307 -197 516q-198 209 -503 209t-503 -209t-198 -516t196 -516t505 -209t505 209
q195 209 195 516z" />
    <glyph glyph-name="omacrongrave" unicode="&#x1e51;" horiz-adv-x="1239" 
d="M485 1614h56l211 -295h-39zM856 1126h-475v41h475v-41zM1112 472q0 -220 -138 -360t-356 -140t-354 140q-137 140 -137 360t137 359t354 139q218 0 356 -138q138 -140 138 -360zM1067 473q0 197 -123 328t-326 131q-202 0 -324 -131t-122 -328t122 -330t324 -133t326 133
q123 133 123 330z" />
    <glyph glyph-name="Omacronacute" unicode="&#x1e52;" horiz-adv-x="1785" 
d="M1026 2134l-227 -295h-39l211 295h55zM1130 1645h-475v41h475v-41zM1638 725q0 -334 -212 -550t-534 -216t-533 216q-212 216 -212 550t211 550t535 216q325 0 535 -216t210 -550zM1593 725q0 307 -197 516q-198 209 -503 209t-503 -209t-198 -516t196 -516t505 -209
t505 209q195 209 195 516z" />
    <glyph glyph-name="omacronacute" unicode="&#x1e53;" horiz-adv-x="1239" 
d="M752 1614l-228 -295h-39l211 295h56zM856 1126h-475v41h475v-41zM1112 472q0 -220 -138 -360t-356 -140t-354 140q-137 140 -137 360t137 359t354 139q218 0 356 -138q138 -140 138 -360zM1067 473q0 197 -123 328t-326 131q-202 0 -324 -131t-122 -328t122 -330
t324 -133t326 133q123 133 123 330z" />
    <glyph glyph-name="Pacute" unicode="&#x1e54;" horiz-adv-x="1171" 
d="M1059 1090q0 -178 -121 -278t-301 -99h-375v-713h-45v1450h393q115 0 210 -30t167 -114t72 -216zM1014 1090q0 114 -60 190t-144 104q-83 28 -181 27h-367v-659h377q155 0 265 85t110 253zM770 1898l-227 -294h-39l211 294h55z" />
    <glyph glyph-name="pacute" unicode="&#x1e55;" horiz-adv-x="1282" 
d="M815 1421l-227 -295h-39l211 295h55zM254 686h6q59 137 172 211t252 74q209 1 340 -141t131 -359t-133 -358t-338 -142q-139 0 -256 75t-168 208h-6v-746h-45v1434h45v-256zM1110 468q0 192 -118 328t-305 136t-311 -135t-124 -325t124 -326t311 -136t305 133t118 325z
" />
    <glyph glyph-name="uni1E56" unicode="&#x1e56;" horiz-adv-x="1171" 
d="M1059 1090q0 -178 -121 -278t-301 -99h-375v-713h-45v1450h393q115 0 210 -30t167 -114t72 -216zM1014 1090q0 114 -60 190t-144 104q-83 28 -181 27h-367v-659h377q155 0 265 85t110 253zM614 1706q-18 0 -32 14t-14 38t14 38t32 14t32 -14t16 -37q0 -23 -15 -38
t-33 -15z" />
    <glyph glyph-name="uni1E57" unicode="&#x1e57;" horiz-adv-x="1282" 
d="M254 686h6q59 137 172 211t252 74q209 1 340 -141t131 -359t-133 -358t-338 -142q-139 0 -256 75t-168 208h-6v-746h-45v1434h45v-256zM1110 468q0 192 -118 328t-305 136t-311 -135t-124 -325t124 -326t311 -136t305 133t118 325zM676 1296q-18 0 -32 14t-15 39
q0 23 14 37q33 32 66 0q14 -14 14 -36q-1 -22 -15 -38t-32 -16z" />
    </font>
</defs>
</svg>
